SplineFontDB: 3.0
FontName: Caladea-Bold
FullName: Caladea Bold
FamilyName: Caladea
Weight: Bold
Copyright: Copyright (c) 2012, Huerta Tipografica (info@huertatipografica.com.ar), with Reserved Font Name 'Caladea'
Version: 1.002
ItalicAngle: 0
UnderlinePosition: -13
UnderlineWidth: 76
Ascent: 800
Descent: 200
sfntRevision: 0x00010083
LayerCount: 2
Layer: 0 1 "Back"  1
Layer: 1 1 "Fore"  0
XUID: [1021 533 1328391053 4739058]
FSType: 0
OS2Version: 3
OS2_WeightWidthSlopeOnly: 0
OS2_UseTypoMetrics: 1
CreationTime: 1346472720
ModificationTime: 1354992061
PfmFamily: 17
TTFWeight: 700
TTFWidth: 5
LineGap: 0
VLineGap: 0
Panose: 2 4 5 3 5 4 6 3 2 4
OS2TypoAscent: 945
OS2TypoAOffset: 0
OS2TypoDescent: -222
OS2TypoDOffset: 0
OS2TypoLinegap: 0
OS2WinAscent: 945
OS2WinAOffset: 0
OS2WinDescent: 222
OS2WinDOffset: 0
HheadAscent: 945
HheadAOffset: 0
HheadDescent: -222
HheadDOffset: 0
OS2SubXSize: 650
OS2SubYSize: 600
OS2SubXOff: 0
OS2SubYOff: 75
OS2SupXSize: 650
OS2SupYSize: 600
OS2SupXOff: 0
OS2SupYOff: 350
OS2StrikeYSize: 76
OS2StrikeYPos: 290
OS2CodePages: 20000093.00000000
OS2UnicodeRanges: a000002f.500000fb.00000000.00000000
Lookup: 258 0 0 "'kern' Horizontal Kerning in Latin lookup 0"  {"'kern' Horizontal Kerning in Latin lookup 0 subtable"  } ['kern' ('latn' <'dflt' > ) ]
DEI: 91125
TtTable: prep
PUSHW_1
 511
SCANCTRL
PUSHB_1
 4
SCANTYPE
EndTTInstrs
ShortTable: maxp 16
  1
  0
  420
  78
  7
  0
  0
  2
  0
  1
  1
  0
  64
  0
  0
  0
EndShort
LangName: 1033 "" "" "" "HuertaTipografica: Caladea Bold: 2012" "" "1.002" "" "Caladea is a trademark of Huerta Tipografica" "Huerta Tipografica" "Carolina Giovagnoli, Andres Torresi" "" "http://www.huertatipografica.com.ar" "http://www.huertatipografica.com.ar" "This Font Software is licensed under the SIL Open Font License, Version 1.1. This license is available with a FAQ at: http://scripts.sil.org/OFL" "http://scripts.sil.org/OFL" 
GaspTable: 1 65535 15 1
Encoding: UnicodeBmp
UnicodeInterp: none
NameList: AGL For New Fonts

StartChar: exclam
Encoding: 33 33 4
Width: 335
GlyphClass: 2
Flags: W
LayerCount: 2
Fore
SplineSet
122 405 m 0,0,1
 122 562 122 562 95 655 c 1,2,3
 101 668 101 668 119.5 679 c 128,-1,4
 138 690 138 690 163 690 c 0,5,6
 214 690 214 690 234.5 668 c 128,-1,7
 255 646 255 646 255 608 c 128,-1,8
 255 570 255 570 230 428.5 c 128,-1,9
 205 287 205 287 200 222 c 1,10,-1
 115 206 l 1,11,12
 122 384 122 384 122 405 c 0,0,1
75 61 m 128,-1,14
 75 131 75 131 154.5 131 c 128,-1,15
 234 131 234 131 234 61 c 128,-1,16
 234 -9 234 -9 154.5 -9 c 128,-1,13
 75 -9 75 -9 75 61 c 128,-1,14
EndSplineSet
EndChar

StartChar: quotedbl
Encoding: 34 34 5
Width: 422
GlyphClass: 2
Flags: W
LayerCount: 2
Fore
SplineSet
98 460 m 1,0,1
 70 616 70 616 70 645 c 128,-1,2
 70 674 70 674 85 688.5 c 128,-1,3
 100 703 100 703 123.5 703 c 128,-1,4
 147 703 147 703 162.5 688.5 c 128,-1,5
 178 674 178 674 178 654 c 0,6,7
 178 620 178 620 157 500 c 2,8,-1
 150 460 l 1,9,-1
 98 460 l 1,0,1
272 460 m 1,10,11
 244 616 244 616 244 645 c 128,-1,12
 244 674 244 674 259 688.5 c 128,-1,13
 274 703 274 703 297.5 703 c 128,-1,14
 321 703 321 703 336.5 688.5 c 128,-1,15
 352 674 352 674 352 654 c 0,16,17
 352 620 352 620 331 500 c 2,18,-1
 324 460 l 1,19,-1
 272 460 l 1,10,11
EndSplineSet
EndChar

StartChar: numbersign
Encoding: 35 35 6
Width: 618
GlyphClass: 2
Flags: W
LayerCount: 2
Fore
SplineSet
84 346 m 1,0,-1
 96 426 l 1,1,-1
 196 426 l 1,2,-1
 231 588 l 1,3,-1
 309 570 l 1,4,-1
 277 426 l 1,5,-1
 387 426 l 1,6,-1
 422 588 l 1,7,-1
 500 570 l 1,8,-1
 468 426 l 1,9,-1
 585 426 l 1,10,-1
 573 346 l 1,11,-1
 451 346 l 1,12,-1
 427 237 l 1,13,-1
 533 237 l 1,14,-1
 521 157 l 1,15,-1
 410 157 l 1,16,-1
 372 -18 l 1,17,-1
 294 0 l 1,18,-1
 328 157 l 1,19,-1
 219 157 l 1,20,-1
 181 -18 l 1,21,-1
 103 0 l 1,22,-1
 137 157 l 1,23,-1
 32 157 l 1,24,-1
 44 237 l 1,25,-1
 154 237 l 1,26,-1
 178 346 l 1,27,-1
 84 346 l 1,0,-1
260 346 m 1,28,-1
 236 237 l 1,29,-1
 345 237 l 1,30,-1
 369 346 l 1,31,-1
 260 346 l 1,28,-1
EndSplineSet
EndChar

StartChar: dollar
Encoding: 36 36 7
Width: 543
GlyphClass: 2
Flags: W
LayerCount: 2
Fore
SplineSet
70 150 m 0,0,1
 70 181 70 181 89.5 200.5 c 128,-1,2
 109 220 109 220 142.5 220 c 128,-1,3
 176 220 176 220 192 191 c 1,4,5
 184 170 184 170 184 147 c 128,-1,6
 184 124 184 124 204 105.5 c 128,-1,7
 224 87 224 87 257 82 c 1,8,-1
 257 288 l 1,9,10
 160 324 160 324 120.5 364.5 c 128,-1,11
 81 405 81 405 81 470.5 c 128,-1,12
 81 536 81 536 130 580.5 c 128,-1,13
 179 625 179 625 257 633 c 1,14,-1
 257 735 l 1,15,-1
 271 743 l 1,16,-1
 317 737 l 1,17,-1
 317 633 l 1,18,19
 387 627 387 627 434 595 c 128,-1,20
 481 563 481 563 481 520 c 0,21,22
 481 491 481 491 465.5 473 c 128,-1,23
 450 455 450 455 420 455 c 128,-1,24
 390 455 390 455 357 482 c 1,25,26
 379 507 379 507 379 530 c 0,27,28
 379 575 379 575 317 586 c 1,29,-1
 317 403 l 1,30,31
 410 360 410 360 449 316 c 128,-1,32
 488 272 488 272 488 202.5 c 128,-1,33
 488 133 488 133 442 88.5 c 128,-1,34
 396 44 396 44 317 35 c 1,35,-1
 317 -62 l 1,36,-1
 307 -73 l 1,37,-1
 257 -64 l 1,38,-1
 257 33 l 1,39,40
 70 41 70 41 70 150 c 0,0,1
199 517 m 0,41,42
 199 488 199 488 212 468 c 128,-1,43
 225 448 225 448 257 430 c 1,44,-1
 257 584 l 1,45,46
 199 568 199 568 199 517 c 0,41,42
317 89 m 1,47,48
 363 110 363 110 363 164 c 128,-1,49
 363 218 363 218 317 254 c 1,50,-1
 317 89 l 1,47,48
EndSplineSet
EndChar

StartChar: percent
Encoding: 37 37 8
Width: 976
GlyphClass: 2
Flags: W
LayerCount: 2
Fore
SplineSet
227 296 m 128,-1,1
 259 296 259 296 273.5 334.5 c 128,-1,2
 288 373 288 373 288 462 c 128,-1,3
 288 551 288 551 273.5 590 c 128,-1,4
 259 629 259 629 227 629 c 128,-1,5
 195 629 195 629 181 590.5 c 128,-1,6
 167 552 167 552 167 462 c 128,-1,7
 167 372 167 372 181 334 c 128,-1,0
 195 296 195 296 227 296 c 128,-1,1
227 253 m 128,-1,9
 147 253 147 253 104.5 307 c 128,-1,10
 62 361 62 361 62 461.5 c 128,-1,11
 62 562 62 562 104.5 615.5 c 128,-1,12
 147 669 147 669 227 669 c 128,-1,13
 307 669 307 669 349.5 615.5 c 128,-1,14
 392 562 392 562 392 461.5 c 128,-1,15
 392 361 392 361 349.5 307 c 128,-1,8
 307 253 307 253 227 253 c 128,-1,9
749 33 m 128,-1,17
 781 33 781 33 795.5 71.5 c 128,-1,18
 810 110 810 110 810 199 c 128,-1,19
 810 288 810 288 795.5 327 c 128,-1,20
 781 366 781 366 749 366 c 128,-1,21
 717 366 717 366 703 327.5 c 128,-1,22
 689 289 689 289 689 199 c 128,-1,23
 689 109 689 109 703 71 c 128,-1,16
 717 33 717 33 749 33 c 128,-1,17
749 -10 m 128,-1,25
 669 -10 669 -10 626.5 44 c 128,-1,26
 584 98 584 98 584 198.5 c 128,-1,27
 584 299 584 299 626.5 352.5 c 128,-1,28
 669 406 669 406 749 406 c 128,-1,29
 829 406 829 406 871.5 352.5 c 128,-1,30
 914 299 914 299 914 198.5 c 128,-1,31
 914 98 914 98 871.5 44 c 128,-1,24
 829 -10 829 -10 749 -10 c 128,-1,25
360 -30 m 1,32,-1
 294 2 l 1,33,-1
 615 684 l 1,34,-1
 681 652 l 1,35,-1
 360 -30 l 1,32,-1
EndSplineSet
EndChar

StartChar: ampersand
Encoding: 38 38 9
Width: 740
GlyphClass: 2
Flags: W
LayerCount: 2
Fore
SplineSet
32 196 m 0,0,1
 32 340 32 340 166 386 c 1,2,3
 81 424 81 424 81 518 c 0,4,5
 81 599 81 599 145.5 643 c 128,-1,6
 210 687 210 687 302 687 c 0,7,8
 404 687 404 687 466 638 c 0,9,10
 503 610 503 610 503 571.5 c 128,-1,11
 503 533 503 533 479.5 506.5 c 128,-1,12
 456 480 456 480 421.5 480 c 128,-1,13
 387 480 387 480 362 504 c 1,14,15
 378 533 378 533 378 560.5 c 128,-1,16
 378 588 378 588 358.5 605.5 c 128,-1,17
 339 623 339 623 304 623 c 128,-1,18
 269 623 269 623 249 597 c 128,-1,19
 229 571 229 571 229 528.5 c 128,-1,20
 229 486 229 486 248.5 457 c 128,-1,21
 268 428 268 428 312 427 c 1,22,-1
 312 344 l 1,23,24
 252 335 252 335 215.5 296.5 c 128,-1,25
 179 258 179 258 179 191.5 c 128,-1,26
 179 125 179 125 221 86 c 128,-1,27
 263 47 263 47 325 47 c 0,28,29
 421 47 421 47 470.5 108 c 128,-1,30
 520 169 520 169 520 261 c 0,31,32
 520 320 520 320 500 378 c 1,33,34
 463 375 463 375 463 332 c 0,35,36
 463 306 463 306 478 288 c 1,37,38
 451 269 451 269 418 269 c 128,-1,39
 385 269 385 269 365.5 288.5 c 128,-1,40
 346 308 346 308 346 339 c 0,41,42
 346 443 346 443 521 443 c 0,43,44
 570 443 570 443 591 453.5 c 128,-1,45
 612 464 612 464 612 488.5 c 128,-1,46
 612 513 612 513 593 530 c 1,47,48
 618 549 618 549 652.5 549 c 128,-1,49
 687 549 687 549 706.5 532 c 128,-1,50
 726 515 726 515 726 488 c 0,51,52
 726 408 726 408 602 390 c 1,53,54
 620 332 620 332 620 275 c 0,55,56
 620 154 620 154 542 74 c 128,-1,57
 464 -6 464 -6 316 -6 c 0,58,59
 198 -6 198 -6 115 48 c 128,-1,60
 32 102 32 102 32 196 c 0,0,1
EndSplineSet
EndChar

StartChar: quotesingle
Encoding: 39 39 10
Width: 251
GlyphClass: 2
Flags: W
LayerCount: 2
Fore
SplineSet
98 460 m 1,0,1
 70 616 70 616 70 645 c 128,-1,2
 70 674 70 674 85 688.5 c 128,-1,3
 100 703 100 703 123.5 703 c 128,-1,4
 147 703 147 703 162.5 688.5 c 128,-1,5
 178 674 178 674 178 654 c 0,6,7
 178 620 178 620 157 500 c 2,8,-1
 150 460 l 1,9,-1
 98 460 l 1,0,1
EndSplineSet
EndChar

StartChar: parenleft
Encoding: 40 40 11
Width: 408
GlyphClass: 2
Flags: W
LayerCount: 2
Fore
SplineSet
93 282 m 128,-1,1
 93 366 93 366 120 443 c 128,-1,2
 147 520 147 520 186 570 c 0,3,4
 266 675 266 675 327 713 c 2,5,-1
 354 730 l 1,6,-1
 379 705 l 1,7,8
 210 543 210 543 210 283 c 128,-1,9
 210 23 210 23 379 -139 c 1,10,-1
 354 -165 l 1,11,12
 321 -147 321 -147 269.5 -99.5 c 128,-1,13
 218 -52 218 -52 183.5 -4.5 c 128,-1,14
 149 43 149 43 121 120.5 c 128,-1,0
 93 198 93 198 93 282 c 128,-1,1
EndSplineSet
EndChar

StartChar: parenright
Encoding: 41 41 12
Width: 408
GlyphClass: 2
Flags: W
LayerCount: 2
Fore
SplineSet
198 283 m 128,-1,1
 198 543 198 543 29 705 c 1,2,-1
 54 730 l 1,3,4
 142 677 142 677 212 584 c 0,5,6
 315 447 315 447 315 282 c 0,7,8
 315 161 315 161 263 62 c 0,9,10
 216 -27 216 -27 156 -83 c 1,11,12
 100 -137 100 -137 68 -156 c 1,13,-1
 54 -165 l 1,14,-1
 29 -139 l 1,15,0
 198 23 198 23 198 283 c 128,-1,1
EndSplineSet
EndChar

StartChar: asterisk
Encoding: 42 42 13
Width: 453
GlyphClass: 2
Flags: W
LayerCount: 2
Fore
SplineSet
192 408 m 0,0,1
 179 389 179 389 162 389 c 128,-1,2
 145 389 145 389 134 399.5 c 128,-1,3
 123 410 123 410 123 425 c 128,-1,4
 123 440 123 440 133 449.5 c 128,-1,5
 143 459 143 459 163.5 474 c 128,-1,6
 184 489 184 489 199 512 c 1,7,8
 171 509 171 509 142.5 496.5 c 128,-1,9
 114 484 114 484 101.5 484 c 128,-1,10
 89 484 89 484 79 494.5 c 128,-1,11
 69 505 69 505 69 521 c 128,-1,12
 69 537 69 537 79 547 c 128,-1,13
 89 557 89 557 101.5 557 c 128,-1,14
 114 557 114 557 142.5 544 c 128,-1,15
 171 531 171 531 200 528 c 1,16,17
 185 549 185 549 164.5 564.5 c 128,-1,18
 144 580 144 580 133.5 590.5 c 128,-1,19
 123 601 123 601 123 615.5 c 128,-1,20
 123 630 123 630 134 640.5 c 128,-1,21
 145 651 145 651 164 651 c 128,-1,22
 183 651 183 651 189 638.5 c 128,-1,23
 195 626 195 626 199 594.5 c 128,-1,24
 203 563 203 563 214 538 c 1,25,26
 230 572 230 572 234 620 c 0,27,28
 236 651 236 651 268 651 c 0,29,30
 284 651 284 651 294.5 640.5 c 128,-1,31
 305 630 305 630 305 612.5 c 128,-1,32
 305 595 305 595 275 573 c 128,-1,33
 245 551 245 551 229 529 c 1,34,35
 255 532 255 532 284.5 544.5 c 128,-1,36
 314 557 314 557 326.5 557 c 128,-1,37
 339 557 339 557 349.5 547 c 128,-1,38
 360 537 360 537 360 521 c 128,-1,39
 360 505 360 505 349.5 494.5 c 128,-1,40
 339 484 339 484 326 484 c 128,-1,41
 313 484 313 484 283.5 496.5 c 128,-1,42
 254 509 254 509 228 512 c 1,43,44
 244 490 244 490 264.5 475 c 128,-1,45
 285 460 285 460 295 450.5 c 128,-1,46
 305 441 305 441 305 425.5 c 128,-1,47
 305 410 305 410 294 399.5 c 128,-1,48
 283 389 283 389 263.5 389 c 128,-1,49
 244 389 244 389 239 400 c 128,-1,50
 234 411 234 411 231 443 c 128,-1,51
 228 475 228 475 214 504 c 1,52,53
 202 477 202 477 199 446 c 128,-1,54
 196 415 196 415 192 408 c 0,0,1
EndSplineSet
EndChar

StartChar: plus
Encoding: 43 43 14
Width: 592
GlyphClass: 2
Flags: W
LayerCount: 2
Fore
SplineSet
91 238 m 1,0,-1
 91 333 l 1,1,-1
 244 333 l 1,2,-1
 244 490 l 1,3,-1
 344 490 l 1,4,-1
 344 333 l 1,5,-1
 500 333 l 1,6,-1
 500 238 l 1,7,-1
 344 238 l 1,8,-1
 344 82 l 1,9,-1
 244 82 l 1,10,-1
 244 238 l 1,11,-1
 91 238 l 1,0,-1
EndSplineSet
EndChar

StartChar: comma
Encoding: 44 44 15
Width: 232
GlyphClass: 2
Flags: W
LayerCount: 2
Fore
SplineSet
57 23 m 1,0,1
 35 44 35 44 35 72.5 c 128,-1,2
 35 101 35 101 54.5 120.5 c 128,-1,3
 74 140 74 140 109.5 140 c 128,-1,4
 145 140 145 140 166 116.5 c 128,-1,5
 187 93 187 93 187 53 c 0,6,7
 187 -68 187 -68 62 -140 c 1,8,-1
 34 -105 l 1,9,10
 65 -82 65 -82 84 -53.5 c 128,-1,11
 103 -25 103 -25 103 1.5 c 128,-1,12
 103 28 103 28 77 28 c 0,13,14
 69 28 69 28 57 23 c 1,0,1
EndSplineSet
EndChar

StartChar: hyphen
Encoding: 45 45 16
Width: 337
GlyphClass: 2
Flags: W
LayerCount: 2
Fore
SplineSet
53 219 m 1,0,-1
 53 314 l 1,1,-1
 284 314 l 1,2,-1
 284 219 l 1,3,-1
 53 219 l 1,0,-1
EndSplineSet
EndChar

StartChar: period
Encoding: 46 46 17
Width: 232
GlyphClass: 2
Flags: W
LayerCount: 2
Fore
SplineSet
117 149 m 128,-1,1
 187 149 187 149 187 72.5 c 128,-1,2
 187 -4 187 -4 117 -4 c 0,3,4
 82 -4 82 -4 64.5 16.5 c 128,-1,5
 47 37 47 37 47 72 c 0,6,0
 47 149 47 149 117 149 c 128,-1,1
EndSplineSet
EndChar

StartChar: slash
Encoding: 47 47 18
Width: 505
GlyphClass: 2
Flags: W
LayerCount: 2
Fore
SplineSet
141 -140 m 1,0,-1
 67 -112 l 1,1,-1
 377 700 l 1,2,-1
 451 672 l 1,3,-1
 141 -140 l 1,0,-1
EndSplineSet
EndChar

StartChar: zero
Encoding: 48 48 19
Width: 592
GlyphClass: 2
Flags: W
LayerCount: 2
Fore
SplineSet
296 48 m 128,-1,1
 347 48 347 48 369.5 114.5 c 128,-1,2
 392 181 392 181 392 336 c 128,-1,3
 392 491 392 491 369.5 558.5 c 128,-1,4
 347 626 347 626 296 626 c 128,-1,5
 245 626 245 626 222.5 559 c 128,-1,6
 200 492 200 492 200 336.5 c 128,-1,7
 200 181 200 181 222.5 114.5 c 128,-1,0
 245 48 245 48 296 48 c 128,-1,1
296 -7 m 128,-1,9
 179 -7 179 -7 116 81.5 c 128,-1,10
 53 170 53 170 53 335.5 c 128,-1,11
 53 501 53 501 116 589 c 128,-1,12
 179 677 179 677 296 677 c 128,-1,13
 413 677 413 677 475.5 589.5 c 128,-1,14
 538 502 538 502 538 336 c 128,-1,15
 538 170 538 170 475.5 81.5 c 128,-1,8
 413 -7 413 -7 296 -7 c 128,-1,9
EndSplineSet
EndChar

StartChar: one
Encoding: 49 49 20
Width: 592
GlyphClass: 2
Flags: W
LayerCount: 2
Fore
SplineSet
241 557 m 1,0,-1
 107 557 l 1,1,-1
 107 615 l 1,2,3
 256 626 256 626 356 671 c 1,4,-1
 389 656 l 1,5,-1
 389 78 l 1,6,7
 408 67 408 67 449 58.5 c 128,-1,8
 490 50 490 50 514 48 c 1,9,-1
 511 0 l 1,10,-1
 103 0 l 1,11,-1
 105 48 l 1,12,13
 194 58 194 58 241 78 c 1,14,-1
 241 557 l 1,0,-1
EndSplineSet
EndChar

StartChar: two
Encoding: 50 50 21
Width: 592
GlyphClass: 2
Flags: W
LayerCount: 2
Fore
SplineSet
512 98 m 1,0,-1
 512 0 l 1,1,-1
 59 0 l 1,2,-1
 59 58 l 1,3,4
 223 216 223 216 286 314.5 c 128,-1,5
 349 413 349 413 349 517 c 128,-1,6
 349 621 349 621 277 621 c 0,7,8
 245 621 245 621 225 591.5 c 128,-1,9
 205 562 205 562 205 525.5 c 128,-1,10
 205 489 205 489 226 462 c 1,11,12
 190 428 190 428 149.5 428 c 128,-1,13
 109 428 109 428 85 450.5 c 128,-1,14
 61 473 61 473 61 516 c 0,15,16
 61 587 61 587 120.5 632.5 c 128,-1,17
 180 678 180 678 280 678 c 0,18,19
 354 678 354 678 406 652 c 0,20,21
 505 602 505 602 505 486 c 0,22,23
 505 406 505 406 444 315.5 c 128,-1,24
 383 225 383 225 243 98 c 1,25,-1
 512 98 l 1,0,-1
EndSplineSet
EndChar

StartChar: three
Encoding: 51 51 22
Width: 592
GlyphClass: 2
Flags: W
LayerCount: 2
Fore
SplineSet
200 319 m 1,0,-1
 200 381 l 1,1,2
 347 393 347 393 347 507 c 128,-1,3
 347 621 347 621 280 621 c 0,4,5
 243 621 243 621 224.5 595 c 128,-1,6
 206 569 206 569 206 534 c 128,-1,7
 206 499 206 499 220 473 c 1,8,9
 192 443 192 443 150 443 c 128,-1,10
 108 443 108 443 86 467 c 128,-1,11
 64 491 64 491 64 535 c 128,-1,12
 64 579 64 579 102 614 c 0,13,14
 169 678 169 678 276.5 678 c 128,-1,15
 384 678 384 678 445.5 631 c 128,-1,16
 507 584 507 584 507 508 c 0,17,18
 507 393 507 393 376 351 c 1,19,20
 458 333 458 333 491 292 c 128,-1,21
 524 251 524 251 524 181 c 0,22,23
 524 91 524 91 448 41.5 c 128,-1,24
 372 -8 372 -8 277.5 -8 c 128,-1,25
 183 -8 183 -8 120.5 29 c 128,-1,26
 58 66 58 66 58 130 c 0,27,28
 58 167 58 167 80 187.5 c 128,-1,29
 102 208 102 208 135.5 208 c 128,-1,30
 169 208 169 208 204 181 c 1,31,32
 195 162 195 162 195 132.5 c 128,-1,33
 195 103 195 103 214.5 83 c 128,-1,34
 234 63 234 63 273 63 c 0,35,36
 359 63 359 63 359 182 c 0,37,38
 359 247 359 247 317.5 283 c 128,-1,39
 276 319 276 319 200 319 c 1,0,-1
EndSplineSet
EndChar

StartChar: four
Encoding: 52 52 23
Width: 592
GlyphClass: 2
Flags: W
LayerCount: 2
Fore
SplineSet
320 179 m 1,0,-1
 31 179 l 1,1,-1
 23 215 l 1,2,-1
 275 682 l 1,3,4
 355 678 355 678 405 647 c 1,5,-1
 167 255 l 1,6,-1
 320 255 l 1,7,-1
 330 418 l 1,8,9
 362 418 362 418 376.5 431 c 128,-1,10
 391 444 391 444 399 475 c 1,11,-1
 456 475 l 1,12,-1
 455 250 l 1,13,14
 493 239 493 239 551 227 c 1,15,-1
 546 179 l 1,16,-1
 450 179 l 1,17,-1
 450 0 l 1,18,-1
 320 0 l 1,19,-1
 320 179 l 1,0,-1
EndSplineSet
EndChar

StartChar: five
Encoding: 53 53 24
Width: 592
GlyphClass: 2
Flags: W
LayerCount: 2
Fore
SplineSet
319 667 m 2,0,-1
 461 669 l 1,1,-1
 490 648 l 1,2,-1
 481 572 l 1,3,-1
 233 572 l 1,4,5
 232 556 232 556 227 498.5 c 128,-1,6
 222 441 222 441 219 405 c 1,7,8
 271 418 271 418 313 418 c 0,9,10
 412 418 412 418 474.5 365.5 c 128,-1,11
 537 313 537 313 537 214.5 c 128,-1,12
 537 116 537 116 471 54 c 128,-1,13
 405 -8 405 -8 302.5 -8 c 128,-1,14
 200 -8 200 -8 138.5 29.5 c 128,-1,15
 77 67 77 67 77 125 c 0,16,17
 77 165 77 165 99 186.5 c 128,-1,18
 121 208 121 208 156 208 c 128,-1,19
 191 208 191 208 223 181 c 1,20,21
 214 160 214 160 214 132 c 128,-1,22
 214 104 214 104 233.5 83 c 128,-1,23
 253 62 253 62 293 62 c 0,24,25
 383 62 383 62 383 212 c 0,26,27
 383 348 383 348 280 348 c 0,28,29
 221 348 221 348 153 306 c 1,30,-1
 98 359 l 1,31,32
 104 429 104 429 124 643 c 1,33,-1
 157 670 l 1,34,35
 291 667 291 667 319 667 c 2,0,-1
EndSplineSet
EndChar

StartChar: six
Encoding: 54 54 25
Width: 592
GlyphClass: 2
Flags: W
LayerCount: 2
Fore
SplineSet
332 390 m 0,0,1
 432 390 432 390 489.5 336 c 128,-1,2
 547 282 547 282 547 192.5 c 128,-1,3
 547 103 547 103 480 48 c 128,-1,4
 413 -7 413 -7 300.5 -7 c 128,-1,5
 188 -7 188 -7 124.5 59 c 128,-1,6
 61 125 61 125 61 250 c 0,7,8
 61 407 61 407 158.5 517.5 c 128,-1,9
 256 628 256 628 441 680 c 1,10,-1
 465 630 l 1,11,12
 263 543 263 543 222 362 c 1,13,14
 280 390 280 390 332 390 c 0,0,1
376.5 285.5 m 128,-1,16
 351 320 351 320 306.5 320 c 128,-1,17
 262 320 262 320 213 286 c 1,18,-1
 213 273 l 2,19,20
 213 164 213 164 237 113 c 128,-1,21
 261 62 261 62 308 62 c 0,22,23
 402 62 402 62 402 189 c 0,24,15
 402 251 402 251 376.5 285.5 c 128,-1,16
EndSplineSet
EndChar

StartChar: seven
Encoding: 55 55 26
Width: 592
GlyphClass: 2
Flags: W
LayerCount: 2
Fore
SplineSet
311 667 m 1,0,-1
 532 668 l 1,1,-1
 552 625 l 1,2,3
 473 500 473 500 388 302 c 1,4,5
 333 171 333 171 333 114.5 c 128,-1,6
 333 58 333 58 368 33 c 1,7,8
 335 -8 335 -8 283 -8 c 0,9,10
 178 -8 178 -8 178 94 c 0,11,12
 178 173 178 173 233 276 c 0,13,14
 258 321 258 321 312 403 c 128,-1,15
 366 485 366 485 375 499 c 2,16,-1
 429 587 l 1,17,-1
 201 587 l 1,18,19
 187 542 187 542 184 481 c 1,20,21
 166 478 166 478 147 478 c 128,-1,22
 128 478 128 478 108 481 c 1,23,24
 103 516 103 516 91.5 581 c 128,-1,25
 80 646 80 646 80 653 c 1,26,-1
 96 668 l 1,27,-1
 311 667 l 1,0,-1
EndSplineSet
EndChar

StartChar: eight
Encoding: 56 56 27
Width: 592
GlyphClass: 2
Flags: W
LayerCount: 2
Fore
SplineSet
522 513 m 0,0,1
 522 472 522 472 492 431 c 128,-1,2
 462 390 462 390 413 364 c 1,3,4
 475 334 475 334 510.5 294 c 128,-1,5
 546 254 546 254 546 191 c 0,6,7
 546 100 546 100 480 46.5 c 128,-1,8
 414 -7 414 -7 296.5 -7 c 128,-1,9
 179 -7 179 -7 112.5 42 c 128,-1,10
 46 91 46 91 46 182 c 0,11,12
 46 229 46 229 76 275.5 c 128,-1,13
 106 322 106 322 160 358 c 1,14,15
 65 411 65 411 65 505 c 0,16,17
 65 585 65 585 127 632 c 128,-1,18
 189 679 189 679 293.5 679 c 128,-1,19
 398 679 398 679 460 634 c 128,-1,20
 522 589 522 589 522 513 c 0,0,1
340 278 m 0,21,22
 301 299 301 299 252 317 c 1,23,24
 194 272 194 272 194 188 c 0,25,26
 194 129 194 129 223 95.5 c 128,-1,27
 252 62 252 62 301.5 62 c 128,-1,28
 351 62 351 62 378.5 95 c 128,-1,29
 406 128 406 128 406 185.5 c 128,-1,30
 406 243 406 243 340 278 c 0,21,22
230 582.5 m 128,-1,32
 207 557 207 557 207 516.5 c 128,-1,33
 207 476 207 476 236.5 451.5 c 128,-1,34
 266 427 266 427 323 403 c 1,35,36
 348 420 348 420 363 450 c 128,-1,37
 378 480 378 480 378 518.5 c 128,-1,38
 378 557 378 557 354.5 582.5 c 128,-1,39
 331 608 331 608 292 608 c 128,-1,31
 253 608 253 608 230 582.5 c 128,-1,32
EndSplineSet
EndChar

StartChar: nine
Encoding: 57 57 28
Width: 592
GlyphClass: 2
Flags: W
LayerCount: 2
Fore
SplineSet
260 279 m 0,0,1
 160 279 160 279 102.5 333 c 128,-1,2
 45 387 45 387 45 476.5 c 128,-1,3
 45 566 45 566 112 621 c 128,-1,4
 179 676 179 676 291.5 676 c 128,-1,5
 404 676 404 676 467.5 610 c 128,-1,6
 531 544 531 544 531 419 c 0,7,8
 531 262 531 262 433.5 151.5 c 128,-1,9
 336 41 336 41 151 -11 c 1,10,-1
 127 39 l 1,11,12
 330 125 330 125 369 307 c 1,13,14
 313 279 313 279 260 279 c 0,0,1
215.5 383.5 m 128,-1,16
 241 349 241 349 285 349 c 128,-1,17
 329 349 329 349 379 383 c 1,18,-1
 379 396 l 2,19,20
 379 505 379 505 355 556 c 128,-1,21
 331 607 331 607 284 607 c 0,22,23
 190 607 190 607 190 480 c 0,24,15
 190 418 190 418 215.5 383.5 c 128,-1,16
EndSplineSet
EndChar

StartChar: colon
Encoding: 58 58 29
Width: 280
GlyphClass: 2
Flags: W
LayerCount: 2
Fore
SplineSet
149 146 m 128,-1,1
 219 146 219 146 219 69.5 c 128,-1,2
 219 -7 219 -7 149 -7 c 0,3,4
 114 -7 114 -7 96.5 13.5 c 128,-1,5
 79 34 79 34 79 69 c 0,6,0
 79 146 79 146 149 146 c 128,-1,1
149 461 m 128,-1,8
 219 461 219 461 219 384.5 c 128,-1,9
 219 308 219 308 149 308 c 0,10,11
 114 308 114 308 96.5 328.5 c 128,-1,12
 79 349 79 349 79 384 c 0,13,7
 79 461 79 461 149 461 c 128,-1,8
EndSplineSet
EndChar

StartChar: semicolon
Encoding: 59 59 30
Width: 280
GlyphClass: 2
Flags: W
LayerCount: 2
Fore
SplineSet
149 461 m 128,-1,1
 219 461 219 461 219 384.5 c 128,-1,2
 219 308 219 308 149 308 c 0,3,4
 114 308 114 308 96.5 328.5 c 128,-1,5
 79 349 79 349 79 384 c 0,6,0
 79 461 79 461 149 461 c 128,-1,1
85 23 m 1,7,8
 63 44 63 44 63 72.5 c 128,-1,9
 63 101 63 101 82.5 120.5 c 128,-1,10
 102 140 102 140 137.5 140 c 128,-1,11
 173 140 173 140 194 116.5 c 128,-1,12
 215 93 215 93 215 53 c 0,13,14
 215 -68 215 -68 90 -140 c 1,15,-1
 62 -105 l 1,16,17
 93 -82 93 -82 112 -53.5 c 128,-1,18
 131 -25 131 -25 131 1.5 c 128,-1,19
 131 28 131 28 105 28 c 0,20,21
 97 28 97 28 85 23 c 1,7,8
EndSplineSet
EndChar

StartChar: less
Encoding: 60 60 31
Width: 592
GlyphClass: 2
Flags: W
LayerCount: 2
Fore
SplineSet
64 222 m 1,0,-1
 64 349 l 1,1,-1
 506 524 l 1,2,-1
 540 431 l 1,3,-1
 159 285 l 1,4,-1
 540 140 l 1,5,-1
 506 47 l 1,6,-1
 64 222 l 1,0,-1
EndSplineSet
EndChar

StartChar: equal
Encoding: 61 61 32
Width: 592
GlyphClass: 2
Flags: W
LayerCount: 2
Fore
SplineSet
61 145 m 1,0,-1
 61 240 l 1,1,-1
 530 240 l 1,2,-1
 530 145 l 1,3,-1
 61 145 l 1,0,-1
61 332 m 1,4,-1
 61 427 l 1,5,-1
 530 427 l 1,6,-1
 530 332 l 1,7,-1
 61 332 l 1,4,-1
EndSplineSet
EndChar

StartChar: greater
Encoding: 62 62 33
Width: 592
GlyphClass: 2
Flags: W
LayerCount: 2
Fore
SplineSet
540 349 m 1,0,-1
 540 222 l 1,1,-1
 98 47 l 1,2,-1
 64 140 l 1,3,-1
 445 285 l 1,4,-1
 64 431 l 1,5,-1
 98 524 l 1,6,-1
 540 349 l 1,0,-1
EndSplineSet
EndChar

StartChar: question
Encoding: 63 63 34
Width: 452
GlyphClass: 2
Flags: W
LayerCount: 2
Fore
SplineSet
147.5 212.5 m 128,-1,1
 125 234 125 234 125 272 c 128,-1,2
 125 310 125 310 140 338.5 c 128,-1,3
 155 367 155 367 176.5 387.5 c 128,-1,4
 198 408 198 408 220 430 c 0,5,6
 271 481 271 481 271 560 c 0,7,8
 271 595 271 595 252.5 613 c 128,-1,9
 234 631 234 631 211 631 c 128,-1,10
 188 631 188 631 173 619 c 128,-1,11
 158 607 158 607 158 582.5 c 128,-1,12
 158 558 158 558 188 534 c 1,13,14
 179 512 179 512 158.5 500 c 128,-1,15
 138 488 138 488 109.5 488 c 128,-1,16
 81 488 81 488 57 508.5 c 128,-1,17
 33 529 33 529 33 565 c 0,18,19
 33 616 33 616 88.5 646.5 c 128,-1,20
 144 677 144 677 225.5 677 c 128,-1,21
 307 677 307 677 356 642.5 c 128,-1,22
 405 608 405 608 405 540 c 0,23,24
 405 502 405 502 389 468.5 c 128,-1,25
 373 435 373 435 350.5 412 c 128,-1,26
 328 389 328 389 306 368 c 0,27,28
 252 315 252 315 252 273 c 0,29,30
 252 250 252 250 268 216 c 1,31,32
 237 191 237 191 203.5 191 c 128,-1,0
 170 191 170 191 147.5 212.5 c 128,-1,1
280 59 m 128,-1,34
 280 -11 280 -11 200.5 -11 c 128,-1,35
 121 -11 121 -11 121 59 c 128,-1,36
 121 129 121 129 200.5 129 c 128,-1,33
 280 129 280 129 280 59 c 128,-1,34
EndSplineSet
EndChar

StartChar: at
Encoding: 64 64 35
Width: 921
GlyphClass: 2
Flags: W
LayerCount: 2
Fore
SplineSet
635 341 m 2,0,-1
 635 147 l 2,1,2
 635 119 635 119 644.5 102 c 128,-1,3
 654 85 654 85 670.5 85 c 128,-1,4
 687 85 687 85 703 104 c 128,-1,5
 719 123 719 123 726 153 c 1,6,7
 742 207 742 207 742 298 c 0,8,9
 742 435 742 435 665 512 c 128,-1,10
 588 589 588 589 454.5 589 c 128,-1,11
 321 589 321 589 238 494.5 c 128,-1,12
 155 400 155 400 155 249.5 c 128,-1,13
 155 99 155 99 234.5 4 c 128,-1,14
 314 -91 314 -91 441 -91 c 0,15,16
 536 -91 536 -91 600 -53 c 1,17,-1
 632 -100 l 1,18,19
 549 -152 549 -152 441 -152 c 0,20,21
 255 -152 255 -152 145 -43 c 128,-1,22
 35 66 35 66 35 245 c 128,-1,23
 35 424 35 424 152 534.5 c 128,-1,24
 269 645 269 645 453.5 645 c 128,-1,25
 638 645 638 645 750 550 c 128,-1,26
 862 455 862 455 862 298 c 0,27,28
 862 177 862 177 804.5 102.5 c 128,-1,29
 747 28 747 28 646 28 c 128,-1,30
 545 28 545 28 517 99 c 1,31,32
 457 32 457 32 378 32 c 0,33,34
 318 32 318 32 286 61 c 128,-1,35
 254 90 254 90 254 145 c 0,36,37
 254 264 254 264 432 278 c 2,38,-1
 508 284 l 1,39,-1
 508 337 l 2,40,41
 508 399 508 399 493 424 c 128,-1,42
 478 449 478 449 440 449 c 0,43,44
 417 449 417 449 401.5 435.5 c 128,-1,45
 386 422 386 422 386 401 c 128,-1,46
 386 380 386 380 407 365 c 1,47,48
 402 342 402 342 384.5 328.5 c 128,-1,49
 367 315 367 315 340 315 c 128,-1,50
 313 315 313 315 293 334 c 128,-1,51
 273 353 273 353 273 381 c 0,52,53
 273 429 273 429 318 456.5 c 128,-1,54
 363 484 363 484 440 484 c 0,55,56
 635 484 635 484 635 341 c 2,0,-1
373 155 m 0,57,58
 373 91 373 91 423 91 c 0,59,60
 465 91 465 91 508 141 c 1,61,-1
 508 240 l 1,62,-1
 462 236 l 2,63,64
 415 231 415 231 394 212.5 c 128,-1,65
 373 194 373 194 373 155 c 0,57,58
EndSplineSet
EndChar

StartChar: A
Encoding: 65 65 36
Width: 652
GlyphClass: 2
Flags: W
LayerCount: 2
Fore
SplineSet
439 65 m 1,0,-1
 392 208 l 1,1,-1
 186 208 l 1,2,-1
 138 70 l 1,3,4
 166 47 166 47 223 40 c 1,5,-1
 218 0 l 1,6,-1
 -8 0 l 1,7,-1
 -2 40 l 1,8,9
 44 42 44 42 59 65 c 1,10,-1
 272 667 l 1,11,-1
 376 667 l 1,12,-1
 591 74 l 1,13,14
 607 48 607 48 652 40 c 1,15,-1
 647 0 l 1,16,-1
 373 0 l 1,17,-1
 379 40 l 1,18,19
 425 47 425 47 439 65 c 1,0,-1
293 511 m 1,20,-1
 208 271 l 1,21,-1
 371 271 l 1,22,-1
 293 511 l 1,20,-1
EndSplineSet
EndChar

StartChar: B
Encoding: 66 66 37
Width: 651
GlyphClass: 2
Flags: W
LayerCount: 2
Fore
SplineSet
325 667 m 2,0,1
 456 667 456 667 525 624.5 c 128,-1,2
 594 582 594 582 594 501 c 0,3,4
 594 391 594 391 472 359 c 1,5,6
 542 338 542 338 579.5 293.5 c 128,-1,7
 617 249 617 249 617 188 c 0,8,9
 617 100 617 100 545 50 c 128,-1,10
 473 0 473 0 347 0 c 2,11,-1
 39 0 l 1,12,-1
 43 41 l 1,13,14
 77 48 77 48 100 71 c 1,15,-1
 100 596 l 1,16,17
 82 614 82 614 39 628 c 1,18,-1
 43 667 l 1,19,-1
 325 667 l 2,0,1
301 320 m 2,20,-1
 247 320 l 1,21,-1
 247 65 l 1,22,23
 286 62 286 62 315 62 c 0,24,25
 388 62 388 62 422.5 92 c 128,-1,26
 457 122 457 122 457 187 c 0,27,28
 457 320 457 320 301 320 c 2,20,-1
439 499 m 0,29,30
 439 551 439 551 406 578.5 c 128,-1,31
 373 606 373 606 323.5 606 c 128,-1,32
 274 606 274 606 247 602 c 1,33,-1
 247 383 l 1,34,-1
 302 383 l 2,35,36
 439 383 439 383 439 499 c 0,29,30
EndSplineSet
EndChar

StartChar: C
Encoding: 67 67 38
Width: 573
GlyphClass: 2
Flags: W
LayerCount: 2
Fore
SplineSet
335 -10 m 0,0,1
 194 -10 194 -10 120.5 75 c 128,-1,2
 47 160 47 160 47 329 c 128,-1,3
 47 498 47 498 119.5 586 c 128,-1,4
 192 674 192 674 334 674 c 0,5,6
 425 674 425 674 482 637 c 128,-1,7
 539 600 539 600 539 542 c 0,8,9
 539 506 539 506 516 481 c 128,-1,10
 493 456 493 456 464 456 c 128,-1,11
 435 456 435 456 413.5 469 c 128,-1,12
 392 482 392 482 382 502 c 1,13,14
 398 529 398 529 398 557 c 128,-1,15
 398 585 398 585 379.5 603 c 128,-1,16
 361 621 361 621 330 621 c 0,17,18
 212 621 212 621 212 342 c 0,19,20
 212 201 212 201 249 129.5 c 128,-1,21
 286 58 286 58 368 58 c 128,-1,22
 450 58 450 58 520 133 c 1,23,-1
 553 101 l 1,24,25
 506 48 506 48 448.5 19 c 128,-1,26
 391 -10 391 -10 335 -10 c 0,0,1
EndSplineSet
EndChar

StartChar: D
Encoding: 68 68 39
Width: 705
GlyphClass: 2
Flags: W
LayerCount: 2
Fore
SplineSet
260 667 m 2,0,1
 465 667 465 667 558 587 c 128,-1,2
 651 507 651 507 651 333 c 128,-1,3
 651 159 651 159 557 79.5 c 128,-1,4
 463 0 463 0 254 0 c 2,5,-1
 42 0 l 1,6,-1
 46 41 l 1,7,8
 78 48 78 48 102 70 c 1,9,-1
 102 597 l 1,10,11
 84 614 84 614 42 628 c 1,12,-1
 46 667 l 1,13,-1
 260 667 l 2,0,1
292 605 m 2,14,-1
 250 605 l 1,15,-1
 250 66 l 1,16,17
 259 62 259 62 289 62 c 0,18,19
 397 62 397 62 445.5 127 c 128,-1,20
 494 192 494 192 494 334.5 c 128,-1,21
 494 477 494 477 447 541 c 128,-1,22
 400 605 400 605 292 605 c 2,14,-1
EndSplineSet
EndChar

StartChar: E
Encoding: 69 69 40
Width: 578
GlyphClass: 2
Flags: W
LayerCount: 2
Fore
SplineSet
531 502 m 1,0,1
 508 495 508 495 493.5 495 c 128,-1,2
 479 495 479 495 457 499 c 1,3,4
 442 568 442 568 414 606 c 1,5,-1
 246 606 l 1,6,-1
 246 369 l 1,7,-1
 339 376 l 2,8,9
 357 378 357 378 372.5 396 c 128,-1,10
 388 414 388 414 395 443 c 1,11,-1
 447 443 l 1,12,-1
 447 236 l 1,13,-1
 395 236 l 1,14,15
 381 276 381 276 368 292 c 128,-1,16
 355 308 355 308 338 310 c 2,17,-1
 246 318 l 1,18,-1
 246 62 l 1,19,-1
 421 62 l 1,20,21
 453 110 453 110 468 189 c 1,22,23
 489 192 489 192 507.5 192 c 128,-1,24
 526 192 526 192 542 189 c 1,25,-1
 532 0 l 1,26,-1
 38 0 l 1,27,-1
 42 41 l 1,28,29
 81 47 81 47 99 66 c 1,30,-1
 99 601 l 1,31,32
 75 622 75 622 38 630 c 1,33,-1
 41 667 l 1,34,-1
 527 667 l 1,35,-1
 531 502 l 1,0,1
EndSplineSet
EndChar

StartChar: F
Encoding: 70 70 41
Width: 551
GlyphClass: 2
Flags: W
LayerCount: 2
Fore
SplineSet
527 502 m 1,0,1
 506 496 506 496 488 496 c 128,-1,2
 470 496 470 496 452 499 c 1,3,4
 437 568 437 568 409 606 c 1,5,-1
 246 606 l 1,6,-1
 246 369 l 1,7,-1
 339 376 l 2,8,9
 357 378 357 378 372.5 396 c 128,-1,10
 388 414 388 414 395 443 c 1,11,-1
 447 443 l 1,12,-1
 447 236 l 1,13,-1
 395 236 l 1,14,15
 381 276 381 276 368 292 c 128,-1,16
 355 308 355 308 338 310 c 2,17,-1
 246 318 l 1,18,-1
 246 71 l 1,19,20
 269 50 269 50 321 39 c 1,21,-1
 314 0 l 1,22,-1
 38 0 l 1,23,-1
 42 41 l 1,24,25
 81 47 81 47 99 66 c 1,26,-1
 99 601 l 1,27,28
 75 622 75 622 38 630 c 1,29,-1
 41 667 l 1,30,-1
 518 667 l 1,31,-1
 527 502 l 1,0,1
EndSplineSet
EndChar

StartChar: G
Encoding: 71 71 42
Width: 646
GlyphClass: 2
Flags: W
LayerCount: 2
Fore
SplineSet
584 66 m 1,0,1
 478 -10 478 -10 338.5 -10 c 128,-1,2
 199 -10 199 -10 126 75.5 c 128,-1,3
 53 161 53 161 53 329 c 128,-1,4
 53 497 53 497 129.5 585.5 c 128,-1,5
 206 674 206 674 355 674 c 0,6,7
 452 674 452 674 513.5 637.5 c 128,-1,8
 575 601 575 601 575 542 c 0,9,10
 575 506 575 506 552 481 c 128,-1,11
 529 456 529 456 500 456 c 128,-1,12
 471 456 471 456 449.5 469 c 128,-1,13
 428 482 428 482 418 502 c 1,14,15
 435 530 435 530 435 553 c 0,16,17
 435 621 435 621 351 621 c 0,18,19
 208 621 208 621 208 342 c 0,20,21
 208 197 208 197 248.5 127.5 c 128,-1,22
 289 58 289 58 374 58 c 0,23,24
 406 58 406 58 437 72 c 1,25,-1
 437 253 l 1,26,27
 418 285 418 285 359 292 c 1,28,-1
 364 332 l 1,29,-1
 584 340 l 1,30,-1
 584 66 l 1,0,1
EndSplineSet
EndChar

StartChar: H
Encoding: 72 72 43
Width: 722
GlyphClass: 2
Flags: W
LayerCount: 2
Fore
SplineSet
239 373 m 1,0,-1
 468 373 l 1,1,-1
 468 596 l 1,2,3
 442 618 442 618 399 626 c 1,4,-1
 404 667 l 1,5,-1
 682 667 l 1,6,-1
 676 628 l 1,7,8
 637 616 637 616 615 596 c 1,9,-1
 615 71 l 1,10,11
 638 50 638 50 690 39 c 1,12,-1
 683 0 l 1,13,-1
 407 0 l 1,14,-1
 411 41 l 1,15,16
 444 47 444 47 468 71 c 1,17,-1
 468 310 l 1,18,-1
 239 310 l 1,19,-1
 239 71 l 1,20,21
 262 50 262 50 314 39 c 1,22,-1
 307 0 l 1,23,-1
 31 0 l 1,24,-1
 35 41 l 1,25,26
 68 47 68 47 92 71 c 1,27,-1
 92 596 l 1,28,29
 71 614 71 614 31 628 c 1,30,-1
 35 667 l 1,31,-1
 314 667 l 1,32,-1
 308 626 l 1,33,34
 265 618 265 618 239 596 c 1,35,-1
 239 373 l 1,0,-1
EndSplineSet
EndChar

StartChar: I
Encoding: 73 73 44
Width: 350
GlyphClass: 2
Flags: W
LayerCount: 2
Fore
SplineSet
25 626 m 1,0,-1
 30 667 l 1,1,-1
 323 667 l 1,2,-1
 317 626 l 1,3,4
 274 618 274 618 248 596 c 1,5,-1
 248 71 l 1,6,7
 268 52 268 52 323 41 c 1,8,-1
 316 0 l 1,9,-1
 25 0 l 1,10,-1
 29 41 l 1,11,12
 74 48 74 48 101 71 c 1,13,-1
 101 596 l 1,14,15
 79 618 79 618 25 626 c 1,0,-1
EndSplineSet
EndChar

StartChar: J
Encoding: 74 74 45
Width: 341
GlyphClass: 2
Flags: W
LayerCount: 2
Fore
SplineSet
241 16 m 2,0,1
 241 -80 241 -80 182.5 -135 c 128,-1,2
 124 -190 124 -190 13 -218 c 1,3,-1
 -8 -163 l 1,4,5
 94 -110 94 -110 94 1 c 2,6,-1
 94 596 l 1,7,8
 72 618 72 618 18 626 c 1,9,-1
 23 667 l 1,10,-1
 316 667 l 1,11,-1
 310 626 l 1,12,13
 267 618 267 618 241 596 c 1,14,-1
 241 16 l 2,0,1
EndSplineSet
EndChar

StartChar: K
Encoding: 75 75 46
Width: 682
GlyphClass: 2
Flags: W
LayerCount: 2
Fore
SplineSet
314 39 m 1,0,-1
 307 0 l 1,1,-1
 31 0 l 1,2,-1
 35 41 l 1,3,4
 68 47 68 47 92 71 c 1,5,-1
 92 596 l 1,6,7
 71 614 71 614 31 628 c 1,8,-1
 35 667 l 1,9,-1
 314 667 l 1,10,-1
 308 626 l 1,11,12
 265 618 265 618 239 596 c 1,13,-1
 239 71 l 1,14,15
 262 50 262 50 314 39 c 1,0,-1
463 581 m 2,16,17
 472 592 472 592 472 603 c 128,-1,18
 472 614 472 614 457 621 c 128,-1,19
 442 628 442 628 420 628 c 1,20,-1
 414 667 l 1,21,-1
 664 667 l 1,22,-1
 658 628 l 1,23,24
 602 625 602 625 570 589 c 2,25,-1
 398 398 l 1,26,-1
 595 76 l 1,27,28
 627 50 627 50 681 41 c 1,29,-1
 674 0 l 1,30,-1
 446 0 l 1,31,32
 445 32 445 32 428 58 c 1,33,-1
 253 348 l 1,34,-1
 463 581 l 2,16,17
EndSplineSet
EndChar

StartChar: L
Encoding: 76 76 47
Width: 551
GlyphClass: 2
Flags: W
LayerCount: 2
Fore
SplineSet
246 62 m 1,0,-1
 421 62 l 1,1,2
 453 110 453 110 468 189 c 1,3,4
 488 192 488 192 507 192 c 128,-1,5
 526 192 526 192 542 189 c 1,6,-1
 532 0 l 1,7,-1
 38 0 l 1,8,-1
 42 41 l 1,9,10
 81 47 81 47 99 66 c 1,11,-1
 99 596 l 1,12,13
 83 610 83 610 37 626 c 1,14,-1
 42 667 l 1,15,-1
 321 667 l 1,16,-1
 315 626 l 1,17,18
 272 618 272 618 246 596 c 1,19,-1
 246 62 l 1,0,-1
EndSplineSet
EndChar

StartChar: M
Encoding: 77 77 48
Width: 846
GlyphClass: 2
Flags: W
LayerCount: 2
Fore
SplineSet
823 39 m 1,0,-1
 816 0 l 1,1,-1
 545 0 l 1,2,-1
 549 41 l 1,3,4
 583 48 583 48 605 71 c 1,5,-1
 605 508 l 1,6,-1
 442 0 l 1,7,-1
 365 0 l 1,8,-1
 186 481 l 1,9,-1
 186 71 l 1,10,11
 209 50 209 50 261 39 c 1,12,-1
 254 0 l 1,13,-1
 38 0 l 1,14,-1
 42 41 l 1,15,16
 75 47 75 47 99 71 c 1,17,-1
 99 596 l 1,18,19
 78 614 78 614 38 628 c 1,20,-1
 42 667 l 1,21,-1
 268 667 l 1,22,-1
 431 217 l 1,23,-1
 571 667 l 1,24,-1
 815 667 l 1,25,-1
 809 628 l 1,26,27
 770 616 770 616 748 596 c 1,28,-1
 748 71 l 1,29,30
 771 50 771 50 823 39 c 1,0,-1
EndSplineSet
EndChar

StartChar: N
Encoding: 78 78 49
Width: 679
GlyphClass: 2
Flags: W
LayerCount: 2
Fore
SplineSet
595 0 m 1,0,-1
 443 0 l 1,1,-1
 179 460 l 1,2,-1
 179 71 l 1,3,4
 202 50 202 50 254 39 c 1,5,-1
 247 0 l 1,6,-1
 31 0 l 1,7,-1
 35 41 l 1,8,9
 68 47 68 47 92 71 c 1,10,-1
 92 596 l 1,11,12
 71 614 71 614 31 628 c 1,13,-1
 35 667 l 1,14,-1
 232 667 l 1,15,-1
 508 183 l 1,16,-1
 508 596 l 1,17,18
 482 618 482 618 439 626 c 1,19,-1
 444 667 l 1,20,-1
 662 667 l 1,21,-1
 656 628 l 1,22,23
 617 616 617 616 595 596 c 1,24,-1
 595 0 l 1,0,-1
EndSplineSet
EndChar

StartChar: O
Encoding: 79 79 50
Width: 695
GlyphClass: 2
Flags: W
LayerCount: 2
Fore
SplineSet
245.5 553.5 m 128,-1,1
 214 487 214 487 214 334.5 c 128,-1,2
 214 182 214 182 245.5 115 c 128,-1,3
 277 48 277 48 347.5 48 c 128,-1,4
 418 48 418 48 449 115 c 128,-1,5
 480 182 480 182 480 334.5 c 128,-1,6
 480 487 480 487 449 553.5 c 128,-1,7
 418 620 418 620 347.5 620 c 128,-1,0
 277 620 277 620 245.5 553.5 c 128,-1,1
124.5 78 m 128,-1,9
 49 166 49 166 49 334.5 c 128,-1,10
 49 503 49 503 124.5 590.5 c 128,-1,11
 200 678 200 678 348 678 c 128,-1,12
 496 678 496 678 571 590.5 c 128,-1,13
 646 503 646 503 646 334.5 c 128,-1,14
 646 166 646 166 571 78 c 128,-1,15
 496 -10 496 -10 348 -10 c 128,-1,8
 200 -10 200 -10 124.5 78 c 128,-1,9
EndSplineSet
EndChar

StartChar: P
Encoding: 80 80 51
Width: 614
GlyphClass: 2
Flags: W
LayerCount: 2
Fore
SplineSet
325 667 m 2,0,1
 586 667 586 667 586 481 c 0,2,3
 586 384 586 384 515 332 c 128,-1,4
 444 280 444 280 311 280 c 0,5,6
 289 280 289 280 247 283 c 1,7,-1
 247 71 l 1,8,9
 268 50 268 50 322 39 c 1,10,-1
 315 0 l 1,11,-1
 39 0 l 1,12,-1
 43 41 l 1,13,14
 77 48 77 48 100 71 c 1,15,-1
 100 596 l 1,16,17
 81 614 81 614 39 628 c 1,18,-1
 43 667 l 1,19,-1
 325 667 l 2,0,1
431 479 m 0,20,21
 431 540 431 540 399.5 573 c 128,-1,22
 368 606 368 606 320 606 c 128,-1,23
 272 606 272 606 247 602 c 1,24,-1
 247 343 l 1,25,-1
 312 343 l 2,26,27
 431 343 431 343 431 479 c 0,20,21
EndSplineSet
EndChar

StartChar: Q
Encoding: 81 81 52
Width: 695
GlyphClass: 2
Flags: W
LayerCount: 2
Fore
SplineSet
290 -6 m 1,0,1
 49 26 49 26 49 343 c 0,2,3
 49 503 49 503 124.5 590.5 c 128,-1,4
 200 678 200 678 348 678 c 128,-1,5
 496 678 496 678 571 590.5 c 128,-1,6
 646 503 646 503 646 335 c 0,7,8
 646 36 646 36 421 -4 c 1,9,10
 456 -101 456 -101 553 -138 c 1,11,12
 554 -141 554 -141 554 -146 c 0,13,14
 554 -167 554 -167 541 -174 c 1,15,16
 445 -159 445 -159 386.5 -116 c 128,-1,17
 328 -73 328 -73 290 -6 c 1,0,1
245.5 553.5 m 128,-1,19
 214 487 214 487 214 334.5 c 128,-1,20
 214 182 214 182 245.5 115 c 128,-1,21
 277 48 277 48 347.5 48 c 128,-1,22
 418 48 418 48 449 115 c 128,-1,23
 480 182 480 182 480 334.5 c 128,-1,24
 480 487 480 487 449 553.5 c 128,-1,25
 418 620 418 620 347.5 620 c 128,-1,18
 277 620 277 620 245.5 553.5 c 128,-1,19
EndSplineSet
EndChar

StartChar: R
Encoding: 82 82 53
Width: 662
GlyphClass: 2
Flags: W
LayerCount: 2
Fore
SplineSet
324 667 m 2,0,1
 580 667 580 667 580 491 c 0,2,3
 580 363 580 363 450 320 c 1,4,5
 482 298 482 298 502 254 c 1,6,-1
 577 76 l 2,7,8
 587 53 587 53 638 41 c 1,9,-1
 631 0 l 1,10,-1
 449 0 l 1,11,-1
 352 262 l 1,12,13
 339 294 339 294 298 300 c 1,14,15
 281 300 281 300 257 302 c 1,16,-1
 246 302 l 1,17,-1
 246 71 l 1,18,19
 267 50 267 50 321 39 c 1,20,-1
 314 0 l 1,21,-1
 38 0 l 1,22,-1
 42 41 l 1,23,24
 76 48 76 48 99 71 c 1,25,-1
 99 596 l 1,26,27
 80 614 80 614 38 628 c 1,28,-1
 42 667 l 1,29,-1
 324 667 l 2,0,1
425 489 m 0,30,31
 425 545 425 545 395 575.5 c 128,-1,32
 365 606 365 606 318 606 c 128,-1,33
 271 606 271 606 246 602 c 1,34,-1
 246 363 l 1,35,-1
 311 363 l 2,36,37
 425 363 425 363 425 489 c 0,30,31
EndSplineSet
EndChar

StartChar: S
Encoding: 83 83 54
Width: 513
GlyphClass: 2
Flags: W
LayerCount: 2
Fore
SplineSet
168 65 m 1,0,1
 213 48 213 48 252.5 48 c 128,-1,2
 292 48 292 48 317 73.5 c 128,-1,3
 342 99 342 99 342 145.5 c 128,-1,4
 342 192 342 192 313.5 226 c 128,-1,5
 285 260 285 260 222 286 c 0,6,7
 123 327 123 327 84.5 371.5 c 128,-1,8
 46 416 46 416 46 493.5 c 128,-1,9
 46 571 46 571 109.5 623 c 128,-1,10
 173 675 173 675 264.5 675 c 128,-1,11
 356 675 356 675 416 637 c 128,-1,12
 476 599 476 599 476 545 c 0,13,14
 476 511 476 511 458 491 c 128,-1,15
 440 471 440 471 407 471 c 128,-1,16
 374 471 374 471 335 501 c 1,17,18
 360 529 360 529 360 559 c 128,-1,19
 360 589 360 589 336.5 605 c 128,-1,20
 313 621 313 621 271.5 621 c 128,-1,21
 230 621 230 621 204.5 599 c 128,-1,22
 179 577 179 577 179 537 c 128,-1,23
 179 497 179 497 205.5 470 c 128,-1,24
 232 443 232 443 304 412 c 0,25,26
 403 370 403 370 443.5 318 c 128,-1,27
 484 266 484 266 484 181.5 c 128,-1,28
 484 97 484 97 422.5 45 c 128,-1,29
 361 -7 361 -7 251.5 -7 c 128,-1,30
 142 -7 142 -7 45 44 c 1,31,-1
 45 196 l 1,32,-1
 136 213 l 1,33,34
 143 111 143 111 168 65 c 1,0,1
EndSplineSet
EndChar

StartChar: T
Encoding: 84 84 55
Width: 639
GlyphClass: 2
Flags: W
LayerCount: 2
Fore
SplineSet
107 483 m 1,0,1
 89 480 89 480 71.5 480 c 128,-1,2
 54 480 54 480 38 483 c 1,3,-1
 38 671 l 1,4,5
 185 667 185 667 365 667 c 128,-1,6
 545 667 545 667 601 671 c 1,7,-1
 601 483 l 1,8,9
 584 480 584 480 567 480 c 128,-1,10
 550 480 550 480 532 483 c 1,11,12
 524 553 524 553 496 598 c 1,13,14
 446 605 446 605 393 606 c 1,15,-1
 393 71 l 1,16,17
 414 51 414 51 468 41 c 1,18,-1
 461 0 l 1,19,-1
 170 0 l 1,20,-1
 174 41 l 1,21,22
 217 47 217 47 246 71 c 1,23,-1
 246 605 l 1,24,25
 224 604 224 604 145 599 c 1,26,27
 109 549 109 549 107 483 c 1,0,1
EndSplineSet
EndChar

StartChar: U
Encoding: 85 85 56
Width: 676
GlyphClass: 2
Flags: W
LayerCount: 2
Fore
SplineSet
225 208 m 2,0,1
 225 60 225 60 365 60 c 0,2,3
 494 60 494 60 494 223 c 2,4,-1
 494 598 l 1,5,6
 475 613 475 613 418 626 c 1,7,-1
 423 667 l 1,8,-1
 661 667 l 1,9,-1
 655 628 l 1,10,11
 612 615 612 615 589 596 c 1,12,-1
 589 245 l 2,13,14
 589 152 589 152 565 99.5 c 128,-1,15
 541 47 541 47 481.5 20 c 128,-1,16
 422 -7 422 -7 344 -7 c 0,17,18
 78 -7 78 -7 78 208 c 2,19,-1
 78 596 l 1,20,21
 57 617 57 617 2 626 c 1,22,-1
 7 667 l 1,23,-1
 300 667 l 1,24,-1
 294 626 l 1,25,26
 250 617 250 617 225 596 c 1,27,-1
 225 208 l 2,0,1
EndSplineSet
EndChar

StartChar: V
Encoding: 86 86 57
Width: 634
GlyphClass: 2
Flags: W
LayerCount: 2
Fore
SplineSet
274 627 m 1,0,1
 232 625 232 625 212 605 c 1,2,-1
 348 185 l 1,3,-1
 494 597 l 1,4,5
 468 620 468 620 415 627 c 1,6,-1
 420 667 l 1,7,-1
 641 667 l 1,8,-1
 636 627 l 1,9,10
 589 625 589 625 573 601 c 1,11,-1
 353 0 l 1,12,-1
 252 0 l 1,13,-1
 65 585 l 1,14,15
 52 617 52 617 1 627 c 1,16,-1
 6 667 l 1,17,-1
 280 667 l 1,18,-1
 274 627 l 1,0,1
EndSplineSet
EndChar

StartChar: W
Encoding: 87 87 58
Width: 961
GlyphClass: 2
Flags: W
LayerCount: 2
Fore
SplineSet
470 667 m 1,0,-1
 558 667 l 1,1,-1
 696 185 l 1,2,-1
 822 596 l 1,3,4
 797 620 797 620 742 627 c 1,5,-1
 747 667 l 1,6,-1
 968 667 l 1,7,-1
 963 627 l 1,8,9
 916 625 916 625 901 602 c 1,10,-1
 701 0 l 1,11,-1
 600 0 l 1,12,-1
 472 430 l 1,13,-1
 333 0 l 1,14,-1
 232 0 l 1,15,-1
 61 593 l 1,16,17
 47 617 47 617 1 627 c 1,18,-1
 6 667 l 1,19,-1
 280 667 l 1,20,-1
 274 627 l 1,21,22
 233 625 233 625 211 605 c 1,23,-1
 328 185 l 1,24,-1
 470 667 l 1,0,-1
EndSplineSet
EndChar

StartChar: X
Encoding: 88 88 59
Width: 619
GlyphClass: 2
Flags: W
LayerCount: 2
Fore
SplineSet
69 65 m 2,0,-1
 238 315 l 1,1,-1
 58 604 l 1,2,3
 44 619 44 619 7 627 c 1,4,-1
 12 667 l 1,5,-1
 286 667 l 1,6,-1
 280 627 l 1,7,8
 244 626 244 626 224 606 c 1,9,-1
 332 432 l 1,10,-1
 441 595 l 1,11,12
 419 617 419 617 372 624 c 1,13,-1
 377 664 l 1,14,-1
 598 664 l 1,15,-1
 593 624 l 1,16,17
 546 622 546 622 530 599 c 2,18,-1
 373 365 l 1,19,-1
 563 61 l 1,20,21
 579 46 579 46 614 40 c 1,22,-1
 609 0 l 1,23,-1
 335 0 l 1,24,-1
 341 40 l 1,25,26
 378 42 378 42 397 61 c 1,27,-1
 280 248 l 1,28,-1
 159 68 l 1,29,30
 182 47 182 47 228 40 c 1,31,-1
 223 0 l 1,32,-1
 2 0 l 1,33,-1
 7 40 l 1,34,35
 54 42 54 42 69 65 c 2,0,-1
EndSplineSet
EndChar

StartChar: Y
Encoding: 89 89 60
Width: 604
GlyphClass: 2
Flags: W
LayerCount: 2
Fore
SplineSet
65 593 m 1,0,1
 52 617 52 617 5 627 c 1,2,-1
 10 667 l 1,3,-1
 281 667 l 1,4,-1
 275 627 l 1,5,6
 233 625 233 625 213 605 c 1,7,-1
 332 357 l 1,8,-1
 454 597 l 1,9,10
 428 620 428 620 374 627 c 1,11,-1
 379 667 l 1,12,-1
 603 667 l 1,13,-1
 598 627 l 1,14,15
 554 625 554 625 538 605 c 1,16,-1
 367 268 l 1,17,-1
 367 71 l 1,18,19
 390 50 390 50 442 39 c 1,20,-1
 435 0 l 1,21,-1
 159 0 l 1,22,-1
 163 41 l 1,23,24
 202 47 202 47 220 66 c 1,25,-1
 220 269 l 1,26,-1
 65 593 l 1,0,1
EndSplineSet
EndChar

StartChar: Z
Encoding: 90 90 61
Width: 566
GlyphClass: 2
Flags: W
LayerCount: 2
Fore
SplineSet
526 -2 m 1,0,-1
 261 0 l 1,1,2
 69 0 69 0 32 -2 c 1,3,-1
 28 45 l 1,4,-1
 354 609 l 1,5,-1
 161 609 l 1,6,7
 141 584 141 584 125 485 c 1,8,9
 109 482 109 482 87.5 482 c 128,-1,10
 66 482 66 482 40 490 c 1,11,-1
 28 637 l 1,12,-1
 65 669 l 1,13,14
 111 667 111 667 280 667 c 128,-1,15
 449 667 449 667 525 669 c 1,16,-1
 535 631 l 1,17,-1
 200 59 l 1,18,-1
 408 59 l 1,19,20
 440 105 440 105 460 190 c 1,21,22
 476 194 476 194 499 194 c 128,-1,23
 522 194 522 194 535 191 c 1,24,-1
 526 -2 l 1,0,-1
EndSplineSet
EndChar

StartChar: bracketleft
Encoding: 91 91 62
Width: 368
GlyphClass: 2
Flags: W
LayerCount: 2
Fore
SplineSet
110 738 m 1,0,-1
 323 738 l 1,1,-1
 323 684 l 1,2,-1
 210 672 l 1,3,-1
 210 -106 l 1,4,-1
 323 -118 l 1,5,-1
 323 -172 l 1,6,-1
 110 -172 l 1,7,-1
 110 738 l 1,0,-1
EndSplineSet
EndChar

StartChar: backslash
Encoding: 92 92 63
Width: 505
GlyphClass: 2
Flags: W
LayerCount: 2
Fore
SplineSet
423 -112 m 1,0,-1
 349 -140 l 1,1,-1
 39 672 l 1,2,-1
 113 700 l 1,3,-1
 423 -112 l 1,0,-1
EndSplineSet
EndChar

StartChar: bracketright
Encoding: 93 93 64
Width: 368
GlyphClass: 2
Flags: W
LayerCount: 2
Fore
SplineSet
45 738 m 1,0,-1
 258 738 l 1,1,-1
 258 -172 l 1,2,-1
 45 -172 l 1,3,-1
 45 -118 l 1,4,-1
 158 -106 l 1,5,-1
 158 672 l 1,6,-1
 45 684 l 1,7,-1
 45 738 l 1,0,-1
EndSplineSet
EndChar

StartChar: asciicircum
Encoding: 94 94 65
Width: 592
GlyphClass: 2
Flags: W
LayerCount: 2
Fore
SplineSet
241 667 m 1,0,-1
 346 667 l 1,1,-1
 533 351 l 1,2,-1
 447 301 l 1,3,-1
 293 570 l 1,4,-1
 140 301 l 1,5,-1
 54 351 l 1,6,-1
 241 667 l 1,0,-1
EndSplineSet
EndChar

StartChar: underscore
Encoding: 95 95 66
Width: 371
GlyphClass: 2
Flags: W
LayerCount: 2
Fore
SplineSet
371 -122 m 1,0,-1
 0 -122 l 1,1,-1
 0 -48 l 1,2,-1
 371 -48 l 1,3,-1
 371 -122 l 1,0,-1
EndSplineSet
EndChar

StartChar: grave
Encoding: 96 96 67
Width: 285
GlyphClass: 2
Flags: W
LayerCount: 2
Fore
SplineSet
87 710 m 0,0,1
 121 710 121 710 144 676 c 2,2,-1
 224 557 l 1,3,-1
 190 524 l 1,4,-1
 73 607 l 2,5,6
 42 629 42 629 40 663 c 1,7,8
 40 684 40 684 53 697 c 128,-1,9
 66 710 66 710 87 710 c 0,0,1
EndSplineSet
EndChar

StartChar: a
Encoding: 97 97 68
Width: 535
GlyphClass: 2
Flags: W
LayerCount: 2
Fore
SplineSet
172 -7 m 0,0,1
 103 -7 103 -7 66 25 c 128,-1,2
 29 57 29 57 29 118 c 0,3,4
 29 251 29 251 226 265 c 2,5,-1
 314 271 l 1,6,-1
 314 329 l 2,7,8
 314 399 314 399 297.5 426 c 128,-1,9
 281 453 281 453 246.5 453 c 128,-1,10
 212 453 212 453 193.5 438.5 c 128,-1,11
 175 424 175 424 175 400.5 c 128,-1,12
 175 377 175 377 197 360 c 1,13,14
 192 335 192 335 173 320 c 128,-1,15
 154 305 154 305 124 305 c 128,-1,16
 94 305 94 305 72 326 c 128,-1,17
 50 347 50 347 50 378 c 0,18,19
 50 431 50 431 100.5 461.5 c 128,-1,20
 151 492 151 492 240 492 c 0,21,22
 455 492 455 492 455 334 c 2,23,-1
 455 62 l 1,24,25
 472 43 472 43 515 35 c 1,26,-1
 511 0 l 1,27,-1
 331 0 l 1,28,-1
 321 57 l 1,29,30
 257 -7 257 -7 172 -7 c 0,0,1
185 193 m 128,-1,32
 161 172 161 172 161 134 c 0,33,34
 161 58 161 58 221 58 c 0,35,36
 267 58 267 58 314 113 c 1,37,-1
 314 222 l 1,38,-1
 264 218 l 2,39,31
 209 214 209 214 185 193 c 128,-1,32
EndSplineSet
EndChar

StartChar: b
Encoding: 98 98 69
Width: 591
GlyphClass: 2
Flags: W
LayerCount: 2
Fore
SplineSet
224 425 m 1,0,1
 268 492 268 492 358.5 492 c 128,-1,2
 449 492 449 492 496.5 432 c 128,-1,3
 544 372 544 372 544 250.5 c 128,-1,4
 544 129 544 129 484.5 61 c 128,-1,5
 425 -7 425 -7 318 -7 c 0,6,7
 242 -7 242 -7 184 25 c 1,8,-1
 158 0 l 1,9,-1
 83 0 l 1,10,-1
 83 558 l 2,11,12
 83 595 83 595 69.5 608.5 c 128,-1,13
 56 622 56 622 21 624 c 1,14,-1
 23 663 l 1,15,16
 166 685 166 685 207 697 c 1,17,-1
 224 687 l 1,18,-1
 224 425 l 1,0,1
315 432 m 0,19,20
 272 432 272 432 248 390 c 128,-1,21
 224 348 224 348 224 268 c 2,22,-1
 224 65 l 1,23,24
 251 46 251 46 290 46 c 0,25,26
 398 46 398 46 398 256 c 0,27,28
 398 432 398 432 315 432 c 0,19,20
EndSplineSet
EndChar

StartChar: c
Encoding: 99 99 70
Width: 469
GlyphClass: 2
Flags: W
LayerCount: 2
Fore
SplineSet
464 68 m 1,0,1
 392 -7 392 -7 278 -7 c 128,-1,2
 164 -7 164 -7 104 55 c 128,-1,3
 44 117 44 117 44 238.5 c 128,-1,4
 44 360 44 360 104.5 424.5 c 128,-1,5
 165 489 165 489 280 489 c 0,6,7
 357 489 357 489 405.5 460.5 c 128,-1,8
 454 432 454 432 454 387 c 0,9,10
 454 358 454 358 431.5 338 c 128,-1,11
 409 318 409 318 381 318 c 128,-1,12
 353 318 353 318 333.5 330 c 128,-1,13
 314 342 314 342 308 360 c 1,14,15
 320 378 320 378 320 398.5 c 128,-1,16
 320 419 320 419 306 431 c 128,-1,17
 292 443 292 443 271 443 c 0,18,19
 191 443 191 443 191 248 c 0,20,21
 191 141 191 141 217.5 96 c 128,-1,22
 244 51 244 51 307 51 c 128,-1,23
 370 51 370 51 428 104 c 1,24,-1
 464 68 l 1,0,1
EndSplineSet
EndChar

StartChar: d
Encoding: 100 100 71
Width: 597
GlyphClass: 2
Flags: W
LayerCount: 2
Fore
SplineSet
368 65 m 1,0,1
 324 -7 324 -7 231.5 -7 c 128,-1,2
 139 -7 139 -7 91.5 53 c 128,-1,3
 44 113 44 113 44 235 c 128,-1,4
 44 357 44 357 101.5 424.5 c 128,-1,5
 159 492 159 492 265 492 c 0,6,7
 318 492 318 492 364 468 c 1,8,-1
 364 558 l 2,9,10
 364 595 364 595 349 608.5 c 128,-1,11
 334 622 334 622 294 624 c 1,12,-1
 297 663 l 1,13,14
 438 683 438 683 488 697 c 1,15,-1
 505 687 l 1,16,-1
 505 62 l 1,17,18
 526 43 526 43 565 35 c 1,19,-1
 561 0 l 1,20,-1
 381 0 l 1,21,-1
 368 65 l 1,0,1
364 234 m 2,22,-1
 364 419 l 1,23,24
 337 438 337 438 299 438 c 0,25,26
 190 438 190 438 190 229 c 0,27,28
 190 53 190 53 273 53 c 0,29,30
 364 53 364 53 364 234 c 2,22,-1
EndSplineSet
EndChar

StartChar: e
Encoding: 101 101 72
Width: 531
GlyphClass: 2
Flags: W
LayerCount: 2
Fore
SplineSet
186 243 m 1,0,-1
 186 227 l 2,1,2
 186 143 186 143 210 102.5 c 128,-1,3
 234 62 234 62 300 62 c 0,4,5
 384 62 384 62 438 117 c 1,6,-1
 478 78 l 1,7,8
 437 37 437 37 392.5 15 c 128,-1,9
 348 -7 348 -7 276 -7 c 0,10,11
 160 -7 160 -7 101.5 58.5 c 128,-1,12
 43 124 43 124 43 240.5 c 128,-1,13
 43 357 43 357 105 424.5 c 128,-1,14
 167 492 167 492 281.5 492 c 128,-1,15
 396 492 396 492 443 440 c 128,-1,16
 490 388 490 388 496 285 c 1,17,-1
 468 243 l 1,18,-1
 186 243 l 1,0,-1
280 443 m 0,19,20
 189 443 189 443 186 283 c 1,21,-1
 354 291 l 1,22,23
 354 371 354 371 338 407 c 128,-1,24
 322 443 322 443 280 443 c 0,19,20
EndSplineSet
EndChar

StartChar: f
Encoding: 102 102 73
Width: 326
GlyphClass: 2
Flags: W
LayerCount: 2
Fore
SplineSet
87 415 m 1,0,-1
 8 415 l 1,1,-1
 3 455 l 1,2,3
 54 464 54 464 87 478 c 1,4,-1
 87 522 l 2,5,6
 87 603 87 603 138 656 c 128,-1,7
 189 709 189 709 272 709 c 0,8,9
 322 709 322 709 366 685.5 c 128,-1,10
 410 662 410 662 410 615 c 0,11,12
 410 582 410 582 391.5 565 c 128,-1,13
 373 548 373 548 349.5 548 c 128,-1,14
 326 548 326 548 309 559.5 c 128,-1,15
 292 571 292 571 288 591 c 1,16,17
 308 608 308 608 308 631 c 0,18,19
 308 670 308 670 266 670 c 0,20,21
 235 670 235 670 221.5 646 c 128,-1,22
 208 622 208 622 208 597 c 128,-1,23
 208 572 208 572 218 533.5 c 128,-1,24
 228 495 228 495 228 478 c 1,25,-1
 332 478 l 1,26,-1
 332 415 l 1,27,-1
 228 415 l 1,28,-1
 228 62 l 1,29,30
 253 45 253 45 314 34 c 1,31,-1
 311 0 l 1,32,-1
 17 0 l 1,33,-1
 21 36 l 1,34,35
 63 43 63 43 87 62 c 1,36,-1
 87 415 l 1,0,-1
EndSplineSet
EndChar

StartChar: g
Encoding: 103 103 74
Width: 520
GlyphClass: 2
Flags: W
LayerCount: 2
Fore
SplineSet
98.5 445.5 m 128,-1,1
 153 492 153 492 242.5 492 c 128,-1,2
 332 492 332 492 385 459 c 1,3,4
 399 471 399 471 399 493 c 128,-1,5
 399 515 399 515 371 529 c 1,6,7
 371 545 371 545 387.5 556 c 128,-1,8
 404 567 404 567 428 567 c 128,-1,9
 452 567 452 567 467.5 552.5 c 128,-1,10
 483 538 483 538 483 514 c 128,-1,11
 483 490 483 490 465.5 465.5 c 128,-1,12
 448 441 448 441 422 428 c 1,13,14
 459 383 459 383 459 310.5 c 128,-1,15
 459 238 459 238 403 192.5 c 128,-1,16
 347 147 347 147 252 147 c 2,17,-1
 236 147 l 1,18,-1
 202 104 l 1,19,20
 205 84 205 84 260 84 c 2,21,-1
 302 84 l 2,22,23
 401 84 401 84 453 45.5 c 128,-1,24
 505 7 505 7 505 -66.5 c 128,-1,25
 505 -140 505 -140 444 -179.5 c 128,-1,26
 383 -219 383 -219 267 -219 c 128,-1,27
 151 -219 151 -219 87 -186.5 c 128,-1,28
 23 -154 23 -154 23 -93 c 0,29,30
 23 -17 23 -17 101 35 c 1,31,32
 86 59 86 59 86 95 c 1,33,-1
 173 156 l 1,34,35
 112 173 112 173 78 214.5 c 128,-1,36
 44 256 44 256 44 315 c 0,37,0
 44 399 44 399 98.5 445.5 c 128,-1,1
278 0 m 2,38,-1
 187 0 l 1,39,-1
 181 -6 l 2,40,41
 153 -34 153 -34 153 -78 c 128,-1,42
 153 -122 153 -122 181 -142.5 c 128,-1,43
 209 -163 209 -163 269 -163 c 0,44,45
 389 -163 389 -163 389 -78 c 0,46,47
 389 0 389 0 278 0 c 2,38,-1
198.5 220 m 128,-1,49
 212 196 212 196 253 196 c 128,-1,50
 294 196 294 196 310 221.5 c 128,-1,51
 326 247 326 247 326 314.5 c 128,-1,52
 326 382 326 382 308.5 412 c 128,-1,53
 291 442 291 442 254 442 c 128,-1,54
 217 442 217 442 201 412 c 128,-1,55
 185 382 185 382 185 313 c 128,-1,48
 185 244 185 244 198.5 220 c 128,-1,49
EndSplineSet
EndChar

StartChar: h
Encoding: 104 104 75
Width: 597
GlyphClass: 2
Flags: W
LayerCount: 2
Fore
SplineSet
83 559 m 2,0,1
 83 596 83 596 69.5 609.5 c 128,-1,2
 56 623 56 623 21 625 c 1,3,-1
 24 664 l 1,4,5
 37 667 37 667 78 674 c 0,6,7
 175 689 175 689 207 698 c 1,8,-1
 225 688 l 1,9,-1
 225 429 l 1,10,11
 281 492 281 492 367 492 c 0,12,13
 435 492 435 492 476 451 c 128,-1,14
 517 410 517 410 517 338 c 2,15,-1
 517 66 l 1,16,17
 540 47 540 47 580 39 c 1,18,-1
 577 0 l 1,19,-1
 323 0 l 1,20,-1
 326 39 l 1,21,22
 356 45 356 45 375 66 c 1,23,-1
 375 329 l 2,24,25
 375 425 375 425 313 425 c 0,26,27
 258 425 258 425 225 371 c 1,28,-1
 225 67 l 1,29,30
 245 50 245 50 285 40 c 1,31,-1
 281 1 l 1,32,-1
 27 1 l 1,33,-1
 31 42 l 1,34,35
 64 49 64 49 83 67 c 1,36,-1
 83 559 l 2,0,1
EndSplineSet
EndChar

StartChar: i
Encoding: 105 105 76
Width: 314
GlyphClass: 2
Flags: W
LayerCount: 2
Fore
SplineSet
93 354 m 2,0,1
 93 390 93 390 79.5 403.5 c 128,-1,2
 66 417 66 417 31 419 c 1,3,-1
 34 458 l 1,4,5
 47 461 47 461 88 468 c 0,6,7
 185 483 185 483 217 492 c 1,8,-1
 234 483 l 1,9,-1
 234 66 l 1,10,11
 259 47 259 47 298 39 c 1,12,-1
 294 0 l 1,13,-1
 37 0 l 1,14,-1
 41 41 l 1,15,16
 74 48 74 48 93 66 c 1,17,-1
 93 354 l 2,0,1
245 620 m 128,-1,19
 245 550 245 550 165.5 550 c 128,-1,20
 86 550 86 550 86 620 c 128,-1,21
 86 690 86 690 165.5 690 c 128,-1,18
 245 690 245 690 245 620 c 128,-1,19
EndSplineSet
EndChar

StartChar: j
Encoding: 106 106 77
Width: 302
GlyphClass: 2
Flags: W
LayerCount: 2
Fore
SplineSet
227 -33 m 2,0,1
 227 -118 227 -118 201 -161 c 0,2,3
 184 -189 184 -189 148.5 -203.5 c 128,-1,4
 113 -218 113 -218 67 -218 c 128,-1,5
 21 -218 21 -218 -15.5 -196 c 128,-1,6
 -52 -174 -52 -174 -52 -134 c 0,7,8
 -52 -106 -52 -106 -34.5 -89 c 128,-1,9
 -17 -72 -17 -72 12 -72 c 128,-1,10
 41 -72 41 -72 57 -97 c 1,11,12
 42 -112 42 -112 42 -131 c 0,13,14
 42 -168 42 -168 66 -168 c 0,15,16
 80 -168 80 -168 89 -150.5 c 128,-1,17
 98 -133 98 -133 98 -104.5 c 128,-1,18
 98 -76 98 -76 92 -28 c 128,-1,19
 86 20 86 20 86 62 c 2,20,-1
 86 354 l 2,21,22
 86 390 86 390 72.5 403.5 c 128,-1,23
 59 417 59 417 24 419 c 1,24,-1
 27 458 l 1,25,26
 40 461 40 461 82 468 c 0,27,28
 178 483 178 483 210 492 c 1,29,-1
 227 483 l 1,30,-1
 227 -33 l 2,0,1
238 620 m 128,-1,32
 238 550 238 550 158.5 550 c 128,-1,33
 79 550 79 550 79 620 c 128,-1,34
 79 690 79 690 158.5 690 c 128,-1,31
 238 690 238 690 238 620 c 128,-1,32
EndSplineSet
EndChar

StartChar: k
Encoding: 107 107 78
Width: 592
GlyphClass: 2
Flags: W
LayerCount: 2
Fore
SplineSet
379 416 m 0,0,1
 379 445 379 445 328 445 c 1,2,-1
 336 484 l 1,3,-1
 569 484 l 1,4,-1
 561 445 l 1,5,6
 505 442 505 442 473 406 c 1,7,-1
 378 312 l 1,8,-1
 529 76 l 1,9,10
 557 50 557 50 600 41 c 1,11,-1
 593 0 l 1,12,-1
 405 0 l 1,13,14
 404 30 404 30 387 58 c 2,15,-1
 285 219 l 1,16,-1
 231 165 l 1,17,-1
 231 66 l 1,18,19
 254 47 254 47 294 39 c 1,20,-1
 291 0 l 1,21,-1
 33 0 l 1,22,-1
 37 41 l 1,23,24
 71 48 71 48 89 66 c 1,25,-1
 89 558 l 2,26,27
 89 595 89 595 75.5 608.5 c 128,-1,28
 62 622 62 622 27 624 c 1,29,-1
 30 663 l 1,30,31
 43 666 43 666 84 672 c 0,32,33
 181 688 181 688 213 697 c 1,34,-1
 231 687 l 1,35,-1
 231 263 l 1,36,-1
 371 398 l 1,37,38
 379 408 379 408 379 416 c 0,0,1
EndSplineSet
EndChar

StartChar: l
Encoding: 108 108 79
Width: 308
GlyphClass: 2
Flags: W
LayerCount: 2
Fore
SplineSet
83 558 m 2,0,1
 83 595 83 595 69.5 608.5 c 128,-1,2
 56 622 56 622 21 624 c 1,3,-1
 24 663 l 1,4,5
 37 666 37 666 78 672 c 0,6,7
 175 688 175 688 207 697 c 1,8,-1
 225 687 l 1,9,-1
 225 66 l 1,10,11
 248 47 248 47 288 39 c 1,12,-1
 285 0 l 1,13,-1
 27 0 l 1,14,-1
 31 41 l 1,15,16
 64 48 64 48 83 66 c 1,17,-1
 83 558 l 2,0,1
EndSplineSet
EndChar

StartChar: m
Encoding: 109 109 80
Width: 890
GlyphClass: 2
Flags: W
LayerCount: 2
Fore
SplineSet
379 329 m 2,0,1
 379 425 379 425 318 425 c 0,2,3
 263 425 263 425 231 370 c 1,4,-1
 231 66 l 1,5,6
 254 48 254 48 291 39 c 1,7,-1
 287 0 l 1,8,-1
 34 0 l 1,9,-1
 37 41 l 1,10,11
 69 47 69 47 90 66 c 1,12,-1
 90 354 l 2,13,14
 90 390 90 390 76 403.5 c 128,-1,15
 62 417 62 417 27 419 c 1,16,-1
 30 458 l 1,17,18
 180 486 180 486 201 492 c 1,19,-1
 219 483 l 1,20,-1
 227 425 l 1,21,22
 283 492 283 492 370 492 c 0,23,24
 470 492 470 492 506 410 c 1,25,26
 560 492 560 492 660 492 c 0,27,28
 728 492 728 492 769 451 c 128,-1,29
 810 410 810 410 810 338 c 2,30,-1
 810 66 l 1,31,32
 835 47 835 47 874 39 c 1,33,-1
 870 0 l 1,34,-1
 617 0 l 1,35,-1
 620 39 l 1,36,37
 648 45 648 45 669 66 c 1,38,-1
 669 329 l 2,39,40
 669 425 669 425 608 425 c 0,41,42
 581 425 581 425 556.5 408.5 c 128,-1,43
 532 392 532 392 518 365 c 1,44,45
 520 347 520 347 520 338 c 2,46,-1
 520 66 l 1,47,48
 542 48 542 48 580 39 c 1,49,-1
 576 0 l 1,50,-1
 327 0 l 1,51,-1
 330 39 l 1,52,53
 358 45 358 45 379 66 c 1,54,-1
 379 329 l 2,0,1
EndSplineSet
EndChar

StartChar: n
Encoding: 110 110 81
Width: 604
GlyphClass: 2
Flags: W
LayerCount: 2
Fore
SplineSet
382 329 m 2,0,1
 382 425 382 425 320 425 c 0,2,3
 294 425 294 425 269.5 410 c 128,-1,4
 245 395 245 395 231 370 c 1,5,-1
 231 66 l 1,6,7
 254 48 254 48 291 39 c 1,8,-1
 287 0 l 1,9,-1
 34 0 l 1,10,-1
 37 41 l 1,11,12
 69 47 69 47 90 66 c 1,13,-1
 90 354 l 2,14,15
 90 390 90 390 76 403.5 c 128,-1,16
 62 417 62 417 27 419 c 1,17,-1
 30 458 l 1,18,19
 180 486 180 486 201 492 c 1,20,-1
 219 483 l 1,21,-1
 227 425 l 1,22,23
 284 492 284 492 374 492 c 0,24,25
 442 492 442 492 482.5 451 c 128,-1,26
 523 410 523 410 523 338 c 2,27,-1
 523 66 l 1,28,29
 548 47 548 47 587 39 c 1,30,-1
 583 0 l 1,31,-1
 330 0 l 1,32,-1
 333 39 l 1,33,34
 363 45 363 45 382 66 c 1,35,-1
 382 329 l 2,0,1
EndSplineSet
EndChar

StartChar: o
Encoding: 111 111 82
Width: 569
GlyphClass: 2
Flags: W
LayerCount: 2
Fore
SplineSet
213 391 m 128,-1,1
 191 346 191 346 191 242.5 c 128,-1,2
 191 139 191 139 213 94 c 128,-1,3
 235 49 235 49 285 49 c 128,-1,4
 335 49 335 49 356.5 94.5 c 128,-1,5
 378 140 378 140 378 243 c 128,-1,6
 378 346 378 346 356.5 391 c 128,-1,7
 335 436 335 436 285 436 c 128,-1,0
 235 436 235 436 213 391 c 128,-1,1
44 243 m 128,-1,9
 44 365 44 365 105 428.5 c 128,-1,10
 166 492 166 492 285 492 c 128,-1,11
 404 492 404 492 464.5 428.5 c 128,-1,12
 525 365 525 365 525 243 c 128,-1,13
 525 121 525 121 464.5 57 c 128,-1,14
 404 -7 404 -7 285 -7 c 128,-1,15
 166 -7 166 -7 105 57 c 128,-1,8
 44 121 44 121 44 243 c 128,-1,9
EndSplineSet
EndChar

StartChar: p
Encoding: 112 112 83
Width: 597
GlyphClass: 2
Flags: W
LayerCount: 2
Fore
SplineSet
223 416 m 1,0,1
 266 492 266 492 360 492 c 128,-1,2
 454 492 454 492 502 432 c 128,-1,3
 550 372 550 372 550 249.5 c 128,-1,4
 550 127 550 127 492.5 60 c 128,-1,5
 435 -7 435 -7 329 -7 c 0,6,7
 275 -7 275 -7 229 17 c 1,8,-1
 229 -145 l 1,9,10
 259 -164 259 -164 303 -172 c 1,11,-1
 299 -211 l 1,12,-1
 32 -211 l 1,13,-1
 36 -170 l 1,14,15
 69 -163 69 -163 88 -145 c 1,16,-1
 88 354 l 2,17,18
 88 390 88 390 74.5 403.5 c 128,-1,19
 61 417 61 417 26 419 c 1,20,-1
 29 458 l 1,21,22
 171 485 171 485 195 492 c 1,23,-1
 213 483 l 1,24,-1
 223 416 l 1,0,1
321 432 m 0,25,26
 278 432 278 432 253.5 390 c 128,-1,27
 229 348 229 348 229 268 c 2,28,-1
 229 66 l 1,29,30
 255 46 255 46 295 46 c 0,31,32
 403 46 403 46 403 256 c 0,33,34
 403 432 403 432 321 432 c 0,25,26
EndSplineSet
EndChar

StartChar: q
Encoding: 113 113 84
Width: 591
GlyphClass: 2
Flags: W
LayerCount: 2
Fore
SplineSet
367 59 m 1,0,1
 324 -7 324 -7 233 -7 c 128,-1,2
 142 -7 142 -7 94.5 57 c 128,-1,3
 47 121 47 121 47 242.5 c 128,-1,4
 47 364 47 364 106.5 428 c 128,-1,5
 166 492 166 492 271 492 c 0,6,7
 341 492 341 492 400 452 c 1,8,-1
 434 484 l 1,9,-1
 508 484 l 1,10,-1
 508 -145 l 1,11,12
 529 -164 529 -164 561 -172 c 1,13,-1
 558 -211 l 1,14,-1
 291 -211 l 1,15,-1
 294 -170 l 1,16,17
 339 -163 339 -163 367 -145 c 1,18,-1
 367 59 l 1,0,1
276 53 m 0,19,20
 367 53 367 53 367 234 c 2,21,-1
 367 408 l 1,22,23
 338 441 338 441 298 441 c 0,24,25
 193 441 193 441 193 247 c 128,-1,26
 193 53 193 53 276 53 c 0,19,20
EndSplineSet
EndChar

StartChar: r
Encoding: 114 114 85
Width: 461
GlyphClass: 2
Flags: W
LayerCount: 2
Fore
SplineSet
90 354 m 2,0,1
 90 390 90 390 76 403.5 c 128,-1,2
 62 417 62 417 27 419 c 1,3,-1
 30 458 l 1,4,5
 180 486 180 486 201 492 c 1,6,-1
 219 483 l 1,7,-1
 227 417 l 1,8,9
 278 491 278 491 356 491 c 0,10,11
 395 491 395 491 423.5 464.5 c 128,-1,12
 452 438 452 438 452 400.5 c 128,-1,13
 452 363 452 363 431.5 342.5 c 128,-1,14
 411 322 411 322 382 322 c 128,-1,15
 353 322 353 322 335 347 c 1,16,17
 349 364 349 364 349 380 c 128,-1,18
 349 396 349 396 335.5 406 c 128,-1,19
 322 416 322 416 303 416 c 128,-1,20
 284 416 284 416 263.5 398.5 c 128,-1,21
 243 381 243 381 231 353 c 1,22,-1
 231 66 l 1,23,24
 254 48 254 48 291 39 c 1,25,-1
 287 0 l 1,26,-1
 34 0 l 1,27,-1
 37 41 l 1,28,29
 69 47 69 47 90 66 c 1,30,-1
 90 354 l 2,0,1
EndSplineSet
EndChar

StartChar: s
Encoding: 115 115 86
Width: 459
GlyphClass: 2
Flags: W
LayerCount: 2
Fore
SplineSet
236 448 m 128,-1,1
 207 448 207 448 189 429 c 128,-1,2
 171 410 171 410 171 381.5 c 128,-1,3
 171 353 171 353 195 334.5 c 128,-1,4
 219 316 219 316 287 292 c 0,5,6
 422 244 422 244 422 142 c 0,7,8
 422 71 422 71 368 31.5 c 128,-1,9
 314 -8 314 -8 217 -8 c 0,10,11
 178 -8 178 -8 123.5 8.5 c 128,-1,12
 69 25 69 25 40 45 c 1,13,-1
 40 155 l 1,14,-1
 143 170 l 1,15,16
 144 137 144 137 150.5 100.5 c 128,-1,17
 157 64 157 64 164 51 c 1,18,19
 192 42 192 42 220.5 42 c 128,-1,20
 249 42 249 42 269 61 c 128,-1,21
 289 80 289 80 289 109 c 0,22,23
 289 166 289 166 201.5 195.5 c 128,-1,24
 114 225 114 225 77.5 263 c 128,-1,25
 41 301 41 301 41 361.5 c 128,-1,26
 41 422 41 422 92.5 457.5 c 128,-1,27
 144 493 144 493 227.5 493 c 128,-1,28
 311 493 311 493 364.5 465.5 c 128,-1,29
 418 438 418 438 418 401 c 128,-1,30
 418 364 418 364 398.5 343 c 128,-1,31
 379 322 379 322 341 322 c 128,-1,32
 303 322 303 322 279 355 c 1,33,34
 299 377 299 377 299 399.5 c 128,-1,35
 299 422 299 422 282 435 c 128,-1,0
 265 448 265 448 236 448 c 128,-1,1
EndSplineSet
EndChar

StartChar: t
Encoding: 116 116 87
Width: 365
GlyphClass: 2
Flags: W
LayerCount: 2
Fore
SplineSet
202 -4 m 0,0,1
 148 -4 148 -4 114 25 c 128,-1,2
 80 54 80 54 80 113 c 2,3,-1
 80 413 l 1,4,-1
 9 413 l 1,5,-1
 9 459 l 1,6,7
 113 498 113 498 158 584 c 1,8,-1
 223 584 l 1,9,-1
 223 478 l 1,10,-1
 351 478 l 1,11,-1
 351 413 l 1,12,-1
 222 413 l 1,13,-1
 222 121 l 2,14,15
 222 68 222 68 270 68 c 0,16,17
 306 68 306 68 342 93 c 1,18,-1
 362 58 l 1,19,20
 293 -4 293 -4 202 -4 c 0,0,1
EndSplineSet
EndChar

StartChar: u
Encoding: 117 117 88
Width: 597
GlyphClass: 2
Flags: W
LayerCount: 2
Fore
SplineSet
230 -7 m 0,0,1
 162 -7 162 -7 121 34 c 128,-1,2
 80 75 80 75 80 147 c 2,3,-1
 80 354 l 2,4,5
 80 390 80 390 66.5 403.5 c 128,-1,6
 53 417 53 417 18 419 c 1,7,-1
 21 458 l 1,8,9
 34 461 34 461 76 468 c 0,10,11
 172 483 172 483 204 492 c 1,12,-1
 221 483 l 1,13,-1
 221 156 l 2,14,15
 221 60 221 60 283 60 c 0,16,17
 309 60 309 60 333.5 75 c 128,-1,18
 358 90 358 90 373 115 c 1,19,-1
 373 354 l 2,20,21
 373 390 373 390 359 403.5 c 128,-1,22
 345 417 345 417 310 419 c 1,23,-1
 313 458 l 1,24,25
 326 461 326 461 368 468 c 0,26,27
 464 483 464 483 496 492 c 1,28,-1
 514 483 l 1,29,-1
 514 62 l 1,30,31
 536 43 536 43 583 35 c 1,32,-1
 580 0 l 1,33,-1
 389 0 l 1,34,-1
 379 64 l 1,35,36
 321 -7 321 -7 230 -7 c 0,0,1
EndSplineSet
EndChar

StartChar: v
Encoding: 118 118 89
Width: 531
GlyphClass: 2
Flags: W
LayerCount: 2
Fore
SplineSet
307 0 m 1,0,-1
 204 0 l 1,1,-1
 60 407 l 2,2,3
 48 441 48 441 -2 449 c 1,4,-1
 0 484 l 1,5,-1
 262 484 l 1,6,-1
 257 449 l 1,7,8
 223 447 223 447 200 430 c 1,9,-1
 299 151 l 1,10,-1
 409 427 l 1,11,12
 386 442 386 442 344 449 c 1,13,-1
 348 484 l 1,14,-1
 534 484 l 1,15,-1
 530 449 l 1,16,17
 495 447 495 447 478 425 c 1,18,-1
 307 0 l 1,0,-1
EndSplineSet
EndChar

StartChar: w
Encoding: 119 119 90
Width: 798
GlyphClass: 2
Flags: W
LayerCount: 2
Fore
SplineSet
294 0 m 1,0,-1
 191 0 l 1,1,-1
 59 418 l 1,2,3
 44 441 44 441 2 449 c 1,4,-1
 4 484 l 1,5,-1
 266 484 l 1,6,-1
 261 449 l 1,7,8
 225 447 225 447 202 428 c 1,9,-1
 280 154 l 1,10,-1
 393 484 l 1,11,-1
 483 484 l 1,12,-1
 578 153 l 1,13,-1
 671 427 l 1,14,15
 648 442 648 442 607 449 c 1,16,-1
 611 484 l 1,17,-1
 797 484 l 1,18,-1
 793 449 l 1,19,20
 755 447 755 447 739 421 c 1,21,-1
 592 0 l 1,22,-1
 489 0 l 1,23,-1
 398 298 l 1,24,-1
 294 0 l 1,0,-1
EndSplineSet
EndChar

StartChar: x
Encoding: 120 120 91
Width: 525
GlyphClass: 2
Flags: W
LayerCount: 2
Fore
SplineSet
315 54 m 1,0,-1
 233 170 l 1,1,-1
 138 59 l 1,2,3
 163 45 163 45 195 39 c 1,4,-1
 189 0 l 1,5,-1
 5 0 l 1,6,-1
 12 41 l 1,7,8
 40 43 40 43 51 55 c 2,9,-1
 195 223 l 1,10,-1
 55 421 l 2,11,12
 44 436 44 436 9 444 c 1,13,-1
 15 483 l 1,14,-1
 257 483 l 1,15,-1
 250 442 l 1,16,17
 223 439 223 439 211 429 c 1,18,-1
 287 322 l 1,19,-1
 369 424 l 1,20,21
 353 439 353 439 323 444 c 1,22,-1
 329 484 l 1,23,-1
 508 484 l 1,24,-1
 502 443 l 1,25,26
 467 441 467 441 455 427 c 2,27,-1
 325 268 l 1,28,-1
 472 62 l 2,29,30
 484 45 484 45 517 39 c 1,31,-1
 511 0 l 1,32,-1
 268 0 l 1,33,-1
 276 41 l 1,34,35
 299 41 299 41 315 54 c 1,0,-1
EndSplineSet
EndChar

StartChar: y
Encoding: 121 121 92
Width: 531
GlyphClass: 2
Flags: W
LayerCount: 2
Fore
SplineSet
206 -193 m 128,-1,1
 174 -220 174 -220 124 -220 c 128,-1,2
 74 -220 74 -220 46 -200 c 128,-1,3
 18 -180 18 -180 18 -146.5 c 128,-1,4
 18 -113 18 -113 34 -95 c 128,-1,5
 50 -77 50 -77 77.5 -77 c 128,-1,6
 105 -77 105 -77 126 -101 c 1,7,8
 115 -110 115 -110 115 -131 c 0,9,10
 115 -162 115 -162 142 -162 c 0,11,12
 159 -162 159 -162 173.5 -143 c 128,-1,13
 188 -124 188 -124 207 -76 c 2,14,-1
 237 0 l 1,15,-1
 203 0 l 1,16,-1
 59 407 l 2,17,18
 47 440 47 440 -3 449 c 1,19,-1
 -1 484 l 1,20,-1
 261 484 l 1,21,-1
 256 449 l 1,22,23
 219 448 219 448 199 430 c 1,24,-1
 298 151 l 1,25,-1
 408 427 l 1,26,27
 385 442 385 442 343 449 c 1,28,-1
 347 484 l 1,29,-1
 533 484 l 1,30,-1
 529 449 l 1,31,32
 485 447 485 447 477 425 c 2,33,-1
 264 -103 l 2,34,0
 238 -166 238 -166 206 -193 c 128,-1,1
EndSplineSet
EndChar

StartChar: z
Encoding: 122 122 93
Width: 479
GlyphClass: 2
Flags: W
LayerCount: 2
Fore
SplineSet
438 -1 m 1,0,1
 314 0 314 0 204 0 c 128,-1,2
 94 0 94 0 42 -2 c 1,3,-1
 38 42 l 1,4,-1
 277 430 l 1,5,-1
 161 430 l 1,6,7
 149 408 149 408 139 340 c 1,8,9
 115 336 115 336 94.5 336 c 128,-1,10
 74 336 74 336 47 345 c 1,11,-1
 38 456 l 1,12,-1
 75 486 l 1,13,14
 109 484 109 484 243.5 484 c 128,-1,15
 378 484 378 484 435 486 c 1,16,-1
 445 449 l 1,17,-1
 199 56 l 1,18,-1
 325 56 l 1,19,20
 344 87 344 87 359 154 c 1,21,22
 384 160 384 160 401 160 c 128,-1,23
 418 160 418 160 445 155 c 1,24,-1
 438 -1 l 1,0,1
EndSplineSet
EndChar

StartChar: braceleft
Encoding: 123 123 94
Width: 393
GlyphClass: 2
Flags: W
LayerCount: 2
Fore
SplineSet
142 383 m 128,-1,1
 142 407 142 407 129 468 c 128,-1,2
 116 529 116 529 116 549 c 0,3,4
 116 632 116 632 177.5 682.5 c 128,-1,5
 239 733 239 733 341 733 c 1,6,-1
 341 680 l 1,7,8
 287 676 287 676 254.5 642.5 c 128,-1,9
 222 609 222 609 222 556 c 0,10,11
 222 528 222 528 235.5 480.5 c 128,-1,12
 249 433 249 433 249 404 c 0,13,14
 249 321 249 321 193 284 c 1,15,16
 249 246 249 246 249 164 c 0,17,18
 249 135 249 135 235.5 87.5 c 128,-1,19
 222 40 222 40 222 12 c 0,20,21
 222 -41 222 -41 254.5 -75 c 128,-1,22
 287 -109 287 -109 341 -112 c 1,23,-1
 341 -165 l 1,24,25
 239 -165 239 -165 177.5 -114.5 c 128,-1,26
 116 -64 116 -64 116 19 c 0,27,28
 116 39 116 39 129 100 c 128,-1,29
 142 161 142 161 142 185 c 128,-1,30
 142 209 142 209 126.5 227 c 128,-1,31
 111 245 111 245 96 250 c 1,32,-1
 80 254 l 1,33,-1
 80 314 l 1,34,35
 103 317 103 317 122.5 338 c 128,-1,0
 142 359 142 359 142 383 c 128,-1,1
EndSplineSet
EndChar

StartChar: bar
Encoding: 124 124 95
Width: 320
GlyphClass: 2
Flags: W
LayerCount: 2
Fore
SplineSet
210 -151 m 1,0,-1
 110 -151 l 1,1,-1
 110 758 l 1,2,-1
 210 758 l 1,3,-1
 210 -151 l 1,0,-1
EndSplineSet
EndChar

StartChar: braceright
Encoding: 125 125 96
Width: 393
GlyphClass: 2
Flags: W
LayerCount: 2
Fore
SplineSet
251 185 m 128,-1,1
 251 161 251 161 264 100 c 128,-1,2
 277 39 277 39 277 19 c 0,3,4
 277 -64 277 -64 215.5 -114.5 c 128,-1,5
 154 -165 154 -165 52 -165 c 1,6,-1
 52 -112 l 1,7,8
 106 -109 106 -109 138.5 -75 c 128,-1,9
 171 -41 171 -41 171 12 c 0,10,11
 171 40 171 40 157.5 87.5 c 128,-1,12
 144 135 144 135 144 164 c 0,13,14
 144 246 144 246 200 284 c 1,15,16
 144 321 144 321 144 404 c 0,17,18
 144 433 144 433 157.5 480.5 c 128,-1,19
 171 528 171 528 171 556 c 0,20,21
 171 609 171 609 138.5 642.5 c 128,-1,22
 106 676 106 676 52 680 c 1,23,-1
 52 733 l 1,24,25
 154 733 154 733 215.5 682.5 c 128,-1,26
 277 632 277 632 277 549 c 0,27,28
 277 529 277 529 264 468 c 128,-1,29
 251 407 251 407 251 383 c 128,-1,30
 251 359 251 359 266.5 341 c 128,-1,31
 282 323 282 323 298 318 c 2,32,-1
 313 314 l 1,33,-1
 313 254 l 1,34,35
 290 251 290 251 270.5 230 c 128,-1,0
 251 209 251 209 251 185 c 128,-1,1
EndSplineSet
EndChar

StartChar: asciitilde
Encoding: 126 126 97
Width: 592
GlyphClass: 2
Flags: W
LayerCount: 2
Fore
SplineSet
100 346 m 128,-1,1
 142 377 142 377 188 377 c 128,-1,2
 234 377 234 377 293.5 340.5 c 128,-1,3
 353 304 353 304 381 304 c 0,4,5
 429 304 429 304 472 371 c 1,6,7
 536 340 536 340 558 321 c 1,8,9
 497 198 497 198 387 198 c 0,10,11
 354 198 354 198 290.5 233.5 c 128,-1,12
 227 269 227 269 207 269 c 0,13,14
 165 269 165 269 118 207 c 1,15,16
 82 218 82 218 33 258 c 1,17,0
 58 315 58 315 100 346 c 128,-1,1
EndSplineSet
EndChar

StartChar: exclamdown
Encoding: 161 161 99
Width: 335
GlyphClass: 2
Flags: W
LayerCount: 2
Fore
SplineSet
213 78 m 0,0,1
 213 -79 213 -79 240 -172 c 1,2,3
 234 -185 234 -185 215.5 -196 c 128,-1,4
 197 -207 197 -207 172 -207 c 0,5,6
 121 -207 121 -207 100.5 -185 c 128,-1,7
 80 -163 80 -163 80 -125 c 128,-1,8
 80 -87 80 -87 105 54.5 c 128,-1,9
 130 196 130 196 135 261 c 1,10,-1
 220 277 l 1,11,12
 213 99 213 99 213 78 c 0,0,1
260 422 m 128,-1,14
 260 352 260 352 180.5 352 c 128,-1,15
 101 352 101 352 101 422 c 128,-1,16
 101 492 101 492 180.5 492 c 128,-1,13
 260 492 260 492 260 422 c 128,-1,14
EndSplineSet
EndChar

StartChar: cent
Encoding: 162 162 100
Width: 469
GlyphClass: 2
Flags: W
LayerCount: 2
Fore
SplineSet
217 24 m 1,0,-1
 267 22 l 1,1,2
 363 25 363 25 429 91 c 1,3,-1
 394 126 l 1,4,5
 344 76 344 76 283.5 76 c 128,-1,6
 223 76 223 76 198.5 118.5 c 128,-1,7
 174 161 174 161 174 259 c 0,8,9
 174 440 174 440 249 440 c 0,10,11
 268 440 268 440 281 429.5 c 128,-1,12
 294 419 294 419 294 399 c 128,-1,13
 294 379 294 379 282 364 c 1,14,15
 289 347 289 347 307 336 c 128,-1,16
 325 325 325 325 351 325 c 128,-1,17
 377 325 377 325 398 343.5 c 128,-1,18
 419 362 419 362 419 389 c 0,19,20
 419 429 419 429 377 455.5 c 128,-1,21
 335 482 335 482 267 484 c 1,22,-1
 217 481 l 1,23,24
 37 460 37 460 37 252.5 c 128,-1,25
 37 45 37 45 217 24 c 1,0,-1
212 32 m 1,26,-1
 272 34 l 1,27,-1
 272 -63 l 1,28,-1
 262 -74 l 1,29,-1
 212 -65 l 1,30,-1
 212 32 l 1,26,-1
272 467 m 1,31,-1
 212 467 l 1,32,-1
 212 569 l 1,33,-1
 226 577 l 1,34,-1
 272 571 l 1,35,-1
 272 467 l 1,31,-1
EndSplineSet
EndChar

StartChar: sterling
Encoding: 163 163 101
Width: 556
GlyphClass: 2
Flags: W
LayerCount: 2
Fore
SplineSet
115 468 m 0,0,1
 115 568 115 568 175.5 621.5 c 128,-1,2
 236 675 236 675 347 675 c 0,3,4
 417 675 417 675 470.5 645 c 128,-1,5
 524 615 524 615 524 557 c 0,6,7
 524 526 524 526 502.5 506.5 c 128,-1,8
 481 487 481 487 452 487 c 0,9,10
 398 487 398 487 386 520 c 1,11,12
 404 544 404 544 404 567.5 c 128,-1,13
 404 591 404 591 388 606 c 128,-1,14
 372 621 372 621 344 621 c 0,15,16
 249 621 249 621 249 476 c 0,17,18
 249 427 249 427 263 359 c 1,19,-1
 411 359 l 1,20,-1
 417 313 l 1,21,-1
 409 299 l 1,22,-1
 276 299 l 1,23,24
 286 237 286 237 286 195 c 128,-1,25
 286 153 286 153 271 112 c 1,26,27
 339 76 339 76 393 76 c 128,-1,28
 447 76 447 76 447 143 c 2,29,-1
 447 161 l 1,30,31
 484 160 484 160 508.5 140 c 128,-1,32
 533 120 533 120 533 83 c 0,33,34
 533 -7 533 -7 405 -7 c 0,35,36
 366 -7 366 -7 331 6.5 c 128,-1,37
 296 20 296 20 239 52 c 1,38,39
 193 -9 193 -9 115 -9 c 0,40,41
 74 -9 74 -9 47 11 c 128,-1,42
 20 31 20 31 20 68.5 c 128,-1,43
 20 106 20 106 49 131 c 128,-1,44
 78 156 78 156 123 156 c 0,45,46
 141 156 141 156 178 149 c 1,47,48
 171 215 171 215 145 299 c 1,49,-1
 60 299 l 1,50,-1
 51 349 l 1,51,-1
 62 359 l 1,52,-1
 129 359 l 1,53,54
 115 422 115 422 115 468 c 0,0,1
101 71 m 0,55,56
 101 48 101 48 129.5 48 c 128,-1,57
 158 48 158 48 175 88 c 1,58,59
 150 97 150 97 133 97 c 0,60,61
 101 97 101 97 101 71 c 0,55,56
EndSplineSet
EndChar

StartChar: currency
Encoding: 164 164 102
Width: 587
GlyphClass: 2
Flags: W
LayerCount: 2
Fore
SplineSet
121 171 m 1,0,1
 75 228 75 228 75 295 c 128,-1,2
 75 362 75 362 123 417 c 1,3,-1
 66 481 l 1,4,-1
 134 547 l 1,5,-1
 209 466 l 1,6,7
 240 476 240 476 289 476 c 128,-1,8
 338 476 338 476 366 466 c 1,9,-1
 441 546 l 1,10,-1
 508 481 l 1,11,-1
 450 418 l 1,12,13
 498 359 498 359 498 294 c 128,-1,14
 498 229 498 229 452 170 c 1,15,-1
 509 108 l 1,16,-1
 441 44 l 1,17,-1
 371 121 l 1,18,19
 339 110 339 110 289 110 c 128,-1,20
 239 110 239 110 203 121 c 1,21,-1
 134 43 l 1,22,-1
 65 108 l 1,23,-1
 121 171 l 1,0,1
208 293 m 128,-1,25
 208 160 208 160 286.5 160 c 128,-1,26
 365 160 365 160 365 293 c 128,-1,27
 365 426 365 426 286.5 426 c 128,-1,24
 208 426 208 426 208 293 c 128,-1,25
EndSplineSet
EndChar

StartChar: yen
Encoding: 165 165 103
Width: 641
GlyphClass: 2
Flags: W
LayerCount: 2
Fore
SplineSet
83 593 m 1,0,1
 70 617 70 617 23 627 c 1,2,-1
 28 667 l 1,3,-1
 299 667 l 1,4,-1
 293 627 l 1,5,6
 251 625 251 625 231 605 c 1,7,-1
 350 357 l 1,8,-1
 472 597 l 1,9,10
 446 620 446 620 392 627 c 1,11,-1
 397 667 l 1,12,-1
 621 667 l 1,13,-1
 616 627 l 1,14,15
 572 625 572 625 556 605 c 1,16,-1
 450 397 l 1,17,-1
 520 397 l 1,18,-1
 526 351 l 1,19,-1
 518 337 l 1,20,-1
 420 337 l 1,21,-1
 398 295 l 1,22,-1
 520 295 l 1,23,-1
 526 249 l 1,24,-1
 518 235 l 1,25,-1
 385 235 l 1,26,-1
 385 71 l 1,27,28
 408 50 408 50 460 39 c 1,29,-1
 453 0 l 1,30,-1
 177 0 l 1,31,-1
 181 41 l 1,32,33
 220 47 220 47 238 66 c 1,34,-1
 238 235 l 1,35,-1
 94 235 l 1,36,-1
 85 285 l 1,37,-1
 96 295 l 1,38,-1
 225 295 l 1,39,-1
 205 337 l 1,40,-1
 84 337 l 1,41,-1
 75 387 l 1,42,-1
 86 397 l 1,43,-1
 177 397 l 1,44,-1
 83 593 l 1,0,1
EndSplineSet
EndChar

StartChar: brokenbar
Encoding: 166 166 104
Width: 320
GlyphClass: 2
Flags: W
LayerCount: 2
Fore
SplineSet
210 387 m 1,0,-1
 110 387 l 1,1,-1
 110 758 l 1,2,-1
 210 758 l 1,3,-1
 210 387 l 1,0,-1
110 229 m 1,4,-1
 210 229 l 1,5,-1
 210 -151 l 1,6,-1
 110 -151 l 1,7,-1
 110 229 l 1,4,-1
EndSplineSet
EndChar

StartChar: section
Encoding: 167 167 105
Width: 533
GlyphClass: 2
Flags: W
LayerCount: 2
Fore
SplineSet
155 647 m 128,-1,1
 223 694 223 694 302.5 694 c 128,-1,2
 382 694 382 694 430.5 662.5 c 128,-1,3
 479 631 479 631 479 574 c 0,4,5
 479 535 479 535 456 513.5 c 128,-1,6
 433 492 433 492 399 492 c 0,7,8
 348 492 348 492 331 534 c 1,9,10
 352 555 352 555 356 590 c 1,11,12
 356 612 356 612 340.5 625.5 c 128,-1,13
 325 639 325 639 302 639 c 128,-1,14
 279 639 279 639 261.5 624.5 c 128,-1,15
 244 610 244 610 242 583 c 1,16,17
 242 513 242 513 324 418 c 0,18,19
 358 378 358 378 392 336 c 0,20,21
 473 236 473 236 473 147 c 128,-1,22
 473 58 473 58 405 11 c 128,-1,23
 337 -36 337 -36 257.5 -36 c 128,-1,24
 178 -36 178 -36 129.5 -4.5 c 128,-1,25
 81 27 81 27 81 84 c 0,26,27
 81 123 81 123 104 144.5 c 128,-1,28
 127 166 127 166 160 166 c 0,29,30
 211 166 211 166 229 124 c 1,31,32
 208 103 208 103 204 68 c 1,33,34
 204 45 204 45 219.5 32 c 128,-1,35
 235 19 235 19 258 19 c 128,-1,36
 281 19 281 19 298.5 33.5 c 128,-1,37
 316 48 316 48 318 75 c 1,38,39
 318 146 318 146 236 242 c 0,40,41
 202 282 202 282 168 324 c 0,42,43
 87 424 87 424 87 512 c 128,-1,0
 87 600 87 600 155 647 c 128,-1,1
172 557 m 1,44,45
 163 532 163 532 163 500 c 128,-1,46
 163 468 163 468 186 424.5 c 128,-1,47
 209 381 209 381 242 341.5 c 128,-1,48
 275 302 275 302 308 263 c 0,49,50
 388 170 388 170 388 101 c 1,51,52
 397 125 397 125 397 156.5 c 128,-1,53
 397 188 397 188 374 232 c 128,-1,54
 351 276 351 276 317.5 315.5 c 128,-1,55
 284 355 284 355 251 394 c 0,56,57
 172 487 172 487 172 557 c 1,44,45
EndSplineSet
EndChar

StartChar: dieresis
Encoding: 168 168 106
Width: 285
GlyphClass: 2
Flags: W
LayerCount: 2
Fore
SplineSet
171 598 m 0,0,1
 171 541 171 541 105.5 541 c 128,-1,2
 40 541 40 541 40 598 c 0,3,4
 40 653 40 653 105.5 653 c 128,-1,5
 171 653 171 653 171 598 c 0,0,1
335 598 m 0,6,7
 335 541 335 541 269 541 c 128,-1,8
 203 541 203 541 203 598 c 0,9,10
 203 653 203 653 269 653 c 128,-1,11
 335 653 335 653 335 598 c 0,6,7
EndSplineSet
EndChar

StartChar: copyright
Encoding: 169 169 107
Width: 851
GlyphClass: 2
Flags: W
LayerCount: 2
Fore
SplineSet
549 195 m 1,0,1
 498 138 498 138 432.5 138 c 128,-1,2
 367 138 367 138 329.5 181 c 128,-1,3
 292 224 292 224 292 308 c 0,4,5
 292 485 292 485 438 485 c 0,6,7
 484 485 484 485 513 466 c 128,-1,8
 542 447 542 447 542 421.5 c 128,-1,9
 542 396 542 396 528.5 382.5 c 128,-1,10
 515 369 515 369 494 369 c 128,-1,11
 473 369 473 369 461 391 c 1,12,13
 469 405 469 405 469 419 c 0,14,15
 469 448 469 448 436 448 c 0,16,17
 375 448 375 448 375 316 c 0,18,19
 375 248 375 248 394 215.5 c 128,-1,20
 413 183 413 183 451 183 c 128,-1,21
 489 183 489 183 523 219 c 1,22,-1
 549 195 l 1,0,1
248.5 493.5 m 128,-1,24
 174 418 174 418 174 312.5 c 128,-1,25
 174 207 174 207 248 132 c 128,-1,26
 322 57 322 57 425.5 57 c 128,-1,27
 529 57 529 57 602 132 c 128,-1,28
 675 207 675 207 675 313 c 128,-1,29
 675 419 675 419 601.5 494 c 128,-1,30
 528 569 528 569 425.5 569 c 128,-1,23
 323 569 323 569 248.5 493.5 c 128,-1,24
125 313 m 128,-1,32
 125 436 125 436 213 523 c 128,-1,33
 301 610 301 610 425.5 610 c 128,-1,34
 550 610 550 610 638 523 c 128,-1,35
 726 436 726 436 726 313 c 128,-1,36
 726 190 726 190 638 103 c 128,-1,37
 550 16 550 16 425 16 c 128,-1,38
 300 16 300 16 212.5 103 c 128,-1,31
 125 190 125 190 125 313 c 128,-1,32
EndSplineSet
EndChar

StartChar: ordfeminine
Encoding: 170 170 108
Width: 420
GlyphClass: 2
Flags: W
LayerCount: 2
Fore
SplineSet
384 292 m 1,0,-1
 384 231 l 1,1,-1
 48 231 l 1,2,-1
 48 292 l 1,3,-1
 384 292 l 1,0,-1
242 373 m 1,4,5
 203 340 203 340 151 340 c 128,-1,6
 99 340 99 340 72 362.5 c 128,-1,7
 45 385 45 385 45 427 c 0,8,9
 45 518 45 518 184 527 c 1,10,-1
 235 531 l 1,11,-1
 235 562 l 2,12,13
 235 602 235 602 226 618.5 c 128,-1,14
 217 635 217 635 198 635 c 128,-1,15
 179 635 179 635 169 627.5 c 128,-1,16
 159 620 159 620 159 607 c 128,-1,17
 159 594 159 594 174 584 c 1,18,19
 164 540 164 540 119 540 c 0,20,21
 94 540 94 540 76.5 555 c 128,-1,22
 59 570 59 570 59 593 c 0,23,24
 59 630 59 630 95 651.5 c 128,-1,25
 131 673 131 673 194 673 c 0,26,27
 345 673 345 673 345 565 c 2,28,-1
 345 393 l 1,29,30
 359 384 359 384 386 378 c 1,31,-1
 382 345 l 1,32,-1
 247 345 l 1,33,-1
 242 373 l 1,4,5
150 434 m 0,34,35
 150 395 150 395 181 395 c 0,36,37
 208 395 208 395 235 421 c 1,38,-1
 235 486 l 1,39,-1
 211 484 l 1,40,41
 150 480 150 480 150 434 c 0,34,35
EndSplineSet
EndChar

StartChar: guillemotleft
Encoding: 171 171 109
Width: 522
GlyphClass: 2
Flags: W
LayerCount: 2
Fore
SplineSet
162 240 m 1,0,-1
 259 55 l 1,1,-1
 228 31 l 1,2,-1
 38 222 l 1,3,-1
 38 258 l 1,4,-1
 228 450 l 1,5,-1
 259 426 l 1,6,-1
 162 240 l 1,0,-1
387 240 m 1,7,-1
 484 55 l 1,8,-1
 453 31 l 1,9,-1
 263 222 l 1,10,-1
 263 258 l 1,11,-1
 453 450 l 1,12,-1
 484 426 l 1,13,-1
 387 240 l 1,7,-1
EndSplineSet
EndChar

StartChar: logicalnot
Encoding: 172 172 110
Width: 592
GlyphClass: 2
Flags: W
LayerCount: 2
Fore
SplineSet
49 327 m 1,0,-1
 49 422 l 1,1,-1
 526 422 l 1,2,-1
 526 121 l 1,3,-1
 426 121 l 1,4,-1
 426 327 l 1,5,-1
 49 327 l 1,0,-1
EndSplineSet
EndChar

StartChar: uni00AD
Encoding: 173 173 111
Width: 337
GlyphClass: 2
Flags: W
LayerCount: 2
Fore
SplineSet
53 219 m 1,0,-1
 53 314 l 1,1,-1
 284 314 l 1,2,-1
 284 219 l 1,3,-1
 53 219 l 1,0,-1
EndSplineSet
EndChar

StartChar: registered
Encoding: 174 174 112
Width: 851
GlyphClass: 2
Flags: W
LayerCount: 2
Fore
SplineSet
125 313 m 128,-1,1
 125 436 125 436 213 523 c 128,-1,2
 301 610 301 610 425.5 610 c 128,-1,3
 550 610 550 610 638 523 c 128,-1,4
 726 436 726 436 726 313 c 128,-1,5
 726 190 726 190 638 103 c 128,-1,6
 550 16 550 16 425 16 c 128,-1,7
 300 16 300 16 212.5 103 c 128,-1,0
 125 190 125 190 125 313 c 128,-1,1
427 481 m 2,8,9
 550 481 550 481 550 397 c 0,10,11
 550 335 550 335 487 314 c 1,12,13
 501 305 501 305 513 282 c 1,14,-1
 549 196 l 1,15,-1
 579 185 l 1,16,-1
 575 160 l 1,17,-1
 487 160 l 1,18,-1
 440 286 l 2,19,20
 433 302 433 302 414 305 c 1,21,22
 401 305 401 305 394 306 c 1,23,-1
 389 306 l 1,24,-1
 389 194 l 1,25,-1
 425 183 l 1,26,-1
 423 160 l 1,27,-1
 289 160 l 1,28,-1
 292 185 l 1,29,-1
 318 194 l 1,30,-1
 318 447 l 1,31,-1
 289 457 l 1,32,-1
 291 481 l 1,33,-1
 427 481 l 2,8,9
420 335 m 2,34,35
 475 335 475 335 475 393.5 c 128,-1,36
 475 452 475 452 420 452 c 0,37,38
 399 452 399 452 389 450 c 1,39,-1
 389 335 l 1,40,-1
 420 335 l 2,34,35
248.5 493.5 m 128,-1,42
 174 418 174 418 174 312.5 c 128,-1,43
 174 207 174 207 248 132 c 128,-1,44
 322 57 322 57 425.5 57 c 128,-1,45
 529 57 529 57 602 132 c 128,-1,46
 675 207 675 207 675 313 c 128,-1,47
 675 419 675 419 601.5 494 c 128,-1,48
 528 569 528 569 425.5 569 c 128,-1,41
 323 569 323 569 248.5 493.5 c 128,-1,42
EndSplineSet
EndChar

StartChar: macron
Encoding: 175 175 113
Width: 285
GlyphClass: 2
Flags: W
LayerCount: 2
Fore
SplineSet
40 558 m 1,0,-1
 40 626 l 1,1,-1
 351 626 l 1,2,-1
 351 558 l 1,3,-1
 40 558 l 1,0,-1
EndSplineSet
EndChar

StartChar: degree
Encoding: 176 176 114
Width: 378
GlyphClass: 2
Flags: W
LayerCount: 2
Fore
SplineSet
37 527 m 128,-1,1
 37 589 37 589 80 632 c 128,-1,2
 123 675 123 675 187 675 c 128,-1,3
 251 675 251 675 294.5 632.5 c 128,-1,4
 338 590 338 590 338 527.5 c 128,-1,5
 338 465 338 465 294.5 422.5 c 128,-1,6
 251 380 251 380 187.5 380 c 128,-1,7
 124 380 124 380 80.5 422.5 c 128,-1,0
 37 465 37 465 37 527 c 128,-1,1
116 527 m 128,-1,9
 116 484 116 484 135.5 458.5 c 128,-1,10
 155 433 155 433 187.5 433 c 128,-1,11
 220 433 220 433 239.5 458.5 c 128,-1,12
 259 484 259 484 259 527 c 128,-1,13
 259 570 259 570 239.5 595.5 c 128,-1,14
 220 621 220 621 187.5 621 c 128,-1,15
 155 621 155 621 135.5 595.5 c 128,-1,8
 116 570 116 570 116 527 c 128,-1,9
EndSplineSet
EndChar

StartChar: plusminus
Encoding: 177 177 115
Width: 592
GlyphClass: 2
Flags: W
LayerCount: 2
Fore
SplineSet
71 306 m 1,0,-1
 71 401 l 1,1,-1
 244 401 l 1,2,-1
 244 558 l 1,3,-1
 344 558 l 1,4,-1
 344 401 l 1,5,-1
 520 401 l 1,6,-1
 520 306 l 1,7,-1
 344 306 l 1,8,-1
 344 150 l 1,9,-1
 244 150 l 1,10,-1
 244 306 l 1,11,-1
 71 306 l 1,0,-1
70 0 m 1,12,-1
 70 95 l 1,13,-1
 519 95 l 1,14,-1
 519 0 l 1,15,-1
 70 0 l 1,12,-1
EndSplineSet
EndChar

StartChar: twosuperior
Encoding: 178 178 116
Width: 437
GlyphClass: 2
Flags: W
LayerCount: 2
Fore
SplineSet
365 474 m 1,0,-1
 365 405 l 1,1,-1
 57 405 l 1,2,-1
 57 447 l 1,3,4
 166 542 166 542 208 600.5 c 128,-1,5
 250 659 250 659 250 718 c 128,-1,6
 250 777 250 777 205 777 c 0,7,8
 185 777 185 777 173 761 c 128,-1,9
 161 745 161 745 161 725 c 128,-1,10
 161 705 161 705 177 686 c 1,11,12
 150 662 150 662 121.5 662 c 128,-1,13
 93 662 93 662 75.5 676.5 c 128,-1,14
 58 691 58 691 58 719 c 0,15,16
 58 764 58 764 99 793 c 128,-1,17
 140 822 140 822 198 822 c 128,-1,18
 256 822 256 822 293 805 c 1,19,20
 361 776 361 776 361 701 c 0,21,22
 361 654 361 654 322 600 c 128,-1,23
 283 546 283 546 196 474 c 1,24,-1
 365 474 l 1,0,-1
EndSplineSet
EndChar

StartChar: threesuperior
Encoding: 179 179 117
Width: 437
GlyphClass: 2
Flags: W
LayerCount: 2
Fore
SplineSet
152 596 m 1,0,-1
 152 643 l 1,1,2
 250 651 250 651 250 714 c 128,-1,3
 250 777 250 777 208 777 c 0,4,5
 186 777 186 777 174.5 763 c 128,-1,6
 163 749 163 749 163 729.5 c 128,-1,7
 163 710 163 710 173 693 c 1,8,9
 151 671 151 671 122 671 c 128,-1,10
 93 671 93 671 77 687 c 128,-1,11
 61 703 61 703 61 727 c 0,12,13
 61 773 61 773 109 797.5 c 128,-1,14
 157 822 157 822 218 822 c 128,-1,15
 279 822 279 822 321 792 c 128,-1,16
 363 762 363 762 363 715 c 0,17,18
 363 649 363 649 290 621 c 1,19,20
 336 609 336 609 355 584 c 128,-1,21
 374 559 374 559 374 519 c 0,22,23
 374 462 374 462 322.5 431 c 128,-1,24
 271 400 271 400 206.5 400 c 128,-1,25
 142 400 142 400 99.5 423.5 c 128,-1,26
 57 447 57 447 57 488 c 0,27,28
 57 513 57 513 72.5 526.5 c 128,-1,29
 88 540 88 540 111.5 540 c 128,-1,30
 135 540 135 540 163 520 c 1,31,32
 155 505 155 505 155 491 c 0,33,34
 155 453 155 453 204 453 c 0,35,36
 258 453 258 453 258 519 c 0,37,38
 258 556 258 556 230 576 c 128,-1,39
 202 596 202 596 152 596 c 1,0,-1
EndSplineSet
EndChar

StartChar: acute
Encoding: 180 180 118
Width: 285
GlyphClass: 2
Flags: W
LayerCount: 2
Fore
SplineSet
177 717 m 0,0,1
 198 717 198 717 210.5 704 c 128,-1,2
 223 691 223 691 223 670 c 0,3,4
 223 636 223 636 191 614 c 2,5,-1
 74 531 l 1,6,-1
 40 564 l 1,7,-1
 120 683 l 2,8,9
 142 717 142 717 177 717 c 0,0,1
EndSplineSet
EndChar

StartChar: mu
Encoding: 181 181 119
Width: 605
GlyphClass: 2
Flags: W
LayerCount: 2
Fore
SplineSet
234 -7 m 2,0,-1
 225 -7 l 1,1,-1
 225 -211 l 1,2,-1
 84 -211 l 1,3,-1
 84 354 l 2,4,5
 84 390 84 390 70.5 403.5 c 128,-1,6
 57 417 57 417 22 419 c 1,7,-1
 25 458 l 1,8,9
 38 461 38 461 80 468 c 0,10,11
 176 483 176 483 208 492 c 1,12,-1
 225 483 l 1,13,-1
 225 156 l 2,14,15
 225 60 225 60 287 60 c 0,16,17
 313 60 313 60 337.5 75 c 128,-1,18
 362 90 362 90 377 115 c 1,19,-1
 377 354 l 2,20,21
 377 390 377 390 363 403.5 c 128,-1,22
 349 417 349 417 314 419 c 1,23,-1
 317 458 l 1,24,25
 330 461 330 461 372 468 c 0,26,27
 468 483 468 483 500 492 c 1,28,-1
 518 483 l 1,29,-1
 518 62 l 1,30,31
 540 43 540 43 587 35 c 1,32,-1
 584 0 l 1,33,-1
 393 0 l 1,34,-1
 383 64 l 1,35,36
 325 -7 325 -7 234 -7 c 2,0,-1
EndSplineSet
EndChar

StartChar: paragraph
Encoding: 182 182 120
Width: 588
GlyphClass: 2
Flags: W
LayerCount: 2
Fore
SplineSet
311 314 m 1,0,1
 175 314 175 314 111 356.5 c 128,-1,2
 47 399 47 399 47 489.5 c 128,-1,3
 47 580 47 580 111.5 623.5 c 128,-1,4
 176 667 176 667 311 667 c 2,5,-1
 546 667 l 1,6,-1
 541 625 l 1,7,8
 481 617 481 617 451 598 c 1,9,-1
 451 0 l 2,10,11
 451 -85 451 -85 402 -132 c 128,-1,12
 353 -179 353 -179 271 -179 c 0,13,14
 146 -179 146 -179 146 -97 c 0,15,16
 146 -71 146 -71 163.5 -54 c 128,-1,17
 181 -37 181 -37 211.5 -37 c 128,-1,18
 242 -37 242 -37 258 -62 c 1,19,20
 240 -77 240 -77 240 -101 c 0,21,22
 240 -133 240 -133 271 -133 c 0,23,24
 289 -133 289 -133 300 -119 c 128,-1,25
 311 -105 311 -105 311 -81 c 2,26,-1
 311 314 l 1,0,1
206 490 m 0,27,28
 206 363 206 363 311 363 c 1,29,-1
 311 618 l 1,30,31
 256 618 256 618 231 587 c 128,-1,32
 206 556 206 556 206 490 c 0,27,28
366 -78 m 2,33,34
 366 -116 366 -116 350 -132 c 1,35,36
 402 -117 402 -117 402 -47 c 2,37,-1
 402 617 l 1,38,-1
 366 620 l 1,39,-1
 366 -78 l 2,33,34
EndSplineSet
EndChar

StartChar: periodcentered
Encoding: 183 183 121
Width: 276
GlyphClass: 2
Flags: W
LayerCount: 2
Fore
SplineSet
138 377 m 128,-1,1
 208 377 208 377 208 300.5 c 128,-1,2
 208 224 208 224 138 224 c 0,3,4
 103 224 103 224 85.5 244.5 c 128,-1,5
 68 265 68 265 68 300 c 0,6,0
 68 377 68 377 138 377 c 128,-1,1
EndSplineSet
EndChar

StartChar: cedilla
Encoding: 184 184 122
Width: 285
GlyphClass: 2
Flags: W
LayerCount: 2
Fore
SplineSet
224.5 -67 m 128,-1,1
 242 -85 242 -85 242 -121 c 128,-1,2
 242 -157 242 -157 211.5 -183.5 c 128,-1,3
 181 -210 181 -210 132.5 -210 c 128,-1,4
 84 -210 84 -210 57.5 -185.5 c 128,-1,5
 31 -161 31 -161 31 -136.5 c 128,-1,6
 31 -112 31 -112 43.5 -99.5 c 128,-1,7
 56 -87 56 -87 73.5 -87 c 128,-1,8
 91 -87 91 -87 109 -96 c 1,9,10
 100 -106 100 -106 100 -124 c 128,-1,11
 100 -142 100 -142 108.5 -155 c 128,-1,12
 117 -168 117 -168 132 -168 c 0,13,14
 168 -168 168 -168 168 -123.5 c 128,-1,15
 168 -79 168 -79 109 -73 c 1,16,-1
 88 -49 l 1,17,-1
 142 16 l 1,18,-1
 181 7 l 1,19,-1
 173 -39 l 1,20,0
 207 -49 207 -49 224.5 -67 c 128,-1,1
EndSplineSet
EndChar

StartChar: onesuperior
Encoding: 185 185 123
Width: 437
GlyphClass: 2
Flags: W
LayerCount: 2
Fore
SplineSet
178 739 m 1,0,-1
 89 739 l 1,1,-1
 89 784 l 1,2,3
 187 789 187 789 258 817 c 1,4,-1
 283 807 l 1,5,-1
 283 460 l 1,6,7
 315 447 315 447 367 444 c 1,8,-1
 364 405 l 1,9,-1
 86 405 l 1,10,-1
 88 443 l 1,11,12
 149 449 149 449 178 461 c 1,13,-1
 178 739 l 1,0,-1
EndSplineSet
EndChar

StartChar: ordmasculine
Encoding: 186 186 124
Width: 436
GlyphClass: 2
Flags: W
LayerCount: 2
Fore
SplineSet
386 292 m 1,0,-1
 386 231 l 1,1,-1
 50 231 l 1,2,-1
 50 292 l 1,3,-1
 386 292 l 1,0,-1
164 506 m 128,-1,5
 164 443 164 443 176.5 415.5 c 128,-1,6
 189 388 189 388 217.5 388 c 128,-1,7
 246 388 246 388 258.5 415.5 c 128,-1,8
 271 443 271 443 271 505.5 c 128,-1,9
 271 568 271 568 258.5 595.5 c 128,-1,10
 246 623 246 623 217.5 623 c 128,-1,11
 189 623 189 623 176.5 596 c 128,-1,4
 164 569 164 569 164 506 c 128,-1,5
49 506 m 0,12,13
 49 672 49 672 217.5 672 c 128,-1,14
 386 672 386 672 386 505.5 c 128,-1,15
 386 339 386 339 218 339 c 0,16,17
 134 339 134 339 91.5 381.5 c 128,-1,18
 49 424 49 424 49 506 c 0,12,13
EndSplineSet
EndChar

StartChar: guillemotright
Encoding: 187 187 125
Width: 522
GlyphClass: 2
Flags: W
LayerCount: 2
Fore
SplineSet
262 55 m 1,0,-1
 359 240 l 1,1,-1
 262 426 l 1,2,-1
 293 450 l 1,3,-1
 483 258 l 1,4,-1
 483 222 l 1,5,-1
 293 31 l 1,6,-1
 262 55 l 1,0,-1
37 55 m 1,7,-1
 134 240 l 1,8,-1
 37 426 l 1,9,-1
 68 450 l 1,10,-1
 258 258 l 1,11,-1
 258 222 l 1,12,-1
 68 31 l 1,13,-1
 37 55 l 1,7,-1
EndSplineSet
EndChar

StartChar: onequarter
Encoding: 188 188 126
Width: 941
GlyphClass: 2
Flags: W
LayerCount: 2
Fore
SplineSet
207 591 m 1,0,-1
 118 591 l 1,1,-1
 118 636 l 1,2,3
 216 641 216 641 287 669 c 1,4,-1
 312 659 l 1,5,-1
 312 312 l 1,6,7
 344 299 344 299 396 296 c 1,8,-1
 393 257 l 1,9,-1
 115 257 l 1,10,-1
 117 295 l 1,11,12
 178 301 178 301 207 313 c 1,13,-1
 207 591 l 1,0,-1
362 -30 m 1,14,-1
 296 2 l 1,15,-1
 617 684 l 1,16,-1
 683 652 l 1,17,-1
 362 -30 l 1,14,-1
761 102 m 1,18,-1
 569 102 l 1,19,-1
 563 130 l 1,20,-1
 732 411 l 1,21,22
 786 409 786 409 821 387 c 1,23,-1
 660 158 l 1,24,-1
 761 158 l 1,25,-1
 761 238 l 1,26,27
 777 238 777 238 790 249 c 128,-1,28
 803 260 803 260 807 278 c 1,29,-1
 857 278 l 1,30,-1
 857 154 l 1,31,32
 885 147 885 147 922 140 c 1,33,-1
 917 102 l 1,34,-1
 854 102 l 1,35,-1
 854 -5 l 1,36,-1
 761 -5 l 1,37,-1
 761 102 l 1,18,-1
EndSplineSet
EndChar

StartChar: onehalf
Encoding: 189 189 127
Width: 976
GlyphClass: 2
Flags: W
LayerCount: 2
Fore
SplineSet
208 591 m 1,0,-1
 119 591 l 1,1,-1
 119 636 l 1,2,3
 217 641 217 641 288 669 c 1,4,-1
 313 659 l 1,5,-1
 313 312 l 1,6,7
 345 299 345 299 397 296 c 1,8,-1
 394 257 l 1,9,-1
 116 257 l 1,10,-1
 118 295 l 1,11,12
 179 301 179 301 208 313 c 1,13,-1
 208 591 l 1,0,-1
358 -30 m 1,14,-1
 292 2 l 1,15,-1
 613 684 l 1,16,-1
 679 652 l 1,17,-1
 358 -30 l 1,14,-1
920 66 m 1,18,-1
 920 -3 l 1,19,-1
 612 -3 l 1,20,-1
 612 39 l 1,21,22
 721 134 721 134 763 192.5 c 128,-1,23
 805 251 805 251 805 310 c 128,-1,24
 805 369 805 369 760 369 c 0,25,26
 740 369 740 369 728 353 c 128,-1,27
 716 337 716 337 716 317 c 128,-1,28
 716 297 716 297 732 278 c 1,29,30
 705 254 705 254 676.5 254 c 128,-1,31
 648 254 648 254 630.5 268.5 c 128,-1,32
 613 283 613 283 613 311 c 0,33,34
 613 356 613 356 654 385 c 128,-1,35
 695 414 695 414 753 414 c 128,-1,36
 811 414 811 414 848 397 c 1,37,38
 916 368 916 368 916 293 c 0,39,40
 916 246 916 246 877 192 c 128,-1,41
 838 138 838 138 751 66 c 1,42,-1
 920 66 l 1,18,-1
EndSplineSet
EndChar

StartChar: threequarters
Encoding: 190 190 128
Width: 941
GlyphClass: 2
Flags: W
LayerCount: 2
Fore
SplineSet
147 448 m 1,0,-1
 147 495 l 1,1,2
 245 503 245 503 245 566 c 128,-1,3
 245 629 245 629 203 629 c 0,4,5
 181 629 181 629 169.5 615 c 128,-1,6
 158 601 158 601 158 581.5 c 128,-1,7
 158 562 158 562 168 545 c 1,8,9
 146 523 146 523 117 523 c 128,-1,10
 88 523 88 523 72 539 c 128,-1,11
 56 555 56 555 56 579 c 0,12,13
 56 625 56 625 104 649.5 c 128,-1,14
 152 674 152 674 213 674 c 128,-1,15
 274 674 274 674 316 644 c 128,-1,16
 358 614 358 614 358 567 c 0,17,18
 358 501 358 501 285 473 c 1,19,20
 331 461 331 461 350 436 c 128,-1,21
 369 411 369 411 369 371 c 0,22,23
 369 314 369 314 317.5 283 c 128,-1,24
 266 252 266 252 201.5 252 c 128,-1,25
 137 252 137 252 94.5 275.5 c 128,-1,26
 52 299 52 299 52 340 c 0,27,28
 52 365 52 365 67.5 378.5 c 128,-1,29
 83 392 83 392 106.5 392 c 128,-1,30
 130 392 130 392 158 372 c 1,31,32
 150 357 150 357 150 343 c 0,33,34
 150 305 150 305 199 305 c 0,35,36
 253 305 253 305 253 371 c 0,37,38
 253 408 253 408 225 428 c 128,-1,39
 197 448 197 448 147 448 c 1,0,-1
362 -30 m 1,40,-1
 296 2 l 1,41,-1
 617 684 l 1,42,-1
 683 652 l 1,43,-1
 362 -30 l 1,40,-1
761 102 m 1,44,-1
 569 102 l 1,45,-1
 563 130 l 1,46,-1
 732 411 l 1,47,48
 786 409 786 409 821 387 c 1,49,-1
 660 158 l 1,50,-1
 761 158 l 1,51,-1
 761 238 l 1,52,53
 777 238 777 238 790 249 c 128,-1,54
 803 260 803 260 807 278 c 1,55,-1
 857 278 l 1,56,-1
 857 154 l 1,57,58
 885 147 885 147 922 140 c 1,59,-1
 917 102 l 1,60,-1
 854 102 l 1,61,-1
 854 -5 l 1,62,-1
 761 -5 l 1,63,-1
 761 102 l 1,44,-1
EndSplineSet
EndChar

StartChar: questiondown
Encoding: 191 191 129
Width: 452
GlyphClass: 2
Flags: W
LayerCount: 2
Fore
SplineSet
290.5 263.5 m 128,-1,1
 313 242 313 242 313 204 c 128,-1,2
 313 166 313 166 298 137.5 c 128,-1,3
 283 109 283 109 261.5 88.5 c 128,-1,4
 240 68 240 68 218 46 c 0,5,6
 167 -5 167 -5 167 -84 c 0,7,8
 167 -119 167 -119 185.5 -137 c 128,-1,9
 204 -155 204 -155 227 -155 c 128,-1,10
 250 -155 250 -155 265 -143 c 128,-1,11
 280 -131 280 -131 280 -106.5 c 128,-1,12
 280 -82 280 -82 250 -58 c 1,13,14
 259 -36 259 -36 279.5 -24 c 128,-1,15
 300 -12 300 -12 328.5 -12 c 128,-1,16
 357 -12 357 -12 381 -32.5 c 128,-1,17
 405 -53 405 -53 405 -89 c 0,18,19
 405 -140 405 -140 349.5 -170.5 c 128,-1,20
 294 -201 294 -201 212.5 -201 c 128,-1,21
 131 -201 131 -201 82 -166.5 c 128,-1,22
 33 -132 33 -132 33 -64 c 0,23,24
 33 -26 33 -26 49 7.5 c 128,-1,25
 65 41 65 41 87.5 64 c 128,-1,26
 110 87 110 87 132 108 c 0,27,28
 186 161 186 161 186 203 c 0,29,30
 186 226 186 226 170 260 c 1,31,32
 201 285 201 285 234.5 285 c 128,-1,0
 268 285 268 285 290.5 263.5 c 128,-1,1
158 417 m 128,-1,34
 158 487 158 487 237.5 487 c 128,-1,35
 317 487 317 487 317 417 c 128,-1,36
 317 347 317 347 237.5 347 c 128,-1,33
 158 347 158 347 158 417 c 128,-1,34
EndSplineSet
EndChar

StartChar: Agrave
Encoding: 192 192 130
Width: 652
GlyphClass: 2
Flags: W
LayerCount: 2
Fore
SplineSet
439 65 m 1,0,-1
 392 208 l 1,1,-1
 186 208 l 1,2,-1
 138 70 l 1,3,4
 166 47 166 47 223 40 c 1,5,-1
 218 0 l 1,6,-1
 -8 0 l 1,7,-1
 -2 40 l 1,8,9
 44 42 44 42 59 65 c 1,10,-1
 272 667 l 1,11,-1
 376 667 l 1,12,-1
 591 74 l 1,13,14
 607 48 607 48 652 40 c 1,15,-1
 647 0 l 1,16,-1
 373 0 l 1,17,-1
 379 40 l 1,18,19
 425 47 425 47 439 65 c 1,0,-1
293 511 m 1,20,-1
 208 271 l 1,21,-1
 371 271 l 1,22,-1
 293 511 l 1,20,-1
246 892 m 0,23,24
 280 892 280 892 303 858 c 2,25,-1
 383 739 l 1,26,-1
 349 706 l 1,27,-1
 232 789 l 2,28,29
 201 811 201 811 199 845 c 1,30,31
 199 866 199 866 212 879 c 128,-1,32
 225 892 225 892 246 892 c 0,23,24
EndSplineSet
EndChar

StartChar: Aacute
Encoding: 193 193 131
Width: 652
GlyphClass: 2
Flags: W
LayerCount: 2
Fore
SplineSet
439 65 m 1,0,-1
 392 208 l 1,1,-1
 186 208 l 1,2,-1
 138 70 l 1,3,4
 166 47 166 47 223 40 c 1,5,-1
 218 0 l 1,6,-1
 -8 0 l 1,7,-1
 -2 40 l 1,8,9
 44 42 44 42 59 65 c 1,10,-1
 272 667 l 1,11,-1
 376 667 l 1,12,-1
 591 74 l 1,13,14
 607 48 607 48 652 40 c 1,15,-1
 647 0 l 1,16,-1
 373 0 l 1,17,-1
 379 40 l 1,18,19
 425 47 425 47 439 65 c 1,0,-1
293 511 m 1,20,-1
 208 271 l 1,21,-1
 371 271 l 1,22,-1
 293 511 l 1,20,-1
398 899 m 0,23,24
 419 899 419 899 431.5 886 c 128,-1,25
 444 873 444 873 444 852 c 0,26,27
 444 818 444 818 412 796 c 2,28,-1
 295 713 l 1,29,-1
 261 746 l 1,30,-1
 341 865 l 2,31,32
 363 899 363 899 398 899 c 0,23,24
EndSplineSet
EndChar

StartChar: Acircumflex
Encoding: 194 194 132
Width: 652
GlyphClass: 2
Flags: W
LayerCount: 2
Fore
SplineSet
439 65 m 1,0,-1
 392 208 l 1,1,-1
 186 208 l 1,2,-1
 138 70 l 1,3,4
 166 47 166 47 223 40 c 1,5,-1
 218 0 l 1,6,-1
 -8 0 l 1,7,-1
 -2 40 l 1,8,9
 44 42 44 42 59 65 c 1,10,-1
 272 667 l 1,11,-1
 376 667 l 1,12,-1
 591 74 l 1,13,14
 607 48 607 48 652 40 c 1,15,-1
 647 0 l 1,16,-1
 373 0 l 1,17,-1
 379 40 l 1,18,19
 425 47 425 47 439 65 c 1,0,-1
293 511 m 1,20,-1
 208 271 l 1,21,-1
 371 271 l 1,22,-1
 293 511 l 1,20,-1
269 849 m 2,23,24
 293 876 293 876 323 876 c 128,-1,25
 353 876 353 876 377 849 c 2,26,-1
 472 742 l 1,27,-1
 443 705 l 1,28,-1
 323 788 l 1,29,-1
 203 705 l 1,30,-1
 174 742 l 1,31,-1
 269 849 l 2,23,24
EndSplineSet
EndChar

StartChar: Atilde
Encoding: 195 195 133
Width: 652
GlyphClass: 2
Flags: W
LayerCount: 2
Fore
SplineSet
439 65 m 1,0,-1
 392 208 l 1,1,-1
 186 208 l 1,2,-1
 138 70 l 1,3,4
 166 47 166 47 223 40 c 1,5,-1
 218 0 l 1,6,-1
 -8 0 l 1,7,-1
 -2 40 l 1,8,9
 44 42 44 42 59 65 c 1,10,-1
 272 667 l 1,11,-1
 376 667 l 1,12,-1
 591 74 l 1,13,14
 607 48 607 48 652 40 c 1,15,-1
 647 0 l 1,16,-1
 373 0 l 1,17,-1
 379 40 l 1,18,19
 425 47 425 47 439 65 c 1,0,-1
293 511 m 1,20,-1
 208 271 l 1,21,-1
 371 271 l 1,22,-1
 293 511 l 1,20,-1
327 833 m 128,-1,24
 368 813 368 813 393.5 813 c 128,-1,25
 419 813 419 813 448 852 c 1,26,27
 478 841 478 841 496 821 c 1,28,29
 452 726 452 726 385 726 c 0,30,31
 364 726 364 726 322 745.5 c 128,-1,32
 280 765 280 765 260 765 c 0,33,34
 230 765 230 765 201 727 c 1,35,36
 171 739 171 739 153 759 c 1,37,38
 197 853 197 853 265 853 c 0,39,23
 286 853 286 853 327 833 c 128,-1,24
EndSplineSet
EndChar

StartChar: Adieresis
Encoding: 196 196 134
Width: 652
GlyphClass: 2
Flags: W
LayerCount: 2
Fore
SplineSet
439 65 m 1,0,-1
 392 208 l 1,1,-1
 186 208 l 1,2,-1
 138 70 l 1,3,4
 166 47 166 47 223 40 c 1,5,-1
 218 0 l 1,6,-1
 -8 0 l 1,7,-1
 -2 40 l 1,8,9
 44 42 44 42 59 65 c 1,10,-1
 272 667 l 1,11,-1
 376 667 l 1,12,-1
 591 74 l 1,13,14
 607 48 607 48 652 40 c 1,15,-1
 647 0 l 1,16,-1
 373 0 l 1,17,-1
 379 40 l 1,18,19
 425 47 425 47 439 65 c 1,0,-1
293 511 m 1,20,-1
 208 271 l 1,21,-1
 371 271 l 1,22,-1
 293 511 l 1,20,-1
307 774 m 0,23,24
 307 717 307 717 241.5 717 c 128,-1,25
 176 717 176 717 176 774 c 0,26,27
 176 829 176 829 241.5 829 c 128,-1,28
 307 829 307 829 307 774 c 0,23,24
471 774 m 0,29,30
 471 717 471 717 405 717 c 128,-1,31
 339 717 339 717 339 774 c 0,32,33
 339 829 339 829 405 829 c 128,-1,34
 471 829 471 829 471 774 c 0,29,30
EndSplineSet
EndChar

StartChar: Aring
Encoding: 197 197 135
Width: 652
GlyphClass: 2
Flags: W
LayerCount: 2
Fore
SplineSet
439 65 m 1,0,-1
 392 208 l 1,1,-1
 186 208 l 1,2,-1
 138 70 l 1,3,4
 166 47 166 47 223 40 c 1,5,-1
 218 0 l 1,6,-1
 -8 0 l 1,7,-1
 -2 40 l 1,8,9
 44 42 44 42 59 65 c 1,10,-1
 272 667 l 1,11,-1
 376 667 l 1,12,-1
 591 74 l 1,13,14
 607 48 607 48 652 40 c 1,15,-1
 647 0 l 1,16,-1
 373 0 l 1,17,-1
 379 40 l 1,18,19
 425 47 425 47 439 65 c 1,0,-1
293 511 m 1,20,-1
 208 271 l 1,21,-1
 371 271 l 1,22,-1
 293 511 l 1,20,-1
212 806 m 128,-1,24
 212 850 212 850 242.5 879.5 c 128,-1,25
 273 909 273 909 324 909 c 128,-1,26
 375 909 375 909 406 879.5 c 128,-1,27
 437 850 437 850 437 806 c 128,-1,28
 437 762 437 762 406 733 c 128,-1,29
 375 704 375 704 324 704 c 128,-1,30
 273 704 273 704 242.5 733 c 128,-1,23
 212 762 212 762 212 806 c 128,-1,24
284 806.5 m 128,-1,32
 284 751 284 751 324.5 751 c 128,-1,33
 365 751 365 751 365 806.5 c 128,-1,34
 365 862 365 862 324.5 862 c 128,-1,31
 284 862 284 862 284 806.5 c 128,-1,32
EndSplineSet
EndChar

StartChar: AE
Encoding: 198 198 136
Width: 880
GlyphClass: 2
Flags: W
LayerCount: 2
Fore
SplineSet
832 502 m 1,0,1
 809 495 809 495 794.5 495 c 128,-1,2
 780 495 780 495 758 499 c 1,3,4
 743 568 743 568 715 606 c 1,5,-1
 562 606 l 1,6,-1
 562 369 l 1,7,-1
 640 376 l 2,8,9
 658 378 658 378 673.5 396 c 128,-1,10
 689 414 689 414 696 443 c 1,11,-1
 748 443 l 1,12,-1
 748 236 l 1,13,-1
 696 236 l 1,14,15
 682 276 682 276 669 292 c 128,-1,16
 656 308 656 308 639 310 c 2,17,-1
 562 318 l 1,18,-1
 562 62 l 1,19,-1
 722 62 l 1,20,21
 754 110 754 110 769 189 c 1,22,23
 790 192 790 192 808 192 c 128,-1,24
 826 192 826 192 843 189 c 1,25,-1
 833 0 l 1,26,-1
 354 0 l 1,27,-1
 358 41 l 1,28,29
 397 47 397 47 415 66 c 1,30,-1
 415 208 l 1,31,-1
 217 208 l 1,32,-1
 146 68 l 1,33,34
 172 47 172 47 228 40 c 1,35,-1
 223 0 l 1,36,-1
 -3 0 l 1,37,-1
 3 40 l 1,38,39
 54 42 54 42 67 71 c 1,40,-1
 375 667 l 1,41,-1
 828 667 l 1,42,-1
 832 502 l 1,0,1
415 271 m 1,43,-1
 415 596 l 1,44,-1
 249 271 l 1,45,-1
 415 271 l 1,43,-1
EndSplineSet
EndChar

StartChar: Ccedilla
Encoding: 199 199 137
Width: 573
GlyphClass: 2
Flags: W
LayerCount: 2
Fore
SplineSet
335 -10 m 0,0,1
 391 -10 391 -10 448.5 19 c 128,-1,2
 506 48 506 48 553 101 c 1,3,-1
 520 133 l 1,4,5
 450 58 450 58 368 58 c 128,-1,6
 286 58 286 58 249 129.5 c 128,-1,7
 212 201 212 201 212 342 c 0,8,9
 212 621 212 621 330 621 c 0,10,11
 361 621 361 621 379.5 603 c 128,-1,12
 398 585 398 585 398 557 c 128,-1,13
 398 529 398 529 382 502 c 1,14,15
 392 482 392 482 413.5 469 c 128,-1,16
 435 456 435 456 464 456 c 128,-1,17
 493 456 493 456 516 481 c 128,-1,18
 539 506 539 506 539 542 c 0,19,20
 539 600 539 600 482 637 c 128,-1,21
 425 674 425 674 334 674 c 0,22,23
 192 674 192 674 119.5 586 c 128,-1,24
 47 498 47 498 47 329 c 128,-1,25
 47 160 47 160 120.5 75 c 128,-1,26
 194 -10 194 -10 335 -10 c 0,0,1
393.5 -67 m 128,-1,28
 411 -85 411 -85 411 -121 c 128,-1,29
 411 -157 411 -157 380.5 -183.5 c 128,-1,30
 350 -210 350 -210 301.5 -210 c 128,-1,31
 253 -210 253 -210 226.5 -185.5 c 128,-1,32
 200 -161 200 -161 200 -136.5 c 128,-1,33
 200 -112 200 -112 213 -99.5 c 128,-1,34
 226 -87 226 -87 243 -87 c 128,-1,35
 260 -87 260 -87 278 -96 c 1,36,37
 269 -106 269 -106 269 -124 c 128,-1,38
 269 -142 269 -142 277.5 -155 c 128,-1,39
 286 -168 286 -168 301 -168 c 0,40,41
 337 -168 337 -168 337 -123.5 c 128,-1,42
 337 -79 337 -79 278 -73 c 1,43,-1
 257 -49 l 1,44,-1
 311 16 l 1,45,-1
 350 7 l 1,46,-1
 342 -39 l 1,47,27
 376 -49 376 -49 393.5 -67 c 128,-1,28
EndSplineSet
EndChar

StartChar: Egrave
Encoding: 200 200 138
Width: 578
GlyphClass: 2
Flags: W
LayerCount: 2
Fore
SplineSet
531 502 m 1,0,1
 508 495 508 495 493.5 495 c 128,-1,2
 479 495 479 495 457 499 c 1,3,4
 442 568 442 568 414 606 c 1,5,-1
 246 606 l 1,6,-1
 246 369 l 1,7,-1
 339 376 l 2,8,9
 357 378 357 378 372.5 396 c 128,-1,10
 388 414 388 414 395 443 c 1,11,-1
 447 443 l 1,12,-1
 447 236 l 1,13,-1
 395 236 l 1,14,15
 381 276 381 276 368 292 c 128,-1,16
 355 308 355 308 338 310 c 2,17,-1
 246 318 l 1,18,-1
 246 62 l 1,19,-1
 421 62 l 1,20,21
 453 110 453 110 468 189 c 1,22,23
 489 192 489 192 507.5 192 c 128,-1,24
 526 192 526 192 542 189 c 1,25,-1
 532 0 l 1,26,-1
 38 0 l 1,27,-1
 42 41 l 1,28,29
 81 47 81 47 99 66 c 1,30,-1
 99 601 l 1,31,32
 75 622 75 622 38 630 c 1,33,-1
 41 667 l 1,34,-1
 527 667 l 1,35,-1
 531 502 l 1,0,1
229 892 m 0,36,37
 263 892 263 892 286 858 c 2,38,-1
 366 739 l 1,39,-1
 332 706 l 1,40,-1
 215 789 l 2,41,42
 184 811 184 811 182 845 c 1,43,44
 182 866 182 866 195 879 c 128,-1,45
 208 892 208 892 229 892 c 0,36,37
EndSplineSet
EndChar

StartChar: Eacute
Encoding: 201 201 139
Width: 578
GlyphClass: 2
Flags: W
LayerCount: 2
Fore
SplineSet
531 502 m 1,0,1
 508 495 508 495 493.5 495 c 128,-1,2
 479 495 479 495 457 499 c 1,3,4
 442 568 442 568 414 606 c 1,5,-1
 246 606 l 1,6,-1
 246 369 l 1,7,-1
 339 376 l 2,8,9
 357 378 357 378 372.5 396 c 128,-1,10
 388 414 388 414 395 443 c 1,11,-1
 447 443 l 1,12,-1
 447 236 l 1,13,-1
 395 236 l 1,14,15
 381 276 381 276 368 292 c 128,-1,16
 355 308 355 308 338 310 c 2,17,-1
 246 318 l 1,18,-1
 246 62 l 1,19,-1
 421 62 l 1,20,21
 453 110 453 110 468 189 c 1,22,23
 489 192 489 192 507.5 192 c 128,-1,24
 526 192 526 192 542 189 c 1,25,-1
 532 0 l 1,26,-1
 38 0 l 1,27,-1
 42 41 l 1,28,29
 81 47 81 47 99 66 c 1,30,-1
 99 601 l 1,31,32
 75 622 75 622 38 630 c 1,33,-1
 41 667 l 1,34,-1
 527 667 l 1,35,-1
 531 502 l 1,0,1
381 899 m 0,36,37
 402 899 402 899 414.5 886 c 128,-1,38
 427 873 427 873 427 852 c 0,39,40
 427 818 427 818 395 796 c 2,41,-1
 278 713 l 1,42,-1
 244 746 l 1,43,-1
 324 865 l 2,44,45
 346 899 346 899 381 899 c 0,36,37
EndSplineSet
EndChar

StartChar: Ecircumflex
Encoding: 202 202 140
Width: 578
GlyphClass: 2
Flags: W
LayerCount: 2
Fore
SplineSet
531 502 m 1,0,1
 508 495 508 495 493.5 495 c 128,-1,2
 479 495 479 495 457 499 c 1,3,4
 442 568 442 568 414 606 c 1,5,-1
 246 606 l 1,6,-1
 246 369 l 1,7,-1
 339 376 l 2,8,9
 357 378 357 378 372.5 396 c 128,-1,10
 388 414 388 414 395 443 c 1,11,-1
 447 443 l 1,12,-1
 447 236 l 1,13,-1
 395 236 l 1,14,15
 381 276 381 276 368 292 c 128,-1,16
 355 308 355 308 338 310 c 2,17,-1
 246 318 l 1,18,-1
 246 62 l 1,19,-1
 421 62 l 1,20,21
 453 110 453 110 468 189 c 1,22,23
 489 192 489 192 507.5 192 c 128,-1,24
 526 192 526 192 542 189 c 1,25,-1
 532 0 l 1,26,-1
 38 0 l 1,27,-1
 42 41 l 1,28,29
 81 47 81 47 99 66 c 1,30,-1
 99 601 l 1,31,32
 75 622 75 622 38 630 c 1,33,-1
 41 667 l 1,34,-1
 527 667 l 1,35,-1
 531 502 l 1,0,1
252 849 m 2,36,37
 276 876 276 876 306 876 c 128,-1,38
 336 876 336 876 360 849 c 2,39,-1
 455 742 l 1,40,-1
 426 705 l 1,41,-1
 306 788 l 1,42,-1
 186 705 l 1,43,-1
 157 742 l 1,44,-1
 252 849 l 2,36,37
EndSplineSet
EndChar

StartChar: Edieresis
Encoding: 203 203 141
Width: 578
GlyphClass: 2
Flags: W
LayerCount: 2
Fore
SplineSet
531 502 m 1,0,1
 508 495 508 495 493.5 495 c 128,-1,2
 479 495 479 495 457 499 c 1,3,4
 442 568 442 568 414 606 c 1,5,-1
 246 606 l 1,6,-1
 246 369 l 1,7,-1
 339 376 l 2,8,9
 357 378 357 378 372.5 396 c 128,-1,10
 388 414 388 414 395 443 c 1,11,-1
 447 443 l 1,12,-1
 447 236 l 1,13,-1
 395 236 l 1,14,15
 381 276 381 276 368 292 c 128,-1,16
 355 308 355 308 338 310 c 2,17,-1
 246 318 l 1,18,-1
 246 62 l 1,19,-1
 421 62 l 1,20,21
 453 110 453 110 468 189 c 1,22,23
 489 192 489 192 507.5 192 c 128,-1,24
 526 192 526 192 542 189 c 1,25,-1
 532 0 l 1,26,-1
 38 0 l 1,27,-1
 42 41 l 1,28,29
 81 47 81 47 99 66 c 1,30,-1
 99 601 l 1,31,32
 75 622 75 622 38 630 c 1,33,-1
 41 667 l 1,34,-1
 527 667 l 1,35,-1
 531 502 l 1,0,1
290 774 m 0,36,37
 290 717 290 717 224.5 717 c 128,-1,38
 159 717 159 717 159 774 c 0,39,40
 159 829 159 829 224.5 829 c 128,-1,41
 290 829 290 829 290 774 c 0,36,37
454 774 m 0,42,43
 454 717 454 717 388 717 c 128,-1,44
 322 717 322 717 322 774 c 0,45,46
 322 829 322 829 388 829 c 128,-1,47
 454 829 454 829 454 774 c 0,42,43
EndSplineSet
EndChar

StartChar: Igrave
Encoding: 204 204 142
Width: 350
GlyphClass: 2
Flags: W
LayerCount: 2
Fore
SplineSet
25 626 m 1,0,-1
 30 667 l 1,1,-1
 323 667 l 1,2,-1
 317 626 l 1,3,4
 274 618 274 618 248 596 c 1,5,-1
 248 71 l 1,6,7
 268 52 268 52 323 41 c 1,8,-1
 316 0 l 1,9,-1
 25 0 l 1,10,-1
 29 41 l 1,11,12
 74 48 74 48 101 71 c 1,13,-1
 101 596 l 1,14,15
 79 618 79 618 25 626 c 1,0,-1
103 892 m 0,16,17
 137 892 137 892 160 858 c 2,18,-1
 240 739 l 1,19,-1
 206 706 l 1,20,-1
 89 789 l 2,21,22
 58 811 58 811 56 845 c 1,23,24
 56 866 56 866 69 879 c 128,-1,25
 82 892 82 892 103 892 c 0,16,17
EndSplineSet
EndChar

StartChar: Iacute
Encoding: 205 205 143
Width: 350
GlyphClass: 2
Flags: W
LayerCount: 2
Fore
SplineSet
25 626 m 1,0,-1
 30 667 l 1,1,-1
 323 667 l 1,2,-1
 317 626 l 1,3,4
 274 618 274 618 248 596 c 1,5,-1
 248 71 l 1,6,7
 268 52 268 52 323 41 c 1,8,-1
 316 0 l 1,9,-1
 25 0 l 1,10,-1
 29 41 l 1,11,12
 74 48 74 48 101 71 c 1,13,-1
 101 596 l 1,14,15
 79 618 79 618 25 626 c 1,0,-1
255 899 m 0,16,17
 276 899 276 899 288.5 886 c 128,-1,18
 301 873 301 873 301 852 c 0,19,20
 301 818 301 818 269 796 c 2,21,-1
 152 713 l 1,22,-1
 118 746 l 1,23,-1
 198 865 l 2,24,25
 220 899 220 899 255 899 c 0,16,17
EndSplineSet
EndChar

StartChar: Icircumflex
Encoding: 206 206 144
Width: 350
GlyphClass: 2
Flags: W
LayerCount: 2
Fore
SplineSet
25 626 m 1,0,-1
 30 667 l 1,1,-1
 323 667 l 1,2,-1
 317 626 l 1,3,4
 274 618 274 618 248 596 c 1,5,-1
 248 71 l 1,6,7
 268 52 268 52 323 41 c 1,8,-1
 316 0 l 1,9,-1
 25 0 l 1,10,-1
 29 41 l 1,11,12
 74 48 74 48 101 71 c 1,13,-1
 101 596 l 1,14,15
 79 618 79 618 25 626 c 1,0,-1
126 849 m 2,16,17
 150 876 150 876 180 876 c 128,-1,18
 210 876 210 876 234 849 c 2,19,-1
 329 742 l 1,20,-1
 300 705 l 1,21,-1
 180 788 l 1,22,-1
 60 705 l 1,23,-1
 31 742 l 1,24,-1
 126 849 l 2,16,17
EndSplineSet
EndChar

StartChar: Idieresis
Encoding: 207 207 145
Width: 350
GlyphClass: 2
Flags: W
LayerCount: 2
Fore
SplineSet
25 626 m 1,0,-1
 30 667 l 1,1,-1
 323 667 l 1,2,-1
 317 626 l 1,3,4
 274 618 274 618 248 596 c 1,5,-1
 248 71 l 1,6,7
 268 52 268 52 323 41 c 1,8,-1
 316 0 l 1,9,-1
 25 0 l 1,10,-1
 29 41 l 1,11,12
 74 48 74 48 101 71 c 1,13,-1
 101 596 l 1,14,15
 79 618 79 618 25 626 c 1,0,-1
164 774 m 0,16,17
 164 717 164 717 98.5 717 c 128,-1,18
 33 717 33 717 33 774 c 0,19,20
 33 829 33 829 98.5 829 c 128,-1,21
 164 829 164 829 164 774 c 0,16,17
328 774 m 0,22,23
 328 717 328 717 262 717 c 128,-1,24
 196 717 196 717 196 774 c 0,25,26
 196 829 196 829 262 829 c 128,-1,27
 328 829 328 829 328 774 c 0,22,23
EndSplineSet
EndChar

StartChar: Eth
Encoding: 208 208 146
Width: 709
GlyphClass: 2
Flags: W
LayerCount: 2
Fore
SplineSet
20 292 m 1,0,-1
 20 360 l 1,1,-1
 383 360 l 1,2,-1
 383 292 l 1,3,-1
 20 292 l 1,0,-1
261 667 m 2,4,5
 466 667 466 667 559 587 c 128,-1,6
 652 507 652 507 652 333 c 128,-1,7
 652 159 652 159 558 79.5 c 128,-1,8
 464 0 464 0 255 0 c 2,9,-1
 43 0 l 1,10,-1
 47 41 l 1,11,12
 79 48 79 48 103 70 c 1,13,-1
 103 597 l 1,14,15
 85 614 85 614 43 628 c 1,16,-1
 47 667 l 1,17,-1
 261 667 l 2,4,5
293 605 m 2,18,-1
 251 605 l 1,19,-1
 251 66 l 1,20,21
 260 62 260 62 290 62 c 0,22,23
 398 62 398 62 446.5 127 c 128,-1,24
 495 192 495 192 495 334.5 c 128,-1,25
 495 477 495 477 448 541 c 128,-1,26
 401 605 401 605 293 605 c 2,18,-1
EndSplineSet
EndChar

StartChar: Ntilde
Encoding: 209 209 147
Width: 679
GlyphClass: 2
Flags: W
LayerCount: 2
Fore
SplineSet
595 0 m 1,0,-1
 443 0 l 1,1,-1
 179 460 l 1,2,-1
 179 71 l 1,3,4
 202 50 202 50 254 39 c 1,5,-1
 247 0 l 1,6,-1
 31 0 l 1,7,-1
 35 41 l 1,8,9
 68 47 68 47 92 71 c 1,10,-1
 92 596 l 1,11,12
 71 614 71 614 31 628 c 1,13,-1
 35 667 l 1,14,-1
 232 667 l 1,15,-1
 508 183 l 1,16,-1
 508 596 l 1,17,18
 482 618 482 618 439 626 c 1,19,-1
 444 667 l 1,20,-1
 662 667 l 1,21,-1
 656 628 l 1,22,23
 617 616 617 616 595 596 c 1,24,-1
 595 0 l 1,0,-1
410 813 m 0,25,26
 440 813 440 813 469 852 c 1,27,28
 499 841 499 841 517 821 c 1,29,30
 473 726 473 726 406 726 c 0,31,32
 386 726 386 726 344 745.5 c 128,-1,33
 302 765 302 765 276 765 c 128,-1,34
 250 765 250 765 222 727 c 1,35,36
 192 739 192 739 174 759 c 1,37,38
 218 853 218 853 286 853 c 0,39,40
 306 853 306 853 348 833 c 128,-1,41
 390 813 390 813 410 813 c 0,25,26
EndSplineSet
EndChar

StartChar: Ograve
Encoding: 210 210 148
Width: 695
GlyphClass: 2
Flags: W
LayerCount: 2
Fore
SplineSet
245.5 553.5 m 128,-1,1
 214 487 214 487 214 334.5 c 128,-1,2
 214 182 214 182 245.5 115 c 128,-1,3
 277 48 277 48 347.5 48 c 128,-1,4
 418 48 418 48 449 115 c 128,-1,5
 480 182 480 182 480 334.5 c 128,-1,6
 480 487 480 487 449 553.5 c 128,-1,7
 418 620 418 620 347.5 620 c 128,-1,0
 277 620 277 620 245.5 553.5 c 128,-1,1
124.5 78 m 128,-1,9
 49 166 49 166 49 334.5 c 128,-1,10
 49 503 49 503 124.5 590.5 c 128,-1,11
 200 678 200 678 348 678 c 128,-1,12
 496 678 496 678 571 590.5 c 128,-1,13
 646 503 646 503 646 334.5 c 128,-1,14
 646 166 646 166 571 78 c 128,-1,15
 496 -10 496 -10 348 -10 c 128,-1,8
 200 -10 200 -10 124.5 78 c 128,-1,9
270 892 m 0,16,17
 304 892 304 892 327 858 c 2,18,-1
 407 739 l 1,19,-1
 373 706 l 1,20,-1
 256 789 l 2,21,22
 225 811 225 811 223 845 c 1,23,24
 223 866 223 866 236 879 c 128,-1,25
 249 892 249 892 270 892 c 0,16,17
EndSplineSet
EndChar

StartChar: Oacute
Encoding: 211 211 149
Width: 695
GlyphClass: 2
Flags: W
LayerCount: 2
Fore
SplineSet
245.5 553.5 m 128,-1,1
 214 487 214 487 214 334.5 c 128,-1,2
 214 182 214 182 245.5 115 c 128,-1,3
 277 48 277 48 347.5 48 c 128,-1,4
 418 48 418 48 449 115 c 128,-1,5
 480 182 480 182 480 334.5 c 128,-1,6
 480 487 480 487 449 553.5 c 128,-1,7
 418 620 418 620 347.5 620 c 128,-1,0
 277 620 277 620 245.5 553.5 c 128,-1,1
124.5 78 m 128,-1,9
 49 166 49 166 49 334.5 c 128,-1,10
 49 503 49 503 124.5 590.5 c 128,-1,11
 200 678 200 678 348 678 c 128,-1,12
 496 678 496 678 571 590.5 c 128,-1,13
 646 503 646 503 646 334.5 c 128,-1,14
 646 166 646 166 571 78 c 128,-1,15
 496 -10 496 -10 348 -10 c 128,-1,8
 200 -10 200 -10 124.5 78 c 128,-1,9
422 899 m 0,16,17
 443 899 443 899 455.5 886 c 128,-1,18
 468 873 468 873 468 852 c 0,19,20
 468 818 468 818 436 796 c 2,21,-1
 319 713 l 1,22,-1
 285 746 l 1,23,-1
 365 865 l 2,24,25
 387 899 387 899 422 899 c 0,16,17
EndSplineSet
EndChar

StartChar: Ocircumflex
Encoding: 212 212 150
Width: 695
GlyphClass: 2
Flags: W
LayerCount: 2
Fore
SplineSet
245.5 553.5 m 128,-1,1
 214 487 214 487 214 334.5 c 128,-1,2
 214 182 214 182 245.5 115 c 128,-1,3
 277 48 277 48 347.5 48 c 128,-1,4
 418 48 418 48 449 115 c 128,-1,5
 480 182 480 182 480 334.5 c 128,-1,6
 480 487 480 487 449 553.5 c 128,-1,7
 418 620 418 620 347.5 620 c 128,-1,0
 277 620 277 620 245.5 553.5 c 128,-1,1
124.5 78 m 128,-1,9
 49 166 49 166 49 334.5 c 128,-1,10
 49 503 49 503 124.5 590.5 c 128,-1,11
 200 678 200 678 348 678 c 128,-1,12
 496 678 496 678 571 590.5 c 128,-1,13
 646 503 646 503 646 334.5 c 128,-1,14
 646 166 646 166 571 78 c 128,-1,15
 496 -10 496 -10 348 -10 c 128,-1,8
 200 -10 200 -10 124.5 78 c 128,-1,9
293 849 m 2,16,17
 317 876 317 876 347 876 c 128,-1,18
 377 876 377 876 401 849 c 2,19,-1
 496 742 l 1,20,-1
 467 705 l 1,21,-1
 347 788 l 1,22,-1
 227 705 l 1,23,-1
 198 742 l 1,24,-1
 293 849 l 2,16,17
EndSplineSet
EndChar

StartChar: Otilde
Encoding: 213 213 151
Width: 695
GlyphClass: 2
Flags: W
LayerCount: 2
Fore
SplineSet
245.5 553.5 m 128,-1,1
 214 487 214 487 214 334.5 c 128,-1,2
 214 182 214 182 245.5 115 c 128,-1,3
 277 48 277 48 347.5 48 c 128,-1,4
 418 48 418 48 449 115 c 128,-1,5
 480 182 480 182 480 334.5 c 128,-1,6
 480 487 480 487 449 553.5 c 128,-1,7
 418 620 418 620 347.5 620 c 128,-1,0
 277 620 277 620 245.5 553.5 c 128,-1,1
124.5 78 m 128,-1,9
 49 166 49 166 49 334.5 c 128,-1,10
 49 503 49 503 124.5 590.5 c 128,-1,11
 200 678 200 678 348 678 c 128,-1,12
 496 678 496 678 571 590.5 c 128,-1,13
 646 503 646 503 646 334.5 c 128,-1,14
 646 166 646 166 571 78 c 128,-1,15
 496 -10 496 -10 348 -10 c 128,-1,8
 200 -10 200 -10 124.5 78 c 128,-1,9
351 833 m 128,-1,17
 392 813 392 813 417.5 813 c 128,-1,18
 443 813 443 813 472 852 c 1,19,20
 502 841 502 841 520 821 c 1,21,22
 476 726 476 726 409 726 c 0,23,24
 388 726 388 726 346 745.5 c 128,-1,25
 304 765 304 765 284 765 c 0,26,27
 254 765 254 765 225 727 c 1,28,29
 195 739 195 739 177 759 c 1,30,31
 221 853 221 853 289 853 c 0,32,16
 310 853 310 853 351 833 c 128,-1,17
EndSplineSet
EndChar

StartChar: Odieresis
Encoding: 214 214 152
Width: 695
GlyphClass: 2
Flags: W
LayerCount: 2
Fore
SplineSet
245.5 553.5 m 128,-1,1
 214 487 214 487 214 334.5 c 128,-1,2
 214 182 214 182 245.5 115 c 128,-1,3
 277 48 277 48 347.5 48 c 128,-1,4
 418 48 418 48 449 115 c 128,-1,5
 480 182 480 182 480 334.5 c 128,-1,6
 480 487 480 487 449 553.5 c 128,-1,7
 418 620 418 620 347.5 620 c 128,-1,0
 277 620 277 620 245.5 553.5 c 128,-1,1
124.5 78 m 128,-1,9
 49 166 49 166 49 334.5 c 128,-1,10
 49 503 49 503 124.5 590.5 c 128,-1,11
 200 678 200 678 348 678 c 128,-1,12
 496 678 496 678 571 590.5 c 128,-1,13
 646 503 646 503 646 334.5 c 128,-1,14
 646 166 646 166 571 78 c 128,-1,15
 496 -10 496 -10 348 -10 c 128,-1,8
 200 -10 200 -10 124.5 78 c 128,-1,9
331 774 m 0,16,17
 331 717 331 717 265.5 717 c 128,-1,18
 200 717 200 717 200 774 c 0,19,20
 200 829 200 829 265.5 829 c 128,-1,21
 331 829 331 829 331 774 c 0,16,17
495 774 m 0,22,23
 495 717 495 717 429 717 c 128,-1,24
 363 717 363 717 363 774 c 0,25,26
 363 829 363 829 429 829 c 128,-1,27
 495 829 495 829 495 774 c 0,22,23
EndSplineSet
EndChar

StartChar: multiply
Encoding: 215 215 153
Width: 592
GlyphClass: 2
Flags: W
LayerCount: 2
Fore
SplineSet
76 441 m 1,0,-1
 147 512 l 1,1,-1
 297 361 l 1,2,-1
 447 511 l 1,3,-1
 514 444 l 1,4,-1
 363 294 l 1,5,-1
 516 140 l 1,6,-1
 445 69 l 1,7,-1
 292 223 l 1,8,-1
 144 75 l 1,9,-1
 77 142 l 1,10,-1
 225 290 l 1,11,-1
 76 441 l 1,0,-1
EndSplineSet
EndChar

StartChar: Oslash
Encoding: 216 216 154
Width: 695
GlyphClass: 2
Flags: W
LayerCount: 2
Fore
SplineSet
114 90 m 1,0,1
 49 178 49 178 49 340.5 c 128,-1,2
 49 503 49 503 124.5 590.5 c 128,-1,3
 200 678 200 678 348 678 c 0,4,5
 447 678 447 678 517 636 c 1,6,-1
 562 697 l 1,7,-1
 626 649 l 1,8,-1
 577 583 l 1,9,10
 646 496 646 496 646 331 c 128,-1,11
 646 166 646 166 571 78 c 128,-1,12
 496 -10 496 -10 348 -10 c 0,13,14
 242 -10 242 -10 173 35 c 1,15,-1
 117 -41 l 1,16,-1
 53 7 l 1,17,-1
 114 90 l 1,0,1
480 335 m 0,18,19
 480 391 480 391 475 444 c 1,20,-1
 240 126 l 1,21,22
 272 48 272 48 345 48 c 128,-1,23
 418 48 418 48 449 115 c 128,-1,24
 480 182 480 182 480 335 c 0,18,19
214 335 m 0,25,26
 214 271 214 271 218 231 c 1,27,-1
 452 547 l 1,28,29
 421 620 421 620 349 620 c 128,-1,30
 277 620 277 620 245.5 553.5 c 128,-1,31
 214 487 214 487 214 335 c 0,25,26
EndSplineSet
EndChar

StartChar: Ugrave
Encoding: 217 217 155
Width: 676
GlyphClass: 2
Flags: W
LayerCount: 2
Fore
SplineSet
225 208 m 2,0,1
 225 60 225 60 365 60 c 0,2,3
 494 60 494 60 494 223 c 2,4,-1
 494 598 l 1,5,6
 475 613 475 613 418 626 c 1,7,-1
 423 667 l 1,8,-1
 661 667 l 1,9,-1
 655 628 l 1,10,11
 612 615 612 615 589 596 c 1,12,-1
 589 245 l 2,13,14
 589 152 589 152 565 99.5 c 128,-1,15
 541 47 541 47 481.5 20 c 128,-1,16
 422 -7 422 -7 344 -7 c 0,17,18
 78 -7 78 -7 78 208 c 2,19,-1
 78 596 l 1,20,21
 57 617 57 617 2 626 c 1,22,-1
 7 667 l 1,23,-1
 300 667 l 1,24,-1
 294 626 l 1,25,26
 250 617 250 617 225 596 c 1,27,-1
 225 208 l 2,0,1
265 892 m 0,28,29
 299 892 299 892 322 858 c 2,30,-1
 402 739 l 1,31,-1
 368 706 l 1,32,-1
 251 789 l 2,33,34
 220 811 220 811 218 845 c 1,35,36
 218 866 218 866 231 879 c 128,-1,37
 244 892 244 892 265 892 c 0,28,29
EndSplineSet
EndChar

StartChar: Uacute
Encoding: 218 218 156
Width: 676
GlyphClass: 2
Flags: W
LayerCount: 2
Fore
SplineSet
225 208 m 2,0,1
 225 60 225 60 365 60 c 0,2,3
 494 60 494 60 494 223 c 2,4,-1
 494 598 l 1,5,6
 475 613 475 613 418 626 c 1,7,-1
 423 667 l 1,8,-1
 661 667 l 1,9,-1
 655 628 l 1,10,11
 612 615 612 615 589 596 c 1,12,-1
 589 245 l 2,13,14
 589 152 589 152 565 99.5 c 128,-1,15
 541 47 541 47 481.5 20 c 128,-1,16
 422 -7 422 -7 344 -7 c 0,17,18
 78 -7 78 -7 78 208 c 2,19,-1
 78 596 l 1,20,21
 57 617 57 617 2 626 c 1,22,-1
 7 667 l 1,23,-1
 300 667 l 1,24,-1
 294 626 l 1,25,26
 250 617 250 617 225 596 c 1,27,-1
 225 208 l 2,0,1
417 899 m 0,28,29
 438 899 438 899 450.5 886 c 128,-1,30
 463 873 463 873 463 852 c 0,31,32
 463 818 463 818 431 796 c 2,33,-1
 314 713 l 1,34,-1
 280 746 l 1,35,-1
 360 865 l 2,36,37
 382 899 382 899 417 899 c 0,28,29
EndSplineSet
EndChar

StartChar: Ucircumflex
Encoding: 219 219 157
Width: 676
GlyphClass: 2
Flags: W
LayerCount: 2
Fore
SplineSet
225 208 m 2,0,1
 225 60 225 60 365 60 c 0,2,3
 494 60 494 60 494 223 c 2,4,-1
 494 598 l 1,5,6
 475 613 475 613 418 626 c 1,7,-1
 423 667 l 1,8,-1
 661 667 l 1,9,-1
 655 628 l 1,10,11
 612 615 612 615 589 596 c 1,12,-1
 589 245 l 2,13,14
 589 152 589 152 565 99.5 c 128,-1,15
 541 47 541 47 481.5 20 c 128,-1,16
 422 -7 422 -7 344 -7 c 0,17,18
 78 -7 78 -7 78 208 c 2,19,-1
 78 596 l 1,20,21
 57 617 57 617 2 626 c 1,22,-1
 7 667 l 1,23,-1
 300 667 l 1,24,-1
 294 626 l 1,25,26
 250 617 250 617 225 596 c 1,27,-1
 225 208 l 2,0,1
288 849 m 2,28,29
 312 876 312 876 342 876 c 128,-1,30
 372 876 372 876 396 849 c 2,31,-1
 491 742 l 1,32,-1
 462 705 l 1,33,-1
 342 788 l 1,34,-1
 222 705 l 1,35,-1
 193 742 l 1,36,-1
 288 849 l 2,28,29
EndSplineSet
EndChar

StartChar: Udieresis
Encoding: 220 220 158
Width: 676
GlyphClass: 2
Flags: W
LayerCount: 2
Fore
SplineSet
225 208 m 2,0,1
 225 60 225 60 365 60 c 0,2,3
 494 60 494 60 494 223 c 2,4,-1
 494 598 l 1,5,6
 475 613 475 613 418 626 c 1,7,-1
 423 667 l 1,8,-1
 661 667 l 1,9,-1
 655 628 l 1,10,11
 612 615 612 615 589 596 c 1,12,-1
 589 245 l 2,13,14
 589 152 589 152 565 99.5 c 128,-1,15
 541 47 541 47 481.5 20 c 128,-1,16
 422 -7 422 -7 344 -7 c 0,17,18
 78 -7 78 -7 78 208 c 2,19,-1
 78 596 l 1,20,21
 57 617 57 617 2 626 c 1,22,-1
 7 667 l 1,23,-1
 300 667 l 1,24,-1
 294 626 l 1,25,26
 250 617 250 617 225 596 c 1,27,-1
 225 208 l 2,0,1
326 774 m 0,28,29
 326 717 326 717 260.5 717 c 128,-1,30
 195 717 195 717 195 774 c 0,31,32
 195 829 195 829 260.5 829 c 128,-1,33
 326 829 326 829 326 774 c 0,28,29
490 774 m 0,34,35
 490 717 490 717 424 717 c 128,-1,36
 358 717 358 717 358 774 c 0,37,38
 358 829 358 829 424 829 c 128,-1,39
 490 829 490 829 490 774 c 0,34,35
EndSplineSet
EndChar

StartChar: Yacute
Encoding: 221 221 159
Width: 604
GlyphClass: 2
Flags: W
LayerCount: 2
Fore
SplineSet
65 593 m 1,0,1
 52 617 52 617 5 627 c 1,2,-1
 10 667 l 1,3,-1
 281 667 l 1,4,-1
 275 627 l 1,5,6
 233 625 233 625 213 605 c 1,7,-1
 332 357 l 1,8,-1
 454 597 l 1,9,10
 428 620 428 620 374 627 c 1,11,-1
 379 667 l 1,12,-1
 603 667 l 1,13,-1
 598 627 l 1,14,15
 554 625 554 625 538 605 c 1,16,-1
 367 268 l 1,17,-1
 367 71 l 1,18,19
 390 50 390 50 442 39 c 1,20,-1
 435 0 l 1,21,-1
 159 0 l 1,22,-1
 163 41 l 1,23,24
 202 47 202 47 220 66 c 1,25,-1
 220 269 l 1,26,-1
 65 593 l 1,0,1
399 899 m 0,27,28
 420 899 420 899 432.5 886 c 128,-1,29
 445 873 445 873 445 852 c 0,30,31
 445 818 445 818 413 796 c 2,32,-1
 296 713 l 1,33,-1
 262 746 l 1,34,-1
 342 865 l 2,35,36
 364 899 364 899 399 899 c 0,27,28
EndSplineSet
EndChar

StartChar: Thorn
Encoding: 222 222 160
Width: 617
GlyphClass: 2
Flags: W
LayerCount: 2
Fore
SplineSet
313 213 m 2,0,-1
 248 213 l 1,1,-1
 247 150 l 1,2,-1
 312 150 l 2,3,4
 445 150 445 150 516 202 c 128,-1,5
 587 254 587 254 587 351 c 0,6,7
 587 537 587 537 326 537 c 2,8,-1
 244 537 l 1,9,-1
 248 472 l 1,10,11
 273 476 273 476 321 476 c 128,-1,12
 369 476 369 476 400.5 443 c 128,-1,13
 432 410 432 410 432 349 c 0,14,15
 432 213 432 213 313 213 c 2,0,-1
25 626 m 1,16,-1
 30 667 l 1,17,-1
 323 667 l 1,18,-1
 317 626 l 1,19,20
 274 618 274 618 248 596 c 1,21,-1
 248 71 l 1,22,23
 268 52 268 52 323 41 c 1,24,-1
 316 0 l 1,25,-1
 25 0 l 1,26,-1
 29 41 l 1,27,28
 74 48 74 48 101 71 c 1,29,-1
 101 596 l 1,30,31
 79 618 79 618 25 626 c 1,16,-1
EndSplineSet
EndChar

StartChar: germandbls
Encoding: 223 223 161
Width: 677
GlyphClass: 2
Flags: W
LayerCount: 2
Fore
SplineSet
431 -5 m 0,0,1
 268 -5 268 -5 268 87 c 0,2,3
 268 118 268 118 287.5 136 c 128,-1,4
 307 154 307 154 334 154 c 128,-1,5
 361 154 361 154 386 134 c 1,6,7
 373 121 373 121 373 97.5 c 128,-1,8
 373 74 373 74 387.5 61 c 128,-1,9
 402 48 402 48 423 48 c 0,10,11
 489 48 489 48 489 171 c 0,12,13
 489 241 489 241 443 278 c 128,-1,14
 397 315 397 315 293 328 c 1,15,-1
 293 401 l 1,16,17
 334 409 334 409 368.5 451.5 c 128,-1,18
 403 494 403 494 403 538 c 128,-1,19
 403 582 403 582 381 607 c 128,-1,20
 359 632 359 632 316 632 c 0,21,22
 246 632 246 632 231 562 c 0,23,24
 224 528 224 528 224 470 c 2,25,-1
 224 0 l 1,26,-1
 14 0 l 1,27,-1
 18 36 l 1,28,29
 61 43 61 43 84 62 c 1,30,-1
 84 515 l 2,31,32
 84 599 84 599 147 642.5 c 128,-1,33
 210 686 210 686 318 686 c 128,-1,34
 426 686 426 686 488.5 649 c 128,-1,35
 551 612 551 612 551 535 c 0,36,37
 551 487 551 487 506 442 c 128,-1,38
 461 397 461 397 388 371 c 1,39,40
 503 351 503 351 569.5 298 c 128,-1,41
 636 245 636 245 636 170.5 c 128,-1,42
 636 96 636 96 576.5 45.5 c 128,-1,43
 517 -5 517 -5 431 -5 c 0,0,1
EndSplineSet
EndChar

StartChar: agrave
Encoding: 224 224 162
Width: 535
GlyphClass: 2
Flags: W
LayerCount: 2
Fore
SplineSet
172 -7 m 0,0,1
 103 -7 103 -7 66 25 c 128,-1,2
 29 57 29 57 29 118 c 0,3,4
 29 251 29 251 226 265 c 2,5,-1
 314 271 l 1,6,-1
 314 329 l 2,7,8
 314 399 314 399 297.5 426 c 128,-1,9
 281 453 281 453 246.5 453 c 128,-1,10
 212 453 212 453 193.5 438.5 c 128,-1,11
 175 424 175 424 175 400.5 c 128,-1,12
 175 377 175 377 197 360 c 1,13,14
 192 335 192 335 173 320 c 128,-1,15
 154 305 154 305 124 305 c 128,-1,16
 94 305 94 305 72 326 c 128,-1,17
 50 347 50 347 50 378 c 0,18,19
 50 431 50 431 100.5 461.5 c 128,-1,20
 151 492 151 492 240 492 c 0,21,22
 455 492 455 492 455 334 c 2,23,-1
 455 62 l 1,24,25
 472 43 472 43 515 35 c 1,26,-1
 511 0 l 1,27,-1
 331 0 l 1,28,-1
 321 57 l 1,29,30
 257 -7 257 -7 172 -7 c 0,0,1
185 193 m 128,-1,32
 161 172 161 172 161 134 c 0,33,34
 161 58 161 58 221 58 c 0,35,36
 267 58 267 58 314 113 c 1,37,-1
 314 222 l 1,38,-1
 264 218 l 2,39,31
 209 214 209 214 185 193 c 128,-1,32
185 702 m 0,40,41
 219 702 219 702 242 668 c 2,42,-1
 322 549 l 1,43,-1
 288 516 l 1,44,-1
 171 599 l 2,45,46
 140 621 140 621 138 655 c 1,47,48
 138 676 138 676 151 689 c 128,-1,49
 164 702 164 702 185 702 c 0,40,41
EndSplineSet
EndChar

StartChar: aacute
Encoding: 225 225 163
Width: 535
GlyphClass: 2
Flags: W
LayerCount: 2
Fore
SplineSet
172 -7 m 0,0,1
 103 -7 103 -7 66 25 c 128,-1,2
 29 57 29 57 29 118 c 0,3,4
 29 251 29 251 226 265 c 2,5,-1
 314 271 l 1,6,-1
 314 329 l 2,7,8
 314 399 314 399 297.5 426 c 128,-1,9
 281 453 281 453 246.5 453 c 128,-1,10
 212 453 212 453 193.5 438.5 c 128,-1,11
 175 424 175 424 175 400.5 c 128,-1,12
 175 377 175 377 197 360 c 1,13,14
 192 335 192 335 173 320 c 128,-1,15
 154 305 154 305 124 305 c 128,-1,16
 94 305 94 305 72 326 c 128,-1,17
 50 347 50 347 50 378 c 0,18,19
 50 431 50 431 100.5 461.5 c 128,-1,20
 151 492 151 492 240 492 c 0,21,22
 455 492 455 492 455 334 c 2,23,-1
 455 62 l 1,24,25
 472 43 472 43 515 35 c 1,26,-1
 511 0 l 1,27,-1
 331 0 l 1,28,-1
 321 57 l 1,29,30
 257 -7 257 -7 172 -7 c 0,0,1
185 193 m 128,-1,32
 161 172 161 172 161 134 c 0,33,34
 161 58 161 58 221 58 c 0,35,36
 267 58 267 58 314 113 c 1,37,-1
 314 222 l 1,38,-1
 264 218 l 2,39,31
 209 214 209 214 185 193 c 128,-1,32
337 709 m 0,40,41
 358 709 358 709 370.5 696 c 128,-1,42
 383 683 383 683 383 662 c 0,43,44
 383 628 383 628 351 606 c 2,45,-1
 234 523 l 1,46,-1
 200 556 l 1,47,-1
 280 675 l 2,48,49
 302 709 302 709 337 709 c 0,40,41
EndSplineSet
EndChar

StartChar: acircumflex
Encoding: 226 226 164
Width: 535
GlyphClass: 2
Flags: W
LayerCount: 2
Fore
SplineSet
172 -7 m 0,0,1
 103 -7 103 -7 66 25 c 128,-1,2
 29 57 29 57 29 118 c 0,3,4
 29 251 29 251 226 265 c 2,5,-1
 314 271 l 1,6,-1
 314 329 l 2,7,8
 314 399 314 399 297.5 426 c 128,-1,9
 281 453 281 453 246.5 453 c 128,-1,10
 212 453 212 453 193.5 438.5 c 128,-1,11
 175 424 175 424 175 400.5 c 128,-1,12
 175 377 175 377 197 360 c 1,13,14
 192 335 192 335 173 320 c 128,-1,15
 154 305 154 305 124 305 c 128,-1,16
 94 305 94 305 72 326 c 128,-1,17
 50 347 50 347 50 378 c 0,18,19
 50 431 50 431 100.5 461.5 c 128,-1,20
 151 492 151 492 240 492 c 0,21,22
 455 492 455 492 455 334 c 2,23,-1
 455 62 l 1,24,25
 472 43 472 43 515 35 c 1,26,-1
 511 0 l 1,27,-1
 331 0 l 1,28,-1
 321 57 l 1,29,30
 257 -7 257 -7 172 -7 c 0,0,1
185 193 m 128,-1,32
 161 172 161 172 161 134 c 0,33,34
 161 58 161 58 221 58 c 0,35,36
 267 58 267 58 314 113 c 1,37,-1
 314 222 l 1,38,-1
 264 218 l 2,39,31
 209 214 209 214 185 193 c 128,-1,32
208 659 m 2,40,41
 232 686 232 686 262 686 c 128,-1,42
 292 686 292 686 316 659 c 2,43,-1
 411 552 l 1,44,-1
 382 515 l 1,45,-1
 262 598 l 1,46,-1
 142 515 l 1,47,-1
 113 552 l 1,48,-1
 208 659 l 2,40,41
EndSplineSet
EndChar

StartChar: atilde
Encoding: 227 227 165
Width: 535
GlyphClass: 2
Flags: W
LayerCount: 2
Fore
SplineSet
172 -7 m 0,0,1
 103 -7 103 -7 66 25 c 128,-1,2
 29 57 29 57 29 118 c 0,3,4
 29 251 29 251 226 265 c 2,5,-1
 314 271 l 1,6,-1
 314 329 l 2,7,8
 314 399 314 399 297.5 426 c 128,-1,9
 281 453 281 453 246.5 453 c 128,-1,10
 212 453 212 453 193.5 438.5 c 128,-1,11
 175 424 175 424 175 400.5 c 128,-1,12
 175 377 175 377 197 360 c 1,13,14
 192 335 192 335 173 320 c 128,-1,15
 154 305 154 305 124 305 c 128,-1,16
 94 305 94 305 72 326 c 128,-1,17
 50 347 50 347 50 378 c 0,18,19
 50 431 50 431 100.5 461.5 c 128,-1,20
 151 492 151 492 240 492 c 0,21,22
 455 492 455 492 455 334 c 2,23,-1
 455 62 l 1,24,25
 472 43 472 43 515 35 c 1,26,-1
 511 0 l 1,27,-1
 331 0 l 1,28,-1
 321 57 l 1,29,30
 257 -7 257 -7 172 -7 c 0,0,1
185 193 m 128,-1,32
 161 172 161 172 161 134 c 0,33,34
 161 58 161 58 221 58 c 0,35,36
 267 58 267 58 314 113 c 1,37,-1
 314 222 l 1,38,-1
 264 218 l 2,39,31
 209 214 209 214 185 193 c 128,-1,32
328 623 m 0,40,41
 358 623 358 623 387 662 c 1,42,43
 417 651 417 651 435 631 c 1,44,45
 391 536 391 536 324 536 c 0,46,47
 304 536 304 536 262 555.5 c 128,-1,48
 220 575 220 575 194 575 c 128,-1,49
 168 575 168 575 140 537 c 1,50,51
 110 549 110 549 92 569 c 1,52,53
 136 663 136 663 204 663 c 0,54,55
 224 663 224 663 266 643 c 128,-1,56
 308 623 308 623 328 623 c 0,40,41
EndSplineSet
EndChar

StartChar: adieresis
Encoding: 228 228 166
Width: 535
GlyphClass: 2
Flags: W
LayerCount: 2
Fore
SplineSet
172 -7 m 0,0,1
 103 -7 103 -7 66 25 c 128,-1,2
 29 57 29 57 29 118 c 0,3,4
 29 251 29 251 226 265 c 2,5,-1
 314 271 l 1,6,-1
 314 329 l 2,7,8
 314 399 314 399 297.5 426 c 128,-1,9
 281 453 281 453 246.5 453 c 128,-1,10
 212 453 212 453 193.5 438.5 c 128,-1,11
 175 424 175 424 175 400.5 c 128,-1,12
 175 377 175 377 197 360 c 1,13,14
 192 335 192 335 173 320 c 128,-1,15
 154 305 154 305 124 305 c 128,-1,16
 94 305 94 305 72 326 c 128,-1,17
 50 347 50 347 50 378 c 0,18,19
 50 431 50 431 100.5 461.5 c 128,-1,20
 151 492 151 492 240 492 c 0,21,22
 455 492 455 492 455 334 c 2,23,-1
 455 62 l 1,24,25
 472 43 472 43 515 35 c 1,26,-1
 511 0 l 1,27,-1
 331 0 l 1,28,-1
 321 57 l 1,29,30
 257 -7 257 -7 172 -7 c 0,0,1
185 193 m 128,-1,32
 161 172 161 172 161 134 c 0,33,34
 161 58 161 58 221 58 c 0,35,36
 267 58 267 58 314 113 c 1,37,-1
 314 222 l 1,38,-1
 264 218 l 2,39,31
 209 214 209 214 185 193 c 128,-1,32
246 607 m 0,40,41
 246 550 246 550 180.5 550 c 128,-1,42
 115 550 115 550 115 607 c 0,43,44
 115 662 115 662 180.5 662 c 128,-1,45
 246 662 246 662 246 607 c 0,40,41
410 607 m 0,46,47
 410 550 410 550 344 550 c 128,-1,48
 278 550 278 550 278 607 c 0,49,50
 278 662 278 662 344 662 c 128,-1,51
 410 662 410 662 410 607 c 0,46,47
EndSplineSet
EndChar

StartChar: aring
Encoding: 229 229 167
Width: 535
GlyphClass: 2
Flags: W
LayerCount: 2
Fore
SplineSet
172 -7 m 0,0,1
 103 -7 103 -7 66 25 c 128,-1,2
 29 57 29 57 29 118 c 0,3,4
 29 251 29 251 226 265 c 2,5,-1
 314 271 l 1,6,-1
 314 329 l 2,7,8
 314 399 314 399 297.5 426 c 128,-1,9
 281 453 281 453 246.5 453 c 128,-1,10
 212 453 212 453 193.5 438.5 c 128,-1,11
 175 424 175 424 175 400.5 c 128,-1,12
 175 377 175 377 197 360 c 1,13,14
 192 335 192 335 173 320 c 128,-1,15
 154 305 154 305 124 305 c 128,-1,16
 94 305 94 305 72 326 c 128,-1,17
 50 347 50 347 50 378 c 0,18,19
 50 431 50 431 100.5 461.5 c 128,-1,20
 151 492 151 492 240 492 c 0,21,22
 455 492 455 492 455 334 c 2,23,-1
 455 62 l 1,24,25
 472 43 472 43 515 35 c 1,26,-1
 511 0 l 1,27,-1
 331 0 l 1,28,-1
 321 57 l 1,29,30
 257 -7 257 -7 172 -7 c 0,0,1
185 193 m 128,-1,32
 161 172 161 172 161 134 c 0,33,34
 161 58 161 58 221 58 c 0,35,36
 267 58 267 58 314 113 c 1,37,-1
 314 222 l 1,38,-1
 264 218 l 2,39,31
 209 214 209 214 185 193 c 128,-1,32
151 616 m 128,-1,41
 151 660 151 660 181.5 689.5 c 128,-1,42
 212 719 212 719 263 719 c 128,-1,43
 314 719 314 719 345 689.5 c 128,-1,44
 376 660 376 660 376 616 c 128,-1,45
 376 572 376 572 345 543 c 128,-1,46
 314 514 314 514 263 514 c 128,-1,47
 212 514 212 514 181.5 543 c 128,-1,40
 151 572 151 572 151 616 c 128,-1,41
223 616.5 m 128,-1,49
 223 561 223 561 263.5 561 c 128,-1,50
 304 561 304 561 304 616.5 c 128,-1,51
 304 672 304 672 263.5 672 c 128,-1,48
 223 672 223 672 223 616.5 c 128,-1,49
EndSplineSet
EndChar

StartChar: ae
Encoding: 230 230 168
Width: 794
GlyphClass: 2
Flags: W
LayerCount: 2
Fore
SplineSet
458 243 m 1,0,-1
 458 227 l 2,1,2
 458 143 458 143 482 102.5 c 128,-1,3
 506 62 506 62 572 62 c 0,4,5
 656 62 656 62 710 117 c 1,6,-1
 750 78 l 1,7,8
 709 37 709 37 664.5 15 c 128,-1,9
 620 -7 620 -7 548 -7 c 0,10,11
 418 -7 418 -7 358 77 c 1,12,13
 329 41 329 41 278 17 c 128,-1,14
 227 -7 227 -7 165 -7 c 128,-1,15
 103 -7 103 -7 66 25 c 128,-1,16
 29 57 29 57 29 118 c 0,17,18
 29 251 29 251 226 265 c 2,19,-1
 314 271 l 1,20,-1
 314 329 l 2,21,22
 314 399 314 399 297.5 426 c 128,-1,23
 281 453 281 453 246.5 453 c 128,-1,24
 212 453 212 453 193.5 438.5 c 128,-1,25
 175 424 175 424 175 400.5 c 128,-1,26
 175 377 175 377 197 360 c 1,27,28
 192 335 192 335 173 320 c 128,-1,29
 154 305 154 305 124 305 c 128,-1,30
 94 305 94 305 72 326 c 128,-1,31
 50 347 50 347 50 378 c 0,32,33
 50 431 50 431 100.5 461.5 c 128,-1,34
 151 492 151 492 250.5 492 c 128,-1,35
 350 492 350 492 405 449 c 1,36,37
 463 492 463 492 565.5 492 c 128,-1,38
 668 492 668 492 715 440 c 128,-1,39
 762 388 762 388 768 285 c 1,40,-1
 740 243 l 1,41,-1
 458 243 l 1,0,-1
552 443 m 0,42,43
 461 443 461 443 458 283 c 1,44,-1
 626 291 l 1,45,46
 626 371 626 371 610 407 c 128,-1,47
 594 443 594 443 552 443 c 0,42,43
185 193 m 128,-1,49
 161 172 161 172 161 134 c 0,50,51
 161 58 161 58 221 58 c 0,52,53
 267 58 267 58 314 113 c 1,54,-1
 314 222 l 1,55,-1
 264 218 l 2,56,48
 209 214 209 214 185 193 c 128,-1,49
EndSplineSet
EndChar

StartChar: ccedilla
Encoding: 231 231 169
Width: 469
GlyphClass: 2
Flags: W
LayerCount: 2
Fore
SplineSet
464 68 m 1,0,-1
 428 104 l 1,1,2
 370 51 370 51 307 51 c 128,-1,3
 244 51 244 51 217.5 96 c 128,-1,4
 191 141 191 141 191 248 c 0,5,6
 191 443 191 443 271 443 c 0,7,8
 292 443 292 443 306 431 c 128,-1,9
 320 419 320 419 320 398.5 c 128,-1,10
 320 378 320 378 308 360 c 1,11,12
 314 342 314 342 333.5 330 c 128,-1,13
 353 318 353 318 381 318 c 128,-1,14
 409 318 409 318 431.5 338 c 128,-1,15
 454 358 454 358 454 387 c 0,16,17
 454 432 454 432 405.5 460.5 c 128,-1,18
 357 489 357 489 280 489 c 0,19,20
 165 489 165 489 104.5 424.5 c 128,-1,21
 44 360 44 360 44 238.5 c 128,-1,22
 44 117 44 117 104 55 c 128,-1,23
 164 -7 164 -7 278 -7 c 128,-1,24
 392 -7 392 -7 464 68 c 1,0,-1
338.5 -67 m 128,-1,26
 356 -85 356 -85 356 -121 c 128,-1,27
 356 -157 356 -157 325.5 -183.5 c 128,-1,28
 295 -210 295 -210 246.5 -210 c 128,-1,29
 198 -210 198 -210 171.5 -185.5 c 128,-1,30
 145 -161 145 -161 145 -136.5 c 128,-1,31
 145 -112 145 -112 157.5 -99.5 c 128,-1,32
 170 -87 170 -87 187.5 -87 c 128,-1,33
 205 -87 205 -87 223 -96 c 1,34,35
 214 -106 214 -106 214 -124 c 128,-1,36
 214 -142 214 -142 222.5 -155 c 128,-1,37
 231 -168 231 -168 246 -168 c 0,38,39
 282 -168 282 -168 282 -123.5 c 128,-1,40
 282 -79 282 -79 223 -73 c 1,41,-1
 202 -49 l 1,42,-1
 256 16 l 1,43,-1
 295 7 l 1,44,-1
 287 -39 l 1,45,25
 321 -49 321 -49 338.5 -67 c 128,-1,26
EndSplineSet
EndChar

StartChar: egrave
Encoding: 232 232 170
Width: 531
GlyphClass: 2
Flags: W
LayerCount: 2
Fore
SplineSet
186 243 m 1,0,-1
 186 227 l 2,1,2
 186 143 186 143 210 102.5 c 128,-1,3
 234 62 234 62 300 62 c 0,4,5
 384 62 384 62 438 117 c 1,6,-1
 478 78 l 1,7,8
 437 37 437 37 392.5 15 c 128,-1,9
 348 -7 348 -7 276 -7 c 0,10,11
 160 -7 160 -7 101.5 58.5 c 128,-1,12
 43 124 43 124 43 240.5 c 128,-1,13
 43 357 43 357 105 424.5 c 128,-1,14
 167 492 167 492 281.5 492 c 128,-1,15
 396 492 396 492 443 440 c 128,-1,16
 490 388 490 388 496 285 c 1,17,-1
 468 243 l 1,18,-1
 186 243 l 1,0,-1
280 443 m 0,19,20
 189 443 189 443 186 283 c 1,21,-1
 354 291 l 1,22,23
 354 371 354 371 338 407 c 128,-1,24
 322 443 322 443 280 443 c 0,19,20
212 702 m 0,25,26
 246 702 246 702 269 668 c 2,27,-1
 349 549 l 1,28,-1
 315 516 l 1,29,-1
 198 599 l 2,30,31
 167 621 167 621 165 655 c 1,32,33
 165 676 165 676 178 689 c 128,-1,34
 191 702 191 702 212 702 c 0,25,26
EndSplineSet
EndChar

StartChar: eacute
Encoding: 233 233 171
Width: 531
GlyphClass: 2
Flags: W
LayerCount: 2
Fore
SplineSet
186 243 m 1,0,-1
 186 227 l 2,1,2
 186 143 186 143 210 102.5 c 128,-1,3
 234 62 234 62 300 62 c 0,4,5
 384 62 384 62 438 117 c 1,6,-1
 478 78 l 1,7,8
 437 37 437 37 392.5 15 c 128,-1,9
 348 -7 348 -7 276 -7 c 0,10,11
 160 -7 160 -7 101.5 58.5 c 128,-1,12
 43 124 43 124 43 240.5 c 128,-1,13
 43 357 43 357 105 424.5 c 128,-1,14
 167 492 167 492 281.5 492 c 128,-1,15
 396 492 396 492 443 440 c 128,-1,16
 490 388 490 388 496 285 c 1,17,-1
 468 243 l 1,18,-1
 186 243 l 1,0,-1
280 443 m 0,19,20
 189 443 189 443 186 283 c 1,21,-1
 354 291 l 1,22,23
 354 371 354 371 338 407 c 128,-1,24
 322 443 322 443 280 443 c 0,19,20
364 709 m 0,25,26
 385 709 385 709 397.5 696 c 128,-1,27
 410 683 410 683 410 662 c 0,28,29
 410 628 410 628 378 606 c 2,30,-1
 261 523 l 1,31,-1
 227 556 l 1,32,-1
 307 675 l 2,33,34
 329 709 329 709 364 709 c 0,25,26
EndSplineSet
EndChar

StartChar: ecircumflex
Encoding: 234 234 172
Width: 531
GlyphClass: 2
Flags: W
LayerCount: 2
Fore
SplineSet
186 243 m 1,0,-1
 186 227 l 2,1,2
 186 143 186 143 210 102.5 c 128,-1,3
 234 62 234 62 300 62 c 0,4,5
 384 62 384 62 438 117 c 1,6,-1
 478 78 l 1,7,8
 437 37 437 37 392.5 15 c 128,-1,9
 348 -7 348 -7 276 -7 c 0,10,11
 160 -7 160 -7 101.5 58.5 c 128,-1,12
 43 124 43 124 43 240.5 c 128,-1,13
 43 357 43 357 105 424.5 c 128,-1,14
 167 492 167 492 281.5 492 c 128,-1,15
 396 492 396 492 443 440 c 128,-1,16
 490 388 490 388 496 285 c 1,17,-1
 468 243 l 1,18,-1
 186 243 l 1,0,-1
280 443 m 0,19,20
 189 443 189 443 186 283 c 1,21,-1
 354 291 l 1,22,23
 354 371 354 371 338 407 c 128,-1,24
 322 443 322 443 280 443 c 0,19,20
235 659 m 2,25,26
 259 686 259 686 289 686 c 128,-1,27
 319 686 319 686 343 659 c 2,28,-1
 438 552 l 1,29,-1
 409 515 l 1,30,-1
 289 598 l 1,31,-1
 169 515 l 1,32,-1
 140 552 l 1,33,-1
 235 659 l 2,25,26
EndSplineSet
EndChar

StartChar: edieresis
Encoding: 235 235 173
Width: 531
GlyphClass: 2
Flags: W
LayerCount: 2
Fore
SplineSet
186 243 m 1,0,-1
 186 227 l 2,1,2
 186 143 186 143 210 102.5 c 128,-1,3
 234 62 234 62 300 62 c 0,4,5
 384 62 384 62 438 117 c 1,6,-1
 478 78 l 1,7,8
 437 37 437 37 392.5 15 c 128,-1,9
 348 -7 348 -7 276 -7 c 0,10,11
 160 -7 160 -7 101.5 58.5 c 128,-1,12
 43 124 43 124 43 240.5 c 128,-1,13
 43 357 43 357 105 424.5 c 128,-1,14
 167 492 167 492 281.5 492 c 128,-1,15
 396 492 396 492 443 440 c 128,-1,16
 490 388 490 388 496 285 c 1,17,-1
 468 243 l 1,18,-1
 186 243 l 1,0,-1
280 443 m 0,19,20
 189 443 189 443 186 283 c 1,21,-1
 354 291 l 1,22,23
 354 371 354 371 338 407 c 128,-1,24
 322 443 322 443 280 443 c 0,19,20
273 607 m 0,25,26
 273 550 273 550 207.5 550 c 128,-1,27
 142 550 142 550 142 607 c 0,28,29
 142 662 142 662 207.5 662 c 128,-1,30
 273 662 273 662 273 607 c 0,25,26
437 607 m 0,31,32
 437 550 437 550 371 550 c 128,-1,33
 305 550 305 550 305 607 c 0,34,35
 305 662 305 662 371 662 c 128,-1,36
 437 662 437 662 437 607 c 0,31,32
EndSplineSet
EndChar

StartChar: igrave
Encoding: 236 236 174
Width: 314
GlyphClass: 2
Flags: W
LayerCount: 2
Fore
SplineSet
93 354 m 2,0,1
 93 390 93 390 79.5 403.5 c 128,-1,2
 66 417 66 417 31 419 c 1,3,-1
 34 458 l 1,4,5
 47 461 47 461 88 468 c 0,6,7
 185 483 185 483 217 492 c 1,8,-1
 234 483 l 1,9,-1
 234 66 l 1,10,11
 259 47 259 47 298 39 c 1,12,-1
 294 0 l 1,13,-1
 37 0 l 1,14,-1
 41 41 l 1,15,16
 74 48 74 48 93 66 c 1,17,-1
 93 354 l 2,0,1
75 702 m 0,18,19
 109 702 109 702 132 668 c 2,20,-1
 212 549 l 1,21,-1
 178 516 l 1,22,-1
 61 599 l 2,23,24
 30 621 30 621 28 655 c 1,25,26
 28 676 28 676 41 689 c 128,-1,27
 54 702 54 702 75 702 c 0,18,19
EndSplineSet
EndChar

StartChar: iacute
Encoding: 237 237 175
Width: 314
GlyphClass: 2
Flags: W
LayerCount: 2
Fore
SplineSet
93 354 m 2,0,1
 93 390 93 390 79.5 403.5 c 128,-1,2
 66 417 66 417 31 419 c 1,3,-1
 34 458 l 1,4,5
 47 461 47 461 88 468 c 0,6,7
 185 483 185 483 217 492 c 1,8,-1
 234 483 l 1,9,-1
 234 66 l 1,10,11
 259 47 259 47 298 39 c 1,12,-1
 294 0 l 1,13,-1
 37 0 l 1,14,-1
 41 41 l 1,15,16
 74 48 74 48 93 66 c 1,17,-1
 93 354 l 2,0,1
227 709 m 0,18,19
 248 709 248 709 260.5 696 c 128,-1,20
 273 683 273 683 273 662 c 0,21,22
 273 628 273 628 241 606 c 2,23,-1
 124 523 l 1,24,-1
 90 556 l 1,25,-1
 170 675 l 2,26,27
 192 709 192 709 227 709 c 0,18,19
EndSplineSet
EndChar

StartChar: icircumflex
Encoding: 238 238 176
Width: 314
GlyphClass: 2
Flags: W
LayerCount: 2
Fore
SplineSet
93 354 m 2,0,1
 93 390 93 390 79.5 403.5 c 128,-1,2
 66 417 66 417 31 419 c 1,3,-1
 34 458 l 1,4,5
 47 461 47 461 88 468 c 0,6,7
 185 483 185 483 217 492 c 1,8,-1
 234 483 l 1,9,-1
 234 66 l 1,10,11
 259 47 259 47 298 39 c 1,12,-1
 294 0 l 1,13,-1
 37 0 l 1,14,-1
 41 41 l 1,15,16
 74 48 74 48 93 66 c 1,17,-1
 93 354 l 2,0,1
98 659 m 2,18,19
 122 686 122 686 152 686 c 128,-1,20
 182 686 182 686 206 659 c 2,21,-1
 301 552 l 1,22,-1
 272 515 l 1,23,-1
 152 598 l 1,24,-1
 32 515 l 1,25,-1
 3 552 l 1,26,-1
 98 659 l 2,18,19
EndSplineSet
EndChar

StartChar: idieresis
Encoding: 239 239 177
Width: 314
GlyphClass: 2
Flags: W
LayerCount: 2
Fore
SplineSet
93 354 m 2,0,1
 93 390 93 390 79.5 403.5 c 128,-1,2
 66 417 66 417 31 419 c 1,3,-1
 34 458 l 1,4,5
 47 461 47 461 88 468 c 0,6,7
 185 483 185 483 217 492 c 1,8,-1
 234 483 l 1,9,-1
 234 66 l 1,10,11
 259 47 259 47 298 39 c 1,12,-1
 294 0 l 1,13,-1
 37 0 l 1,14,-1
 41 41 l 1,15,16
 74 48 74 48 93 66 c 1,17,-1
 93 354 l 2,0,1
136 607 m 0,18,19
 136 550 136 550 70.5 550 c 128,-1,20
 5 550 5 550 5 607 c 0,21,22
 5 662 5 662 70.5 662 c 128,-1,23
 136 662 136 662 136 607 c 0,18,19
300 607 m 0,24,25
 300 550 300 550 234 550 c 128,-1,26
 168 550 168 550 168 607 c 0,27,28
 168 662 168 662 234 662 c 128,-1,29
 300 662 300 662 300 607 c 0,24,25
EndSplineSet
EndChar

StartChar: eth
Encoding: 240 240 178
Width: 572
GlyphClass: 2
Flags: W
LayerCount: 2
Fore
SplineSet
516 267 m 2,0,-1
 516 235 l 2,1,2
 516 117 516 117 452.5 55 c 128,-1,3
 389 -7 389 -7 275.5 -7 c 128,-1,4
 162 -7 162 -7 98.5 53 c 128,-1,5
 35 113 35 113 35 230.5 c 128,-1,6
 35 348 35 348 99.5 412 c 128,-1,7
 164 476 164 476 289 476 c 0,8,9
 316 476 316 476 340 470 c 1,10,11
 321 520 321 520 285 556 c 1,12,-1
 149 505 l 1,13,-1
 127 559 l 1,14,-1
 229 600 l 1,15,16
 191 625 191 625 126 651 c 1,17,-1
 150 700 l 1,18,19
 242 677 242 677 316 635 c 1,20,-1
 423 678 l 1,21,-1
 448 617 l 1,22,-1
 378 591 l 1,23,24
 516 474 516 474 516 267 c 2,0,-1
369 278 m 2,25,26
 369 349 369 349 358 407 c 1,27,28
 328 420 328 420 282.5 420 c 128,-1,29
 237 420 237 420 209.5 369.5 c 128,-1,30
 182 319 182 319 182 228 c 0,31,32
 182 49 182 49 275 49 c 0,33,34
 326 49 326 49 347.5 95 c 128,-1,35
 369 141 369 141 369 239 c 2,36,-1
 369 278 l 2,25,26
EndSplineSet
EndChar

StartChar: ntilde
Encoding: 241 241 179
Width: 604
GlyphClass: 2
Flags: W
LayerCount: 2
Fore
SplineSet
382 329 m 2,0,1
 382 425 382 425 320 425 c 0,2,3
 294 425 294 425 269.5 410 c 128,-1,4
 245 395 245 395 231 370 c 1,5,-1
 231 66 l 1,6,7
 254 48 254 48 291 39 c 1,8,-1
 287 0 l 1,9,-1
 34 0 l 1,10,-1
 37 41 l 1,11,12
 69 47 69 47 90 66 c 1,13,-1
 90 354 l 2,14,15
 90 390 90 390 76 403.5 c 128,-1,16
 62 417 62 417 27 419 c 1,17,-1
 30 458 l 1,18,19
 180 486 180 486 201 492 c 1,20,-1
 219 483 l 1,21,-1
 227 425 l 1,22,23
 284 492 284 492 374 492 c 0,24,25
 442 492 442 492 482.5 451 c 128,-1,26
 523 410 523 410 523 338 c 2,27,-1
 523 66 l 1,28,29
 548 47 548 47 587 39 c 1,30,-1
 583 0 l 1,31,-1
 330 0 l 1,32,-1
 333 39 l 1,33,34
 363 45 363 45 382 66 c 1,35,-1
 382 329 l 2,0,1
384 623 m 0,36,37
 414 623 414 623 443 662 c 1,38,39
 473 651 473 651 491 631 c 1,40,41
 447 536 447 536 380 536 c 0,42,43
 359 536 359 536 317.5 555.5 c 128,-1,44
 276 575 276 575 250 575 c 128,-1,45
 224 575 224 575 196 537 c 1,46,47
 166 549 166 549 148 569 c 1,48,49
 192 663 192 663 260 663 c 0,50,51
 280 663 280 663 322 643 c 128,-1,52
 364 623 364 623 384 623 c 0,36,37
EndSplineSet
EndChar

StartChar: ograve
Encoding: 242 242 180
Width: 569
GlyphClass: 2
Flags: W
LayerCount: 2
Fore
SplineSet
213 391 m 128,-1,1
 191 346 191 346 191 242.5 c 128,-1,2
 191 139 191 139 213 94 c 128,-1,3
 235 49 235 49 285 49 c 128,-1,4
 335 49 335 49 356.5 94.5 c 128,-1,5
 378 140 378 140 378 243 c 128,-1,6
 378 346 378 346 356.5 391 c 128,-1,7
 335 436 335 436 285 436 c 128,-1,0
 235 436 235 436 213 391 c 128,-1,1
44 243 m 128,-1,9
 44 365 44 365 105 428.5 c 128,-1,10
 166 492 166 492 285 492 c 128,-1,11
 404 492 404 492 464.5 428.5 c 128,-1,12
 525 365 525 365 525 243 c 128,-1,13
 525 121 525 121 464.5 57 c 128,-1,14
 404 -7 404 -7 285 -7 c 128,-1,15
 166 -7 166 -7 105 57 c 128,-1,8
 44 121 44 121 44 243 c 128,-1,9
207 702 m 0,16,17
 241 702 241 702 264 668 c 2,18,-1
 344 549 l 1,19,-1
 310 516 l 1,20,-1
 193 599 l 2,21,22
 162 621 162 621 160 655 c 1,23,24
 160 676 160 676 173 689 c 128,-1,25
 186 702 186 702 207 702 c 0,16,17
EndSplineSet
EndChar

StartChar: oacute
Encoding: 243 243 181
Width: 569
GlyphClass: 2
Flags: W
LayerCount: 2
Fore
SplineSet
213 391 m 128,-1,1
 191 346 191 346 191 242.5 c 128,-1,2
 191 139 191 139 213 94 c 128,-1,3
 235 49 235 49 285 49 c 128,-1,4
 335 49 335 49 356.5 94.5 c 128,-1,5
 378 140 378 140 378 243 c 128,-1,6
 378 346 378 346 356.5 391 c 128,-1,7
 335 436 335 436 285 436 c 128,-1,0
 235 436 235 436 213 391 c 128,-1,1
44 243 m 128,-1,9
 44 365 44 365 105 428.5 c 128,-1,10
 166 492 166 492 285 492 c 128,-1,11
 404 492 404 492 464.5 428.5 c 128,-1,12
 525 365 525 365 525 243 c 128,-1,13
 525 121 525 121 464.5 57 c 128,-1,14
 404 -7 404 -7 285 -7 c 128,-1,15
 166 -7 166 -7 105 57 c 128,-1,8
 44 121 44 121 44 243 c 128,-1,9
359 709 m 0,16,17
 380 709 380 709 392.5 696 c 128,-1,18
 405 683 405 683 405 662 c 0,19,20
 405 628 405 628 373 606 c 2,21,-1
 256 523 l 1,22,-1
 222 556 l 1,23,-1
 302 675 l 2,24,25
 324 709 324 709 359 709 c 0,16,17
EndSplineSet
EndChar

StartChar: ocircumflex
Encoding: 244 244 182
Width: 569
GlyphClass: 2
Flags: W
LayerCount: 2
Fore
SplineSet
213 391 m 128,-1,1
 191 346 191 346 191 242.5 c 128,-1,2
 191 139 191 139 213 94 c 128,-1,3
 235 49 235 49 285 49 c 128,-1,4
 335 49 335 49 356.5 94.5 c 128,-1,5
 378 140 378 140 378 243 c 128,-1,6
 378 346 378 346 356.5 391 c 128,-1,7
 335 436 335 436 285 436 c 128,-1,0
 235 436 235 436 213 391 c 128,-1,1
44 243 m 128,-1,9
 44 365 44 365 105 428.5 c 128,-1,10
 166 492 166 492 285 492 c 128,-1,11
 404 492 404 492 464.5 428.5 c 128,-1,12
 525 365 525 365 525 243 c 128,-1,13
 525 121 525 121 464.5 57 c 128,-1,14
 404 -7 404 -7 285 -7 c 128,-1,15
 166 -7 166 -7 105 57 c 128,-1,8
 44 121 44 121 44 243 c 128,-1,9
230 659 m 2,16,17
 254 686 254 686 284 686 c 128,-1,18
 314 686 314 686 338 659 c 2,19,-1
 433 552 l 1,20,-1
 404 515 l 1,21,-1
 284 598 l 1,22,-1
 164 515 l 1,23,-1
 135 552 l 1,24,-1
 230 659 l 2,16,17
EndSplineSet
EndChar

StartChar: otilde
Encoding: 245 245 183
Width: 569
GlyphClass: 2
Flags: W
LayerCount: 2
Fore
SplineSet
213 391 m 128,-1,1
 191 346 191 346 191 242.5 c 128,-1,2
 191 139 191 139 213 94 c 128,-1,3
 235 49 235 49 285 49 c 128,-1,4
 335 49 335 49 356.5 94.5 c 128,-1,5
 378 140 378 140 378 243 c 128,-1,6
 378 346 378 346 356.5 391 c 128,-1,7
 335 436 335 436 285 436 c 128,-1,0
 235 436 235 436 213 391 c 128,-1,1
44 243 m 128,-1,9
 44 365 44 365 105 428.5 c 128,-1,10
 166 492 166 492 285 492 c 128,-1,11
 404 492 404 492 464.5 428.5 c 128,-1,12
 525 365 525 365 525 243 c 128,-1,13
 525 121 525 121 464.5 57 c 128,-1,14
 404 -7 404 -7 285 -7 c 128,-1,15
 166 -7 166 -7 105 57 c 128,-1,8
 44 121 44 121 44 243 c 128,-1,9
350 623 m 0,16,17
 380 623 380 623 409 662 c 1,18,19
 439 651 439 651 457 631 c 1,20,21
 413 536 413 536 346 536 c 0,22,23
 326 536 326 536 284 555.5 c 128,-1,24
 242 575 242 575 216 575 c 128,-1,25
 190 575 190 575 162 537 c 1,26,27
 132 549 132 549 114 569 c 1,28,29
 158 663 158 663 226 663 c 0,30,31
 246 663 246 663 288 643 c 128,-1,32
 330 623 330 623 350 623 c 0,16,17
EndSplineSet
EndChar

StartChar: odieresis
Encoding: 246 246 184
Width: 569
GlyphClass: 2
Flags: W
LayerCount: 2
Fore
SplineSet
213 391 m 128,-1,1
 191 346 191 346 191 242.5 c 128,-1,2
 191 139 191 139 213 94 c 128,-1,3
 235 49 235 49 285 49 c 128,-1,4
 335 49 335 49 356.5 94.5 c 128,-1,5
 378 140 378 140 378 243 c 128,-1,6
 378 346 378 346 356.5 391 c 128,-1,7
 335 436 335 436 285 436 c 128,-1,0
 235 436 235 436 213 391 c 128,-1,1
44 243 m 128,-1,9
 44 365 44 365 105 428.5 c 128,-1,10
 166 492 166 492 285 492 c 128,-1,11
 404 492 404 492 464.5 428.5 c 128,-1,12
 525 365 525 365 525 243 c 128,-1,13
 525 121 525 121 464.5 57 c 128,-1,14
 404 -7 404 -7 285 -7 c 128,-1,15
 166 -7 166 -7 105 57 c 128,-1,8
 44 121 44 121 44 243 c 128,-1,9
268 607 m 0,16,17
 268 550 268 550 202.5 550 c 128,-1,18
 137 550 137 550 137 607 c 0,19,20
 137 662 137 662 202.5 662 c 128,-1,21
 268 662 268 662 268 607 c 0,16,17
432 607 m 0,22,23
 432 550 432 550 366 550 c 128,-1,24
 300 550 300 550 300 607 c 0,25,26
 300 662 300 662 366 662 c 128,-1,27
 432 662 432 662 432 607 c 0,22,23
EndSplineSet
EndChar

StartChar: divide
Encoding: 247 247 185
Width: 592
GlyphClass: 2
Flags: W
LayerCount: 2
Fore
SplineSet
60 238 m 1,0,-1
 60 333 l 1,1,-1
 529 333 l 1,2,-1
 529 238 l 1,3,-1
 60 238 l 1,0,-1
223 120 m 128,-1,5
 223 150 223 150 244.5 171.5 c 128,-1,6
 266 193 266 193 296 193 c 128,-1,7
 326 193 326 193 347.5 171.5 c 128,-1,8
 369 150 369 150 369 120 c 128,-1,9
 369 90 369 90 347.5 68.5 c 128,-1,10
 326 47 326 47 296 47 c 128,-1,11
 266 47 266 47 244.5 68.5 c 128,-1,4
 223 90 223 90 223 120 c 128,-1,5
223 451 m 128,-1,13
 223 481 223 481 244.5 502.5 c 128,-1,14
 266 524 266 524 296 524 c 128,-1,15
 326 524 326 524 347.5 502.5 c 128,-1,16
 369 481 369 481 369 451 c 128,-1,17
 369 421 369 421 347.5 399.5 c 128,-1,18
 326 378 326 378 296 378 c 128,-1,19
 266 378 266 378 244.5 399.5 c 128,-1,12
 223 421 223 421 223 451 c 128,-1,13
EndSplineSet
EndChar

StartChar: oslash
Encoding: 248 248 186
Width: 569
GlyphClass: 2
Flags: W
LayerCount: 2
Fore
SplineSet
101 60 m 1,0,1
 44 123 44 123 44 244 c 128,-1,2
 44 365 44 365 105 428.5 c 128,-1,3
 166 492 166 492 285 492 c 0,4,5
 356 492 356 492 404 470 c 1,6,-1
 448 530 l 1,7,-1
 509 478 l 1,8,-1
 469 424 l 1,9,10
 525 360 525 360 525 240.5 c 128,-1,11
 525 121 525 121 464.5 57 c 128,-1,12
 404 -7 404 -7 285 -7 c 0,13,14
 216 -7 216 -7 167 14 c 1,15,-1
 126 -41 l 1,16,-1
 62 7 l 1,17,-1
 101 60 l 1,0,1
191 243 m 0,18,19
 191 202 191 202 193 184 c 1,20,-1
 351 399 l 1,21,22
 329 436 329 436 282 436 c 128,-1,23
 235 436 235 436 213 391 c 128,-1,24
 191 346 191 346 191 243 c 0,18,19
378 243 m 0,25,26
 378 265 378 265 376 297 c 1,27,-1
 218 84 l 1,28,29
 240 49 240 49 287.5 49 c 128,-1,30
 335 49 335 49 356.5 94.5 c 128,-1,31
 378 140 378 140 378 243 c 0,25,26
EndSplineSet
EndChar

StartChar: ugrave
Encoding: 249 249 187
Width: 597
GlyphClass: 2
Flags: W
LayerCount: 2
Fore
SplineSet
230 -7 m 0,0,1
 162 -7 162 -7 121 34 c 128,-1,2
 80 75 80 75 80 147 c 2,3,-1
 80 354 l 2,4,5
 80 390 80 390 66.5 403.5 c 128,-1,6
 53 417 53 417 18 419 c 1,7,-1
 21 458 l 1,8,9
 34 461 34 461 76 468 c 0,10,11
 172 483 172 483 204 492 c 1,12,-1
 221 483 l 1,13,-1
 221 156 l 2,14,15
 221 60 221 60 283 60 c 0,16,17
 309 60 309 60 333.5 75 c 128,-1,18
 358 90 358 90 373 115 c 1,19,-1
 373 354 l 2,20,21
 373 390 373 390 359 403.5 c 128,-1,22
 345 417 345 417 310 419 c 1,23,-1
 313 458 l 1,24,25
 326 461 326 461 368 468 c 0,26,27
 464 483 464 483 496 492 c 1,28,-1
 514 483 l 1,29,-1
 514 62 l 1,30,31
 536 43 536 43 583 35 c 1,32,-1
 580 0 l 1,33,-1
 389 0 l 1,34,-1
 379 64 l 1,35,36
 321 -7 321 -7 230 -7 c 0,0,1
216 702 m 0,37,38
 250 702 250 702 273 668 c 2,39,-1
 353 549 l 1,40,-1
 319 516 l 1,41,-1
 202 599 l 2,42,43
 171 621 171 621 169 655 c 1,44,45
 169 676 169 676 182 689 c 128,-1,46
 195 702 195 702 216 702 c 0,37,38
EndSplineSet
EndChar

StartChar: uacute
Encoding: 250 250 188
Width: 597
GlyphClass: 2
Flags: W
LayerCount: 2
Fore
SplineSet
230 -7 m 0,0,1
 162 -7 162 -7 121 34 c 128,-1,2
 80 75 80 75 80 147 c 2,3,-1
 80 354 l 2,4,5
 80 390 80 390 66.5 403.5 c 128,-1,6
 53 417 53 417 18 419 c 1,7,-1
 21 458 l 1,8,9
 34 461 34 461 76 468 c 0,10,11
 172 483 172 483 204 492 c 1,12,-1
 221 483 l 1,13,-1
 221 156 l 2,14,15
 221 60 221 60 283 60 c 0,16,17
 309 60 309 60 333.5 75 c 128,-1,18
 358 90 358 90 373 115 c 1,19,-1
 373 354 l 2,20,21
 373 390 373 390 359 403.5 c 128,-1,22
 345 417 345 417 310 419 c 1,23,-1
 313 458 l 1,24,25
 326 461 326 461 368 468 c 0,26,27
 464 483 464 483 496 492 c 1,28,-1
 514 483 l 1,29,-1
 514 62 l 1,30,31
 536 43 536 43 583 35 c 1,32,-1
 580 0 l 1,33,-1
 389 0 l 1,34,-1
 379 64 l 1,35,36
 321 -7 321 -7 230 -7 c 0,0,1
368 709 m 0,37,38
 389 709 389 709 401.5 696 c 128,-1,39
 414 683 414 683 414 662 c 0,40,41
 414 628 414 628 382 606 c 2,42,-1
 265 523 l 1,43,-1
 231 556 l 1,44,-1
 311 675 l 2,45,46
 333 709 333 709 368 709 c 0,37,38
EndSplineSet
EndChar

StartChar: ucircumflex
Encoding: 251 251 189
Width: 597
GlyphClass: 2
Flags: W
LayerCount: 2
Fore
SplineSet
230 -7 m 0,0,1
 162 -7 162 -7 121 34 c 128,-1,2
 80 75 80 75 80 147 c 2,3,-1
 80 354 l 2,4,5
 80 390 80 390 66.5 403.5 c 128,-1,6
 53 417 53 417 18 419 c 1,7,-1
 21 458 l 1,8,9
 34 461 34 461 76 468 c 0,10,11
 172 483 172 483 204 492 c 1,12,-1
 221 483 l 1,13,-1
 221 156 l 2,14,15
 221 60 221 60 283 60 c 0,16,17
 309 60 309 60 333.5 75 c 128,-1,18
 358 90 358 90 373 115 c 1,19,-1
 373 354 l 2,20,21
 373 390 373 390 359 403.5 c 128,-1,22
 345 417 345 417 310 419 c 1,23,-1
 313 458 l 1,24,25
 326 461 326 461 368 468 c 0,26,27
 464 483 464 483 496 492 c 1,28,-1
 514 483 l 1,29,-1
 514 62 l 1,30,31
 536 43 536 43 583 35 c 1,32,-1
 580 0 l 1,33,-1
 389 0 l 1,34,-1
 379 64 l 1,35,36
 321 -7 321 -7 230 -7 c 0,0,1
239 659 m 2,37,38
 263 686 263 686 293 686 c 128,-1,39
 323 686 323 686 347 659 c 2,40,-1
 442 552 l 1,41,-1
 413 515 l 1,42,-1
 293 598 l 1,43,-1
 173 515 l 1,44,-1
 144 552 l 1,45,-1
 239 659 l 2,37,38
EndSplineSet
EndChar

StartChar: udieresis
Encoding: 252 252 190
Width: 597
GlyphClass: 2
Flags: W
LayerCount: 2
Fore
SplineSet
230 -7 m 0,0,1
 162 -7 162 -7 121 34 c 128,-1,2
 80 75 80 75 80 147 c 2,3,-1
 80 354 l 2,4,5
 80 390 80 390 66.5 403.5 c 128,-1,6
 53 417 53 417 18 419 c 1,7,-1
 21 458 l 1,8,9
 34 461 34 461 76 468 c 0,10,11
 172 483 172 483 204 492 c 1,12,-1
 221 483 l 1,13,-1
 221 156 l 2,14,15
 221 60 221 60 283 60 c 0,16,17
 309 60 309 60 333.5 75 c 128,-1,18
 358 90 358 90 373 115 c 1,19,-1
 373 354 l 2,20,21
 373 390 373 390 359 403.5 c 128,-1,22
 345 417 345 417 310 419 c 1,23,-1
 313 458 l 1,24,25
 326 461 326 461 368 468 c 0,26,27
 464 483 464 483 496 492 c 1,28,-1
 514 483 l 1,29,-1
 514 62 l 1,30,31
 536 43 536 43 583 35 c 1,32,-1
 580 0 l 1,33,-1
 389 0 l 1,34,-1
 379 64 l 1,35,36
 321 -7 321 -7 230 -7 c 0,0,1
277 607 m 0,37,38
 277 550 277 550 211.5 550 c 128,-1,39
 146 550 146 550 146 607 c 0,40,41
 146 662 146 662 211.5 662 c 128,-1,42
 277 662 277 662 277 607 c 0,37,38
441 607 m 0,43,44
 441 550 441 550 375 550 c 128,-1,45
 309 550 309 550 309 607 c 0,46,47
 309 662 309 662 375 662 c 128,-1,48
 441 662 441 662 441 607 c 0,43,44
EndSplineSet
EndChar

StartChar: yacute
Encoding: 253 253 191
Width: 531
GlyphClass: 2
Flags: W
LayerCount: 2
Fore
SplineSet
206 -193 m 128,-1,1
 174 -220 174 -220 124 -220 c 128,-1,2
 74 -220 74 -220 46 -200 c 128,-1,3
 18 -180 18 -180 18 -146.5 c 128,-1,4
 18 -113 18 -113 34 -95 c 128,-1,5
 50 -77 50 -77 77.5 -77 c 128,-1,6
 105 -77 105 -77 126 -101 c 1,7,8
 115 -110 115 -110 115 -131 c 0,9,10
 115 -162 115 -162 142 -162 c 0,11,12
 159 -162 159 -162 173.5 -143 c 128,-1,13
 188 -124 188 -124 207 -76 c 2,14,-1
 237 0 l 1,15,-1
 203 0 l 1,16,-1
 59 407 l 2,17,18
 47 440 47 440 -3 449 c 1,19,-1
 -1 484 l 1,20,-1
 261 484 l 1,21,-1
 256 449 l 1,22,23
 219 448 219 448 199 430 c 1,24,-1
 298 151 l 1,25,-1
 408 427 l 1,26,27
 385 442 385 442 343 449 c 1,28,-1
 347 484 l 1,29,-1
 533 484 l 1,30,-1
 529 449 l 1,31,32
 485 447 485 447 477 425 c 2,33,-1
 264 -103 l 2,34,0
 238 -166 238 -166 206 -193 c 128,-1,1
377 709 m 0,35,36
 398 709 398 709 410.5 696 c 128,-1,37
 423 683 423 683 423 662 c 0,38,39
 423 628 423 628 391 606 c 2,40,-1
 274 523 l 1,41,-1
 240 556 l 1,42,-1
 320 675 l 2,43,44
 342 709 342 709 377 709 c 0,35,36
EndSplineSet
EndChar

StartChar: thorn
Encoding: 254 254 192
Width: 591
GlyphClass: 2
Flags: W
LayerCount: 2
Fore
SplineSet
83 558 m 2,0,1
 83 595 83 595 69.5 608.5 c 128,-1,2
 56 622 56 622 21 624 c 1,3,-1
 23 663 l 1,4,5
 166 685 166 685 207 697 c 1,6,-1
 224 687 l 1,7,-1
 224 425 l 1,8,9
 268 492 268 492 358.5 492 c 128,-1,10
 449 492 449 492 496.5 432 c 128,-1,11
 544 372 544 372 544 250.5 c 128,-1,12
 544 129 544 129 484.5 61 c 128,-1,13
 425 -7 425 -7 318 -7 c 0,14,15
 268 -7 268 -7 224 8 c 1,16,-1
 224 -145 l 1,17,18
 254 -164 254 -164 298 -172 c 1,19,-1
 294 -211 l 1,20,-1
 27 -211 l 1,21,-1
 31 -170 l 1,22,23
 64 -163 64 -163 83 -145 c 1,24,-1
 83 558 l 2,0,1
315 432 m 0,25,26
 272 432 272 432 248 390 c 128,-1,27
 224 348 224 348 224 268 c 2,28,-1
 224 65 l 1,29,30
 251 46 251 46 290 46 c 0,31,32
 398 46 398 46 398 256 c 0,33,34
 398 432 398 432 315 432 c 0,25,26
EndSplineSet
EndChar

StartChar: ydieresis
Encoding: 255 255 193
Width: 531
GlyphClass: 2
Flags: W
LayerCount: 2
Fore
SplineSet
206 -193 m 128,-1,1
 174 -220 174 -220 124 -220 c 128,-1,2
 74 -220 74 -220 46 -200 c 128,-1,3
 18 -180 18 -180 18 -146.5 c 128,-1,4
 18 -113 18 -113 34 -95 c 128,-1,5
 50 -77 50 -77 77.5 -77 c 128,-1,6
 105 -77 105 -77 126 -101 c 1,7,8
 115 -110 115 -110 115 -131 c 0,9,10
 115 -162 115 -162 142 -162 c 0,11,12
 159 -162 159 -162 173.5 -143 c 128,-1,13
 188 -124 188 -124 207 -76 c 2,14,-1
 237 0 l 1,15,-1
 203 0 l 1,16,-1
 59 407 l 2,17,18
 47 440 47 440 -3 449 c 1,19,-1
 -1 484 l 1,20,-1
 261 484 l 1,21,-1
 256 449 l 1,22,23
 219 448 219 448 199 430 c 1,24,-1
 298 151 l 1,25,-1
 408 427 l 1,26,27
 385 442 385 442 343 449 c 1,28,-1
 347 484 l 1,29,-1
 533 484 l 1,30,-1
 529 449 l 1,31,32
 485 447 485 447 477 425 c 2,33,-1
 264 -103 l 2,34,0
 238 -166 238 -166 206 -193 c 128,-1,1
286 607 m 0,35,36
 286 550 286 550 220.5 550 c 128,-1,37
 155 550 155 550 155 607 c 0,38,39
 155 662 155 662 220.5 662 c 128,-1,40
 286 662 286 662 286 607 c 0,35,36
450 607 m 0,41,42
 450 550 450 550 384 550 c 128,-1,43
 318 550 318 550 318 607 c 0,44,45
 318 662 318 662 384 662 c 128,-1,46
 450 662 450 662 450 607 c 0,41,42
EndSplineSet
EndChar

StartChar: Amacron
Encoding: 256 256 194
Width: 652
GlyphClass: 2
Flags: W
LayerCount: 2
Fore
SplineSet
439 65 m 1,0,-1
 392 208 l 1,1,-1
 186 208 l 1,2,-1
 138 70 l 1,3,4
 166 47 166 47 223 40 c 1,5,-1
 218 0 l 1,6,-1
 -8 0 l 1,7,-1
 -2 40 l 1,8,9
 44 42 44 42 59 65 c 1,10,-1
 272 667 l 1,11,-1
 376 667 l 1,12,-1
 591 74 l 1,13,14
 607 48 607 48 652 40 c 1,15,-1
 647 0 l 1,16,-1
 373 0 l 1,17,-1
 379 40 l 1,18,19
 425 47 425 47 439 65 c 1,0,-1
293 511 m 1,20,-1
 208 271 l 1,21,-1
 371 271 l 1,22,-1
 293 511 l 1,20,-1
167 740 m 1,23,-1
 167 808 l 1,24,-1
 478 808 l 1,25,-1
 478 740 l 1,26,-1
 167 740 l 1,23,-1
EndSplineSet
EndChar

StartChar: amacron
Encoding: 257 257 195
Width: 535
GlyphClass: 2
Flags: W
LayerCount: 2
Fore
SplineSet
172 -7 m 0,0,1
 103 -7 103 -7 66 25 c 128,-1,2
 29 57 29 57 29 118 c 0,3,4
 29 251 29 251 226 265 c 2,5,-1
 314 271 l 1,6,-1
 314 329 l 2,7,8
 314 399 314 399 297.5 426 c 128,-1,9
 281 453 281 453 246.5 453 c 128,-1,10
 212 453 212 453 193.5 438.5 c 128,-1,11
 175 424 175 424 175 400.5 c 128,-1,12
 175 377 175 377 197 360 c 1,13,14
 192 335 192 335 173 320 c 128,-1,15
 154 305 154 305 124 305 c 128,-1,16
 94 305 94 305 72 326 c 128,-1,17
 50 347 50 347 50 378 c 0,18,19
 50 431 50 431 100.5 461.5 c 128,-1,20
 151 492 151 492 240 492 c 0,21,22
 455 492 455 492 455 334 c 2,23,-1
 455 62 l 1,24,25
 472 43 472 43 515 35 c 1,26,-1
 511 0 l 1,27,-1
 331 0 l 1,28,-1
 321 57 l 1,29,30
 257 -7 257 -7 172 -7 c 0,0,1
185 193 m 128,-1,32
 161 172 161 172 161 134 c 0,33,34
 161 58 161 58 221 58 c 0,35,36
 267 58 267 58 314 113 c 1,37,-1
 314 222 l 1,38,-1
 264 218 l 2,39,31
 209 214 209 214 185 193 c 128,-1,32
106 552 m 1,40,-1
 106 620 l 1,41,-1
 417 620 l 1,42,-1
 417 552 l 1,43,-1
 106 552 l 1,40,-1
EndSplineSet
EndChar

StartChar: Abreve
Encoding: 258 258 196
Width: 652
GlyphClass: 2
Flags: W
LayerCount: 2
Fore
SplineSet
439 65 m 1,0,-1
 392 208 l 1,1,-1
 186 208 l 1,2,-1
 138 70 l 1,3,4
 166 47 166 47 223 40 c 1,5,-1
 218 0 l 1,6,-1
 -8 0 l 1,7,-1
 -2 40 l 1,8,9
 44 42 44 42 59 65 c 1,10,-1
 272 667 l 1,11,-1
 376 667 l 1,12,-1
 591 74 l 1,13,14
 607 48 607 48 652 40 c 1,15,-1
 647 0 l 1,16,-1
 373 0 l 1,17,-1
 379 40 l 1,18,19
 425 47 425 47 439 65 c 1,0,-1
293 511 m 1,20,-1
 208 271 l 1,21,-1
 371 271 l 1,22,-1
 293 511 l 1,20,-1
324 702 m 128,-1,24
 264 702 264 702 225 739 c 128,-1,25
 186 776 186 776 181 838 c 1,26,27
 203 849 203 849 241 849 c 1,28,29
 252 780 252 780 324 780 c 128,-1,30
 396 780 396 780 407 849 c 1,31,32
 440 849 440 849 466 839 c 1,33,34
 461 777 461 777 422.5 739.5 c 128,-1,23
 384 702 384 702 324 702 c 128,-1,24
EndSplineSet
EndChar

StartChar: abreve
Encoding: 259 259 197
Width: 535
GlyphClass: 2
Flags: W
LayerCount: 2
Fore
SplineSet
172 -7 m 0,0,1
 103 -7 103 -7 66 25 c 128,-1,2
 29 57 29 57 29 118 c 0,3,4
 29 251 29 251 226 265 c 2,5,-1
 314 271 l 1,6,-1
 314 329 l 2,7,8
 314 399 314 399 297.5 426 c 128,-1,9
 281 453 281 453 246.5 453 c 128,-1,10
 212 453 212 453 193.5 438.5 c 128,-1,11
 175 424 175 424 175 400.5 c 128,-1,12
 175 377 175 377 197 360 c 1,13,14
 192 335 192 335 173 320 c 128,-1,15
 154 305 154 305 124 305 c 128,-1,16
 94 305 94 305 72 326 c 128,-1,17
 50 347 50 347 50 378 c 0,18,19
 50 431 50 431 100.5 461.5 c 128,-1,20
 151 492 151 492 240 492 c 0,21,22
 455 492 455 492 455 334 c 2,23,-1
 455 62 l 1,24,25
 472 43 472 43 515 35 c 1,26,-1
 511 0 l 1,27,-1
 331 0 l 1,28,-1
 321 57 l 1,29,30
 257 -7 257 -7 172 -7 c 0,0,1
185 193 m 128,-1,32
 161 172 161 172 161 134 c 0,33,34
 161 58 161 58 221 58 c 0,35,36
 267 58 267 58 314 113 c 1,37,-1
 314 222 l 1,38,-1
 264 218 l 2,39,31
 209 214 209 214 185 193 c 128,-1,32
263 522 m 128,-1,41
 203 522 203 522 164 559 c 128,-1,42
 125 596 125 596 120 658 c 1,43,44
 142 669 142 669 180 669 c 1,45,46
 191 600 191 600 263 600 c 128,-1,47
 335 600 335 600 346 669 c 1,48,49
 379 669 379 669 405 659 c 1,50,51
 400 597 400 597 361.5 559.5 c 128,-1,40
 323 522 323 522 263 522 c 128,-1,41
EndSplineSet
EndChar

StartChar: Aogonek
Encoding: 260 260 198
Width: 652
GlyphClass: 2
Flags: W
LayerCount: 2
Fore
SplineSet
567 0 m 2,0,1
 516 0 516 0 489 -34.5 c 128,-1,2
 462 -69 462 -69 462 -107 c 128,-1,3
 462 -145 462 -145 490 -145 c 0,4,5
 513 -145 513 -145 540 -122 c 1,6,-1
 566 -157 l 1,7,8
 527 -204 527 -204 461 -204 c 0,9,10
 422 -204 422 -204 394.5 -181.5 c 128,-1,11
 367 -159 367 -159 367 -127.5 c 128,-1,12
 367 -96 367 -96 387 -69 c 128,-1,13
 407 -42 407 -42 427 -18.5 c 128,-1,14
 447 5 447 5 447 20 c 128,-1,15
 447 35 447 35 439 65 c 1,16,-1
 392 208 l 1,17,-1
 186 208 l 1,18,-1
 138 70 l 1,19,20
 166 47 166 47 223 40 c 1,21,-1
 218 0 l 1,22,-1
 -8 0 l 1,23,-1
 -2 40 l 1,24,25
 44 42 44 42 59 65 c 1,26,-1
 272 667 l 1,27,-1
 376 667 l 1,28,-1
 591 74 l 1,29,30
 607 48 607 48 652 40 c 1,31,-1
 647 0 l 1,32,-1
 567 0 l 2,0,1
293 511 m 1,33,-1
 208 271 l 1,34,-1
 371 271 l 1,35,-1
 293 511 l 1,33,-1
EndSplineSet
EndChar

StartChar: aogonek
Encoding: 261 261 199
Width: 535
GlyphClass: 2
Flags: W
LayerCount: 2
Fore
SplineSet
446 0 m 2,0,1
 395 0 395 0 368 -34.5 c 128,-1,2
 341 -69 341 -69 341 -107 c 128,-1,3
 341 -145 341 -145 369 -145 c 0,4,5
 392 -145 392 -145 419 -122 c 1,6,-1
 445 -157 l 1,7,8
 406 -204 406 -204 340 -204 c 0,9,10
 301 -204 301 -204 273.5 -181.5 c 128,-1,11
 246 -159 246 -159 246 -124.5 c 128,-1,12
 246 -90 246 -90 286 -43 c 128,-1,13
 326 4 326 4 326 25 c 128,-1,14
 326 46 326 46 320 56 c 1,15,16
 256 -7 256 -7 180 -7 c 0,17,18
 29 -7 29 -7 29 118 c 0,19,20
 29 251 29 251 226 265 c 2,21,-1
 314 271 l 1,22,-1
 314 329 l 2,23,24
 314 399 314 399 297.5 426 c 128,-1,25
 281 453 281 453 246.5 453 c 128,-1,26
 212 453 212 453 193.5 438.5 c 128,-1,27
 175 424 175 424 175 400.5 c 128,-1,28
 175 377 175 377 197 360 c 1,29,30
 192 335 192 335 173 320 c 128,-1,31
 154 305 154 305 124 305 c 128,-1,32
 94 305 94 305 72 326 c 128,-1,33
 50 347 50 347 50 378 c 0,34,35
 50 431 50 431 100.5 461.5 c 128,-1,36
 151 492 151 492 240 492 c 0,37,38
 455 492 455 492 455 334 c 2,39,-1
 455 62 l 1,40,41
 472 43 472 43 515 35 c 1,42,-1
 511 0 l 1,43,-1
 446 0 l 2,0,1
185 193 m 128,-1,45
 161 172 161 172 161 134 c 0,46,47
 161 58 161 58 221 58 c 0,48,49
 267 58 267 58 314 113 c 1,50,-1
 314 222 l 1,51,-1
 264 218 l 2,52,44
 209 214 209 214 185 193 c 128,-1,45
EndSplineSet
EndChar

StartChar: Cacute
Encoding: 262 262 200
Width: 573
GlyphClass: 2
Flags: W
LayerCount: 2
Fore
SplineSet
335 -10 m 0,0,1
 194 -10 194 -10 120.5 75 c 128,-1,2
 47 160 47 160 47 329 c 128,-1,3
 47 498 47 498 119.5 586 c 128,-1,4
 192 674 192 674 334 674 c 0,5,6
 425 674 425 674 482 637 c 128,-1,7
 539 600 539 600 539 542 c 0,8,9
 539 506 539 506 516 481 c 128,-1,10
 493 456 493 456 464 456 c 128,-1,11
 435 456 435 456 413.5 469 c 128,-1,12
 392 482 392 482 382 502 c 1,13,14
 398 529 398 529 398 557 c 128,-1,15
 398 585 398 585 379.5 603 c 128,-1,16
 361 621 361 621 330 621 c 0,17,18
 212 621 212 621 212 342 c 0,19,20
 212 201 212 201 249 129.5 c 128,-1,21
 286 58 286 58 368 58 c 128,-1,22
 450 58 450 58 520 133 c 1,23,-1
 553 101 l 1,24,25
 506 48 506 48 448.5 19 c 128,-1,26
 391 -10 391 -10 335 -10 c 0,0,1
390 899 m 0,27,28
 411 899 411 899 423.5 886 c 128,-1,29
 436 873 436 873 436 852 c 0,30,31
 436 818 436 818 404 796 c 2,32,-1
 287 713 l 1,33,-1
 253 746 l 1,34,-1
 333 865 l 2,35,36
 355 899 355 899 390 899 c 0,27,28
EndSplineSet
EndChar

StartChar: cacute
Encoding: 263 263 201
Width: 469
GlyphClass: 2
Flags: W
LayerCount: 2
Fore
SplineSet
464 68 m 1,0,1
 392 -7 392 -7 278 -7 c 128,-1,2
 164 -7 164 -7 104 55 c 128,-1,3
 44 117 44 117 44 238.5 c 128,-1,4
 44 360 44 360 104.5 424.5 c 128,-1,5
 165 489 165 489 280 489 c 0,6,7
 357 489 357 489 405.5 460.5 c 128,-1,8
 454 432 454 432 454 387 c 0,9,10
 454 358 454 358 431.5 338 c 128,-1,11
 409 318 409 318 381 318 c 128,-1,12
 353 318 353 318 333.5 330 c 128,-1,13
 314 342 314 342 308 360 c 1,14,15
 320 378 320 378 320 398.5 c 128,-1,16
 320 419 320 419 306 431 c 128,-1,17
 292 443 292 443 271 443 c 0,18,19
 191 443 191 443 191 248 c 0,20,21
 191 141 191 141 217.5 96 c 128,-1,22
 244 51 244 51 307 51 c 128,-1,23
 370 51 370 51 428 104 c 1,24,-1
 464 68 l 1,0,1
360 709 m 0,25,26
 381 709 381 709 393.5 696 c 128,-1,27
 406 683 406 683 406 662 c 0,28,29
 406 628 406 628 374 606 c 2,30,-1
 257 523 l 1,31,-1
 223 556 l 1,32,-1
 303 675 l 2,33,34
 325 709 325 709 360 709 c 0,25,26
EndSplineSet
EndChar

StartChar: Ccircumflex
Encoding: 264 264 202
Width: 573
GlyphClass: 2
Flags: W
LayerCount: 2
Fore
SplineSet
335 -10 m 0,0,1
 194 -10 194 -10 120.5 75 c 128,-1,2
 47 160 47 160 47 329 c 128,-1,3
 47 498 47 498 119.5 586 c 128,-1,4
 192 674 192 674 334 674 c 0,5,6
 425 674 425 674 482 637 c 128,-1,7
 539 600 539 600 539 542 c 0,8,9
 539 506 539 506 516 481 c 128,-1,10
 493 456 493 456 464 456 c 128,-1,11
 435 456 435 456 413.5 469 c 128,-1,12
 392 482 392 482 382 502 c 1,13,14
 398 529 398 529 398 557 c 128,-1,15
 398 585 398 585 379.5 603 c 128,-1,16
 361 621 361 621 330 621 c 0,17,18
 212 621 212 621 212 342 c 0,19,20
 212 201 212 201 249 129.5 c 128,-1,21
 286 58 286 58 368 58 c 128,-1,22
 450 58 450 58 520 133 c 1,23,-1
 553 101 l 1,24,25
 506 48 506 48 448.5 19 c 128,-1,26
 391 -10 391 -10 335 -10 c 0,0,1
261 849 m 2,27,28
 285 876 285 876 315 876 c 128,-1,29
 345 876 345 876 369 849 c 2,30,-1
 464 742 l 1,31,-1
 435 705 l 1,32,-1
 315 788 l 1,33,-1
 195 705 l 1,34,-1
 166 742 l 1,35,-1
 261 849 l 2,27,28
EndSplineSet
EndChar

StartChar: ccircumflex
Encoding: 265 265 203
Width: 469
GlyphClass: 2
Flags: W
LayerCount: 2
Fore
SplineSet
464 68 m 1,0,1
 392 -7 392 -7 278 -7 c 128,-1,2
 164 -7 164 -7 104 55 c 128,-1,3
 44 117 44 117 44 238.5 c 128,-1,4
 44 360 44 360 104.5 424.5 c 128,-1,5
 165 489 165 489 280 489 c 0,6,7
 357 489 357 489 405.5 460.5 c 128,-1,8
 454 432 454 432 454 387 c 0,9,10
 454 358 454 358 431.5 338 c 128,-1,11
 409 318 409 318 381 318 c 128,-1,12
 353 318 353 318 333.5 330 c 128,-1,13
 314 342 314 342 308 360 c 1,14,15
 320 378 320 378 320 398.5 c 128,-1,16
 320 419 320 419 306 431 c 128,-1,17
 292 443 292 443 271 443 c 0,18,19
 191 443 191 443 191 248 c 0,20,21
 191 141 191 141 217.5 96 c 128,-1,22
 244 51 244 51 307 51 c 128,-1,23
 370 51 370 51 428 104 c 1,24,-1
 464 68 l 1,0,1
231 659 m 2,25,26
 255 686 255 686 285 686 c 128,-1,27
 315 686 315 686 339 659 c 2,28,-1
 434 552 l 1,29,-1
 405 515 l 1,30,-1
 285 598 l 1,31,-1
 165 515 l 1,32,-1
 136 552 l 1,33,-1
 231 659 l 2,25,26
EndSplineSet
EndChar

StartChar: Cdotaccent
Encoding: 266 266 204
Width: 573
GlyphClass: 2
Flags: W
LayerCount: 2
Fore
SplineSet
335 -10 m 0,0,1
 194 -10 194 -10 120.5 75 c 128,-1,2
 47 160 47 160 47 329 c 128,-1,3
 47 498 47 498 119.5 586 c 128,-1,4
 192 674 192 674 334 674 c 0,5,6
 425 674 425 674 482 637 c 128,-1,7
 539 600 539 600 539 542 c 0,8,9
 539 506 539 506 516 481 c 128,-1,10
 493 456 493 456 464 456 c 128,-1,11
 435 456 435 456 413.5 469 c 128,-1,12
 392 482 392 482 382 502 c 1,13,14
 398 529 398 529 398 557 c 128,-1,15
 398 585 398 585 379.5 603 c 128,-1,16
 361 621 361 621 330 621 c 0,17,18
 212 621 212 621 212 342 c 0,19,20
 212 201 212 201 249 129.5 c 128,-1,21
 286 58 286 58 368 58 c 128,-1,22
 450 58 450 58 520 133 c 1,23,-1
 553 101 l 1,24,25
 506 48 506 48 448.5 19 c 128,-1,26
 391 -10 391 -10 335 -10 c 0,0,1
394 784 m 128,-1,28
 394 714 394 714 314.5 714 c 128,-1,29
 235 714 235 714 235 784 c 128,-1,30
 235 854 235 854 314.5 854 c 128,-1,27
 394 854 394 854 394 784 c 128,-1,28
EndSplineSet
EndChar

StartChar: cdotaccent
Encoding: 267 267 205
Width: 469
GlyphClass: 2
Flags: W
LayerCount: 2
Fore
SplineSet
464 68 m 1,0,1
 392 -7 392 -7 278 -7 c 128,-1,2
 164 -7 164 -7 104 55 c 128,-1,3
 44 117 44 117 44 238.5 c 128,-1,4
 44 360 44 360 104.5 424.5 c 128,-1,5
 165 489 165 489 280 489 c 0,6,7
 357 489 357 489 405.5 460.5 c 128,-1,8
 454 432 454 432 454 387 c 0,9,10
 454 358 454 358 431.5 338 c 128,-1,11
 409 318 409 318 381 318 c 128,-1,12
 353 318 353 318 333.5 330 c 128,-1,13
 314 342 314 342 308 360 c 1,14,15
 320 378 320 378 320 398.5 c 128,-1,16
 320 419 320 419 306 431 c 128,-1,17
 292 443 292 443 271 443 c 0,18,19
 191 443 191 443 191 248 c 0,20,21
 191 141 191 141 217.5 96 c 128,-1,22
 244 51 244 51 307 51 c 128,-1,23
 370 51 370 51 428 104 c 1,24,-1
 464 68 l 1,0,1
364 620 m 128,-1,26
 364 550 364 550 284.5 550 c 128,-1,27
 205 550 205 550 205 620 c 128,-1,28
 205 690 205 690 284.5 690 c 128,-1,25
 364 690 364 690 364 620 c 128,-1,26
EndSplineSet
EndChar

StartChar: Ccaron
Encoding: 268 268 206
Width: 573
GlyphClass: 2
Flags: W
LayerCount: 2
Fore
SplineSet
335 -10 m 0,0,1
 194 -10 194 -10 120.5 75 c 128,-1,2
 47 160 47 160 47 329 c 128,-1,3
 47 498 47 498 119.5 586 c 128,-1,4
 192 674 192 674 334 674 c 0,5,6
 425 674 425 674 482 637 c 128,-1,7
 539 600 539 600 539 542 c 0,8,9
 539 506 539 506 516 481 c 128,-1,10
 493 456 493 456 464 456 c 128,-1,11
 435 456 435 456 413.5 469 c 128,-1,12
 392 482 392 482 382 502 c 1,13,14
 398 529 398 529 398 557 c 128,-1,15
 398 585 398 585 379.5 603 c 128,-1,16
 361 621 361 621 330 621 c 0,17,18
 212 621 212 621 212 342 c 0,19,20
 212 201 212 201 249 129.5 c 128,-1,21
 286 58 286 58 368 58 c 128,-1,22
 450 58 450 58 520 133 c 1,23,-1
 553 101 l 1,24,25
 506 48 506 48 448.5 19 c 128,-1,26
 391 -10 391 -10 335 -10 c 0,0,1
368 732 m 2,27,28
 344 705 344 705 314 705 c 128,-1,29
 284 705 284 705 260 732 c 2,30,-1
 165 839 l 1,31,-1
 194 876 l 1,32,-1
 314 793 l 1,33,-1
 434 876 l 1,34,-1
 463 839 l 1,35,-1
 368 732 l 2,27,28
EndSplineSet
EndChar

StartChar: ccaron
Encoding: 269 269 207
Width: 469
GlyphClass: 2
Flags: W
LayerCount: 2
Fore
SplineSet
464 68 m 1,0,1
 392 -7 392 -7 278 -7 c 128,-1,2
 164 -7 164 -7 104 55 c 128,-1,3
 44 117 44 117 44 238.5 c 128,-1,4
 44 360 44 360 104.5 424.5 c 128,-1,5
 165 489 165 489 280 489 c 0,6,7
 357 489 357 489 405.5 460.5 c 128,-1,8
 454 432 454 432 454 387 c 0,9,10
 454 358 454 358 431.5 338 c 128,-1,11
 409 318 409 318 381 318 c 128,-1,12
 353 318 353 318 333.5 330 c 128,-1,13
 314 342 314 342 308 360 c 1,14,15
 320 378 320 378 320 398.5 c 128,-1,16
 320 419 320 419 306 431 c 128,-1,17
 292 443 292 443 271 443 c 0,18,19
 191 443 191 443 191 248 c 0,20,21
 191 141 191 141 217.5 96 c 128,-1,22
 244 51 244 51 307 51 c 128,-1,23
 370 51 370 51 428 104 c 1,24,-1
 464 68 l 1,0,1
338 542 m 2,25,26
 314 515 314 515 284 515 c 128,-1,27
 254 515 254 515 230 542 c 2,28,-1
 135 649 l 1,29,-1
 164 686 l 1,30,-1
 284 603 l 1,31,-1
 404 686 l 1,32,-1
 433 649 l 1,33,-1
 338 542 l 2,25,26
EndSplineSet
EndChar

StartChar: Dcaron
Encoding: 270 270 208
Width: 705
GlyphClass: 2
Flags: W
LayerCount: 2
Fore
SplineSet
260 667 m 2,0,1
 465 667 465 667 558 587 c 128,-1,2
 651 507 651 507 651 333 c 128,-1,3
 651 159 651 159 557 79.5 c 128,-1,4
 463 0 463 0 254 0 c 2,5,-1
 42 0 l 1,6,-1
 46 41 l 1,7,8
 78 48 78 48 102 70 c 1,9,-1
 102 597 l 1,10,11
 84 614 84 614 42 628 c 1,12,-1
 46 667 l 1,13,-1
 260 667 l 2,0,1
292 605 m 2,14,-1
 250 605 l 1,15,-1
 250 66 l 1,16,17
 259 62 259 62 289 62 c 0,18,19
 397 62 397 62 445.5 127 c 128,-1,20
 494 192 494 192 494 334.5 c 128,-1,21
 494 477 494 477 447 541 c 128,-1,22
 400 605 400 605 292 605 c 2,14,-1
376 732 m 2,23,24
 352 705 352 705 322 705 c 128,-1,25
 292 705 292 705 268 732 c 2,26,-1
 173 839 l 1,27,-1
 202 876 l 1,28,-1
 322 793 l 1,29,-1
 442 876 l 1,30,-1
 471 839 l 1,31,-1
 376 732 l 2,23,24
EndSplineSet
EndChar

StartChar: dcaron
Encoding: 271 271 209
Width: 725
GlyphClass: 2
Flags: W
LayerCount: 2
Fore
SplineSet
574 498 m 1,0,1
 593 550 593 550 593 585.5 c 128,-1,2
 593 621 593 621 569 641 c 1,3,4
 586 667 586 667 618 667 c 128,-1,5
 650 667 650 667 666.5 652.5 c 128,-1,6
 683 638 683 638 683 616 c 0,7,8
 683 559 683 559 622 478 c 1,9,-1
 574 498 l 1,0,1
373 65 m 1,10,11
 330 -7 330 -7 237 -7 c 128,-1,12
 144 -7 144 -7 96.5 53 c 128,-1,13
 49 113 49 113 49 235 c 128,-1,14
 49 357 49 357 106.5 424.5 c 128,-1,15
 164 492 164 492 270 492 c 0,16,17
 323 492 323 492 369 468 c 1,18,-1
 369 558 l 2,19,20
 369 595 369 595 354 608.5 c 128,-1,21
 339 622 339 622 299 624 c 1,22,-1
 302 663 l 1,23,24
 443 683 443 683 493 697 c 1,25,-1
 510 687 l 1,26,-1
 510 62 l 1,27,28
 531 43 531 43 570 35 c 1,29,-1
 566 0 l 1,30,-1
 386 0 l 1,31,-1
 373 65 l 1,10,11
369 234 m 2,32,-1
 369 419 l 1,33,34
 342 438 342 438 304 438 c 0,35,36
 195 438 195 438 195 229 c 0,37,38
 195 53 195 53 278 53 c 0,39,40
 369 53 369 53 369 234 c 2,32,-1
EndSplineSet
EndChar

StartChar: Dcroat
Encoding: 272 272 210
Width: 709
GlyphClass: 2
Flags: W
LayerCount: 2
Fore
SplineSet
20 292 m 1,0,-1
 20 360 l 1,1,-1
 383 360 l 1,2,-1
 383 292 l 1,3,-1
 20 292 l 1,0,-1
261 667 m 2,4,5
 466 667 466 667 559 587 c 128,-1,6
 652 507 652 507 652 333 c 128,-1,7
 652 159 652 159 558 79.5 c 128,-1,8
 464 0 464 0 255 0 c 2,9,-1
 43 0 l 1,10,-1
 47 41 l 1,11,12
 79 48 79 48 103 70 c 1,13,-1
 103 597 l 1,14,15
 85 614 85 614 43 628 c 1,16,-1
 47 667 l 1,17,-1
 261 667 l 2,4,5
293 605 m 2,18,-1
 251 605 l 1,19,-1
 251 66 l 1,20,21
 260 62 260 62 290 62 c 0,22,23
 398 62 398 62 446.5 127 c 128,-1,24
 495 192 495 192 495 334.5 c 128,-1,25
 495 477 495 477 448 541 c 128,-1,26
 401 605 401 605 293 605 c 2,18,-1
EndSplineSet
EndChar

StartChar: dcroat
Encoding: 273 273 211
Width: 597
GlyphClass: 2
Flags: W
LayerCount: 2
Fore
SplineSet
368 65 m 1,0,1
 324 -7 324 -7 231.5 -7 c 128,-1,2
 139 -7 139 -7 91.5 53 c 128,-1,3
 44 113 44 113 44 235 c 128,-1,4
 44 357 44 357 101.5 424.5 c 128,-1,5
 159 492 159 492 265 492 c 0,6,7
 318 492 318 492 364 468 c 1,8,-1
 364 558 l 2,9,10
 364 595 364 595 349 608.5 c 128,-1,11
 334 622 334 622 294 624 c 1,12,-1
 297 663 l 1,13,14
 438 683 438 683 488 697 c 1,15,-1
 505 687 l 1,16,-1
 505 62 l 1,17,18
 526 43 526 43 565 35 c 1,19,-1
 561 0 l 1,20,-1
 381 0 l 1,21,-1
 368 65 l 1,0,1
364 234 m 2,22,-1
 364 419 l 1,23,24
 337 438 337 438 299 438 c 0,25,26
 190 438 190 438 190 229 c 0,27,28
 190 53 190 53 273 53 c 0,29,30
 364 53 364 53 364 234 c 2,22,-1
249 513 m 1,31,-1
 249 581 l 1,32,-1
 560 581 l 1,33,-1
 560 513 l 1,34,-1
 249 513 l 1,31,-1
EndSplineSet
EndChar

StartChar: Emacron
Encoding: 274 274 212
Width: 578
GlyphClass: 2
Flags: W
LayerCount: 2
Fore
SplineSet
531 502 m 1,0,1
 508 495 508 495 493.5 495 c 128,-1,2
 479 495 479 495 457 499 c 1,3,4
 442 568 442 568 414 606 c 1,5,-1
 246 606 l 1,6,-1
 246 369 l 1,7,-1
 339 376 l 2,8,9
 357 378 357 378 372.5 396 c 128,-1,10
 388 414 388 414 395 443 c 1,11,-1
 447 443 l 1,12,-1
 447 236 l 1,13,-1
 395 236 l 1,14,15
 381 276 381 276 368 292 c 128,-1,16
 355 308 355 308 338 310 c 2,17,-1
 246 318 l 1,18,-1
 246 62 l 1,19,-1
 421 62 l 1,20,21
 453 110 453 110 468 189 c 1,22,23
 489 192 489 192 507.5 192 c 128,-1,24
 526 192 526 192 542 189 c 1,25,-1
 532 0 l 1,26,-1
 38 0 l 1,27,-1
 42 41 l 1,28,29
 81 47 81 47 99 66 c 1,30,-1
 99 601 l 1,31,32
 75 622 75 622 38 630 c 1,33,-1
 41 667 l 1,34,-1
 527 667 l 1,35,-1
 531 502 l 1,0,1
150 740 m 1,36,-1
 150 808 l 1,37,-1
 461 808 l 1,38,-1
 461 740 l 1,39,-1
 150 740 l 1,36,-1
EndSplineSet
EndChar

StartChar: emacron
Encoding: 275 275 213
Width: 531
GlyphClass: 2
Flags: W
LayerCount: 2
Fore
SplineSet
186 243 m 1,0,-1
 186 227 l 2,1,2
 186 143 186 143 210 102.5 c 128,-1,3
 234 62 234 62 300 62 c 0,4,5
 384 62 384 62 438 117 c 1,6,-1
 478 78 l 1,7,8
 437 37 437 37 392.5 15 c 128,-1,9
 348 -7 348 -7 276 -7 c 0,10,11
 160 -7 160 -7 101.5 58.5 c 128,-1,12
 43 124 43 124 43 240.5 c 128,-1,13
 43 357 43 357 105 424.5 c 128,-1,14
 167 492 167 492 281.5 492 c 128,-1,15
 396 492 396 492 443 440 c 128,-1,16
 490 388 490 388 496 285 c 1,17,-1
 468 243 l 1,18,-1
 186 243 l 1,0,-1
280 443 m 0,19,20
 189 443 189 443 186 283 c 1,21,-1
 354 291 l 1,22,23
 354 371 354 371 338 407 c 128,-1,24
 322 443 322 443 280 443 c 0,19,20
133 552 m 1,25,-1
 133 620 l 1,26,-1
 444 620 l 1,27,-1
 444 552 l 1,28,-1
 133 552 l 1,25,-1
EndSplineSet
EndChar

StartChar: Ebreve
Encoding: 276 276 214
Width: 578
GlyphClass: 2
Flags: W
LayerCount: 2
Fore
SplineSet
531 502 m 1,0,1
 508 495 508 495 493.5 495 c 128,-1,2
 479 495 479 495 457 499 c 1,3,4
 442 568 442 568 414 606 c 1,5,-1
 246 606 l 1,6,-1
 246 369 l 1,7,-1
 339 376 l 2,8,9
 357 378 357 378 372.5 396 c 128,-1,10
 388 414 388 414 395 443 c 1,11,-1
 447 443 l 1,12,-1
 447 236 l 1,13,-1
 395 236 l 1,14,15
 381 276 381 276 368 292 c 128,-1,16
 355 308 355 308 338 310 c 2,17,-1
 246 318 l 1,18,-1
 246 62 l 1,19,-1
 421 62 l 1,20,21
 453 110 453 110 468 189 c 1,22,23
 489 192 489 192 507.5 192 c 128,-1,24
 526 192 526 192 542 189 c 1,25,-1
 532 0 l 1,26,-1
 38 0 l 1,27,-1
 42 41 l 1,28,29
 81 47 81 47 99 66 c 1,30,-1
 99 601 l 1,31,32
 75 622 75 622 38 630 c 1,33,-1
 41 667 l 1,34,-1
 527 667 l 1,35,-1
 531 502 l 1,0,1
307 702 m 128,-1,37
 247 702 247 702 208 739 c 128,-1,38
 169 776 169 776 164 838 c 1,39,40
 186 849 186 849 224 849 c 1,41,42
 235 780 235 780 307 780 c 128,-1,43
 379 780 379 780 390 849 c 1,44,45
 423 849 423 849 449 839 c 1,46,47
 444 777 444 777 405.5 739.5 c 128,-1,36
 367 702 367 702 307 702 c 128,-1,37
EndSplineSet
EndChar

StartChar: ebreve
Encoding: 277 277 215
Width: 531
GlyphClass: 2
Flags: W
LayerCount: 2
Fore
SplineSet
186 243 m 1,0,-1
 186 227 l 2,1,2
 186 143 186 143 210 102.5 c 128,-1,3
 234 62 234 62 300 62 c 0,4,5
 384 62 384 62 438 117 c 1,6,-1
 478 78 l 1,7,8
 437 37 437 37 392.5 15 c 128,-1,9
 348 -7 348 -7 276 -7 c 0,10,11
 160 -7 160 -7 101.5 58.5 c 128,-1,12
 43 124 43 124 43 240.5 c 128,-1,13
 43 357 43 357 105 424.5 c 128,-1,14
 167 492 167 492 281.5 492 c 128,-1,15
 396 492 396 492 443 440 c 128,-1,16
 490 388 490 388 496 285 c 1,17,-1
 468 243 l 1,18,-1
 186 243 l 1,0,-1
280 443 m 0,19,20
 189 443 189 443 186 283 c 1,21,-1
 354 291 l 1,22,23
 354 371 354 371 338 407 c 128,-1,24
 322 443 322 443 280 443 c 0,19,20
290 522 m 128,-1,26
 230 522 230 522 191 559 c 128,-1,27
 152 596 152 596 147 658 c 1,28,29
 169 669 169 669 207 669 c 1,30,31
 218 600 218 600 290 600 c 128,-1,32
 362 600 362 600 373 669 c 1,33,34
 406 669 406 669 432 659 c 1,35,36
 427 597 427 597 388.5 559.5 c 128,-1,25
 350 522 350 522 290 522 c 128,-1,26
EndSplineSet
EndChar

StartChar: Edotaccent
Encoding: 278 278 216
Width: 578
GlyphClass: 2
Flags: W
LayerCount: 2
Fore
SplineSet
531 502 m 1,0,1
 508 495 508 495 493.5 495 c 128,-1,2
 479 495 479 495 457 499 c 1,3,4
 442 568 442 568 414 606 c 1,5,-1
 246 606 l 1,6,-1
 246 369 l 1,7,-1
 339 376 l 2,8,9
 357 378 357 378 372.5 396 c 128,-1,10
 388 414 388 414 395 443 c 1,11,-1
 447 443 l 1,12,-1
 447 236 l 1,13,-1
 395 236 l 1,14,15
 381 276 381 276 368 292 c 128,-1,16
 355 308 355 308 338 310 c 2,17,-1
 246 318 l 1,18,-1
 246 62 l 1,19,-1
 421 62 l 1,20,21
 453 110 453 110 468 189 c 1,22,23
 489 192 489 192 507.5 192 c 128,-1,24
 526 192 526 192 542 189 c 1,25,-1
 532 0 l 1,26,-1
 38 0 l 1,27,-1
 42 41 l 1,28,29
 81 47 81 47 99 66 c 1,30,-1
 99 601 l 1,31,32
 75 622 75 622 38 630 c 1,33,-1
 41 667 l 1,34,-1
 527 667 l 1,35,-1
 531 502 l 1,0,1
385 784 m 128,-1,37
 385 714 385 714 305.5 714 c 128,-1,38
 226 714 226 714 226 784 c 128,-1,39
 226 854 226 854 305.5 854 c 128,-1,36
 385 854 385 854 385 784 c 128,-1,37
EndSplineSet
EndChar

StartChar: edotaccent
Encoding: 279 279 217
Width: 531
GlyphClass: 2
Flags: W
LayerCount: 2
Fore
SplineSet
186 243 m 1,0,-1
 186 227 l 2,1,2
 186 143 186 143 210 102.5 c 128,-1,3
 234 62 234 62 300 62 c 0,4,5
 384 62 384 62 438 117 c 1,6,-1
 478 78 l 1,7,8
 437 37 437 37 392.5 15 c 128,-1,9
 348 -7 348 -7 276 -7 c 0,10,11
 160 -7 160 -7 101.5 58.5 c 128,-1,12
 43 124 43 124 43 240.5 c 128,-1,13
 43 357 43 357 105 424.5 c 128,-1,14
 167 492 167 492 281.5 492 c 128,-1,15
 396 492 396 492 443 440 c 128,-1,16
 490 388 490 388 496 285 c 1,17,-1
 468 243 l 1,18,-1
 186 243 l 1,0,-1
280 443 m 0,19,20
 189 443 189 443 186 283 c 1,21,-1
 354 291 l 1,22,23
 354 371 354 371 338 407 c 128,-1,24
 322 443 322 443 280 443 c 0,19,20
368 620 m 128,-1,26
 368 550 368 550 288.5 550 c 128,-1,27
 209 550 209 550 209 620 c 128,-1,28
 209 690 209 690 288.5 690 c 128,-1,25
 368 690 368 690 368 620 c 128,-1,26
EndSplineSet
EndChar

StartChar: Eogonek
Encoding: 280 280 218
Width: 578
GlyphClass: 2
Flags: W
LayerCount: 2
Fore
SplineSet
531 502 m 1,0,1
 508 495 508 495 493.5 495 c 128,-1,2
 479 495 479 495 457 499 c 1,3,4
 442 568 442 568 414 606 c 1,5,-1
 246 606 l 1,6,-1
 246 369 l 1,7,-1
 339 376 l 2,8,9
 357 378 357 378 372.5 396 c 128,-1,10
 388 414 388 414 395 443 c 1,11,-1
 447 443 l 1,12,-1
 447 236 l 1,13,-1
 395 236 l 1,14,15
 381 276 381 276 368 292 c 128,-1,16
 355 308 355 308 338 310 c 2,17,-1
 246 318 l 1,18,-1
 246 62 l 1,19,-1
 421 62 l 1,20,21
 453 110 453 110 468 189 c 1,22,23
 489 192 489 192 507.5 192 c 128,-1,24
 526 192 526 192 542 189 c 1,25,-1
 532 0 l 1,26,-1
 503 0 l 2,27,28
 463 0 463 0 436.5 -35.5 c 128,-1,29
 410 -71 410 -71 410 -108 c 128,-1,30
 410 -145 410 -145 438 -145 c 0,31,32
 461 -145 461 -145 488 -122 c 1,33,-1
 514 -157 l 1,34,35
 475 -204 475 -204 409 -204 c 0,36,37
 370 -204 370 -204 342.5 -181.5 c 128,-1,38
 315 -159 315 -159 315 -121 c 0,39,40
 315 -90 315 -90 338 -58 c 0,41,42
 347 -47 347 -47 362.5 -27.5 c 128,-1,43
 378 -8 378 -8 384 0 c 1,44,-1
 38 0 l 1,45,-1
 42 41 l 1,46,47
 81 47 81 47 99 66 c 1,48,-1
 99 601 l 1,49,50
 75 622 75 622 38 630 c 1,51,-1
 41 667 l 1,52,-1
 527 667 l 1,53,-1
 531 502 l 1,0,1
EndSplineSet
EndChar

StartChar: eogonek
Encoding: 281 281 219
Width: 531
GlyphClass: 2
Flags: W
LayerCount: 2
Fore
SplineSet
280 443 m 0,0,1
 189 443 189 443 186 283 c 1,2,-1
 354 291 l 1,3,4
 354 371 354 371 338 407 c 128,-1,5
 322 443 322 443 280 443 c 0,0,1
305 -6 m 1,6,-1
 276 -7 l 1,7,8
 160 -7 160 -7 101.5 58.5 c 128,-1,9
 43 124 43 124 43 240.5 c 128,-1,10
 43 357 43 357 105 424.5 c 128,-1,11
 167 492 167 492 281.5 492 c 128,-1,12
 396 492 396 492 443 440 c 128,-1,13
 490 388 490 388 496 285 c 1,14,-1
 468 243 l 1,15,-1
 186 243 l 1,16,-1
 186 227 l 2,17,18
 186 143 186 143 210 102.5 c 128,-1,19
 234 62 234 62 300 62 c 0,20,21
 384 62 384 62 438 117 c 1,22,-1
 478 78 l 1,23,24
 454 54 454 54 429.5 35 c 128,-1,25
 405 16 405 16 388 -0.5 c 128,-1,26
 371 -17 371 -17 355.5 -45 c 128,-1,27
 340 -73 340 -73 340 -109 c 128,-1,28
 340 -145 340 -145 368 -145 c 0,29,30
 391 -145 391 -145 418 -122 c 1,31,-1
 444 -157 l 1,32,33
 405 -204 405 -204 339 -204 c 0,34,35
 300 -204 300 -204 272.5 -181.5 c 128,-1,36
 245 -159 245 -159 245 -121 c 0,37,38
 245 -85 245 -85 281 -37 c 0,39,40
 302 -9 302 -9 305 -6 c 1,6,-1
EndSplineSet
EndChar

StartChar: Ecaron
Encoding: 282 282 220
Width: 578
GlyphClass: 2
Flags: W
LayerCount: 2
Fore
SplineSet
531 502 m 1,0,1
 508 495 508 495 493.5 495 c 128,-1,2
 479 495 479 495 457 499 c 1,3,4
 442 568 442 568 414 606 c 1,5,-1
 246 606 l 1,6,-1
 246 369 l 1,7,-1
 339 376 l 2,8,9
 357 378 357 378 372.5 396 c 128,-1,10
 388 414 388 414 395 443 c 1,11,-1
 447 443 l 1,12,-1
 447 236 l 1,13,-1
 395 236 l 1,14,15
 381 276 381 276 368 292 c 128,-1,16
 355 308 355 308 338 310 c 2,17,-1
 246 318 l 1,18,-1
 246 62 l 1,19,-1
 421 62 l 1,20,21
 453 110 453 110 468 189 c 1,22,23
 489 192 489 192 507.5 192 c 128,-1,24
 526 192 526 192 542 189 c 1,25,-1
 532 0 l 1,26,-1
 38 0 l 1,27,-1
 42 41 l 1,28,29
 81 47 81 47 99 66 c 1,30,-1
 99 601 l 1,31,32
 75 622 75 622 38 630 c 1,33,-1
 41 667 l 1,34,-1
 527 667 l 1,35,-1
 531 502 l 1,0,1
359 732 m 2,36,37
 335 705 335 705 305 705 c 128,-1,38
 275 705 275 705 251 732 c 2,39,-1
 156 839 l 1,40,-1
 185 876 l 1,41,-1
 305 793 l 1,42,-1
 425 876 l 1,43,-1
 454 839 l 1,44,-1
 359 732 l 2,36,37
EndSplineSet
EndChar

StartChar: ecaron
Encoding: 283 283 221
Width: 531
GlyphClass: 2
Flags: W
LayerCount: 2
Fore
SplineSet
186 243 m 1,0,-1
 186 227 l 2,1,2
 186 143 186 143 210 102.5 c 128,-1,3
 234 62 234 62 300 62 c 0,4,5
 384 62 384 62 438 117 c 1,6,-1
 478 78 l 1,7,8
 437 37 437 37 392.5 15 c 128,-1,9
 348 -7 348 -7 276 -7 c 0,10,11
 160 -7 160 -7 101.5 58.5 c 128,-1,12
 43 124 43 124 43 240.5 c 128,-1,13
 43 357 43 357 105 424.5 c 128,-1,14
 167 492 167 492 281.5 492 c 128,-1,15
 396 492 396 492 443 440 c 128,-1,16
 490 388 490 388 496 285 c 1,17,-1
 468 243 l 1,18,-1
 186 243 l 1,0,-1
280 443 m 0,19,20
 189 443 189 443 186 283 c 1,21,-1
 354 291 l 1,22,23
 354 371 354 371 338 407 c 128,-1,24
 322 443 322 443 280 443 c 0,19,20
342 542 m 2,25,26
 318 515 318 515 288 515 c 128,-1,27
 258 515 258 515 234 542 c 2,28,-1
 139 649 l 1,29,-1
 168 686 l 1,30,-1
 288 603 l 1,31,-1
 408 686 l 1,32,-1
 437 649 l 1,33,-1
 342 542 l 2,25,26
EndSplineSet
EndChar

StartChar: Gcircumflex
Encoding: 284 284 222
Width: 646
GlyphClass: 2
Flags: W
LayerCount: 2
Fore
SplineSet
584 66 m 1,0,1
 478 -10 478 -10 338.5 -10 c 128,-1,2
 199 -10 199 -10 126 75.5 c 128,-1,3
 53 161 53 161 53 329 c 128,-1,4
 53 497 53 497 129.5 585.5 c 128,-1,5
 206 674 206 674 355 674 c 0,6,7
 452 674 452 674 513.5 637.5 c 128,-1,8
 575 601 575 601 575 542 c 0,9,10
 575 506 575 506 552 481 c 128,-1,11
 529 456 529 456 500 456 c 128,-1,12
 471 456 471 456 449.5 469 c 128,-1,13
 428 482 428 482 418 502 c 1,14,15
 435 530 435 530 435 553 c 0,16,17
 435 621 435 621 351 621 c 0,18,19
 208 621 208 621 208 342 c 0,20,21
 208 197 208 197 248.5 127.5 c 128,-1,22
 289 58 289 58 374 58 c 0,23,24
 406 58 406 58 437 72 c 1,25,-1
 437 253 l 1,26,27
 418 285 418 285 359 292 c 1,28,-1
 364 332 l 1,29,-1
 584 340 l 1,30,-1
 584 66 l 1,0,1
292 849 m 2,31,32
 316 876 316 876 346 876 c 128,-1,33
 376 876 376 876 400 849 c 2,34,-1
 495 742 l 1,35,-1
 466 705 l 1,36,-1
 346 788 l 1,37,-1
 226 705 l 1,38,-1
 197 742 l 1,39,-1
 292 849 l 2,31,32
EndSplineSet
EndChar

StartChar: gcircumflex
Encoding: 285 285 223
Width: 520
GlyphClass: 2
Flags: W
LayerCount: 2
Fore
SplineSet
98.5 445.5 m 128,-1,1
 153 492 153 492 242.5 492 c 128,-1,2
 332 492 332 492 385 459 c 1,3,4
 399 471 399 471 399 493 c 128,-1,5
 399 515 399 515 371 529 c 1,6,7
 371 545 371 545 387.5 556 c 128,-1,8
 404 567 404 567 428 567 c 128,-1,9
 452 567 452 567 467.5 552.5 c 128,-1,10
 483 538 483 538 483 514 c 128,-1,11
 483 490 483 490 465.5 465.5 c 128,-1,12
 448 441 448 441 422 428 c 1,13,14
 459 383 459 383 459 310.5 c 128,-1,15
 459 238 459 238 403 192.5 c 128,-1,16
 347 147 347 147 252 147 c 2,17,-1
 236 147 l 1,18,-1
 202 104 l 1,19,20
 205 84 205 84 260 84 c 2,21,-1
 302 84 l 2,22,23
 401 84 401 84 453 45.5 c 128,-1,24
 505 7 505 7 505 -66.5 c 128,-1,25
 505 -140 505 -140 444 -179.5 c 128,-1,26
 383 -219 383 -219 267 -219 c 128,-1,27
 151 -219 151 -219 87 -186.5 c 128,-1,28
 23 -154 23 -154 23 -93 c 0,29,30
 23 -17 23 -17 101 35 c 1,31,32
 86 59 86 59 86 95 c 1,33,-1
 173 156 l 1,34,35
 112 173 112 173 78 214.5 c 128,-1,36
 44 256 44 256 44 315 c 0,37,0
 44 399 44 399 98.5 445.5 c 128,-1,1
278 0 m 2,38,-1
 187 0 l 1,39,-1
 181 -6 l 2,40,41
 153 -34 153 -34 153 -78 c 128,-1,42
 153 -122 153 -122 181 -142.5 c 128,-1,43
 209 -163 209 -163 269 -163 c 0,44,45
 389 -163 389 -163 389 -78 c 0,46,47
 389 0 389 0 278 0 c 2,38,-1
198.5 220 m 128,-1,49
 212 196 212 196 253 196 c 128,-1,50
 294 196 294 196 310 221.5 c 128,-1,51
 326 247 326 247 326 314.5 c 128,-1,52
 326 382 326 382 308.5 412 c 128,-1,53
 291 442 291 442 254 442 c 128,-1,54
 217 442 217 442 201 412 c 128,-1,55
 185 382 185 382 185 313 c 128,-1,48
 185 244 185 244 198.5 220 c 128,-1,49
202 659 m 2,56,57
 226 686 226 686 256 686 c 128,-1,58
 286 686 286 686 310 659 c 2,59,-1
 405 552 l 1,60,-1
 376 515 l 1,61,-1
 256 598 l 1,62,-1
 136 515 l 1,63,-1
 107 552 l 1,64,-1
 202 659 l 2,56,57
EndSplineSet
EndChar

StartChar: Gbreve
Encoding: 286 286 224
Width: 646
GlyphClass: 2
Flags: W
LayerCount: 2
Fore
SplineSet
584 66 m 1,0,1
 478 -10 478 -10 338.5 -10 c 128,-1,2
 199 -10 199 -10 126 75.5 c 128,-1,3
 53 161 53 161 53 329 c 128,-1,4
 53 497 53 497 129.5 585.5 c 128,-1,5
 206 674 206 674 355 674 c 0,6,7
 452 674 452 674 513.5 637.5 c 128,-1,8
 575 601 575 601 575 542 c 0,9,10
 575 506 575 506 552 481 c 128,-1,11
 529 456 529 456 500 456 c 128,-1,12
 471 456 471 456 449.5 469 c 128,-1,13
 428 482 428 482 418 502 c 1,14,15
 435 530 435 530 435 553 c 0,16,17
 435 621 435 621 351 621 c 0,18,19
 208 621 208 621 208 342 c 0,20,21
 208 197 208 197 248.5 127.5 c 128,-1,22
 289 58 289 58 374 58 c 0,23,24
 406 58 406 58 437 72 c 1,25,-1
 437 253 l 1,26,27
 418 285 418 285 359 292 c 1,28,-1
 364 332 l 1,29,-1
 584 340 l 1,30,-1
 584 66 l 1,0,1
347 702 m 128,-1,32
 287 702 287 702 248 739 c 128,-1,33
 209 776 209 776 204 838 c 1,34,35
 226 849 226 849 264 849 c 1,36,37
 275 780 275 780 347 780 c 128,-1,38
 419 780 419 780 430 849 c 1,39,40
 463 849 463 849 489 839 c 1,41,42
 484 777 484 777 445.5 739.5 c 128,-1,31
 407 702 407 702 347 702 c 128,-1,32
EndSplineSet
EndChar

StartChar: gbreve
Encoding: 287 287 225
Width: 520
GlyphClass: 2
Flags: W
LayerCount: 2
Fore
SplineSet
98.5 445.5 m 128,-1,1
 153 492 153 492 242.5 492 c 128,-1,2
 332 492 332 492 385 459 c 1,3,4
 399 471 399 471 399 493 c 128,-1,5
 399 515 399 515 371 529 c 1,6,7
 371 545 371 545 387.5 556 c 128,-1,8
 404 567 404 567 428 567 c 128,-1,9
 452 567 452 567 467.5 552.5 c 128,-1,10
 483 538 483 538 483 514 c 128,-1,11
 483 490 483 490 465.5 465.5 c 128,-1,12
 448 441 448 441 422 428 c 1,13,14
 459 383 459 383 459 310.5 c 128,-1,15
 459 238 459 238 403 192.5 c 128,-1,16
 347 147 347 147 252 147 c 2,17,-1
 236 147 l 1,18,-1
 202 104 l 1,19,20
 205 84 205 84 260 84 c 2,21,-1
 302 84 l 2,22,23
 401 84 401 84 453 45.5 c 128,-1,24
 505 7 505 7 505 -66.5 c 128,-1,25
 505 -140 505 -140 444 -179.5 c 128,-1,26
 383 -219 383 -219 267 -219 c 128,-1,27
 151 -219 151 -219 87 -186.5 c 128,-1,28
 23 -154 23 -154 23 -93 c 0,29,30
 23 -17 23 -17 101 35 c 1,31,32
 86 59 86 59 86 95 c 1,33,-1
 173 156 l 1,34,35
 112 173 112 173 78 214.5 c 128,-1,36
 44 256 44 256 44 315 c 0,37,0
 44 399 44 399 98.5 445.5 c 128,-1,1
278 0 m 2,38,-1
 187 0 l 1,39,-1
 181 -6 l 2,40,41
 153 -34 153 -34 153 -78 c 128,-1,42
 153 -122 153 -122 181 -142.5 c 128,-1,43
 209 -163 209 -163 269 -163 c 0,44,45
 389 -163 389 -163 389 -78 c 0,46,47
 389 0 389 0 278 0 c 2,38,-1
198.5 220 m 128,-1,49
 212 196 212 196 253 196 c 128,-1,50
 294 196 294 196 310 221.5 c 128,-1,51
 326 247 326 247 326 314.5 c 128,-1,52
 326 382 326 382 308.5 412 c 128,-1,53
 291 442 291 442 254 442 c 128,-1,54
 217 442 217 442 201 412 c 128,-1,55
 185 382 185 382 185 313 c 128,-1,48
 185 244 185 244 198.5 220 c 128,-1,49
251 522 m 128,-1,57
 191 522 191 522 152 559 c 128,-1,58
 113 596 113 596 108 658 c 1,59,60
 130 669 130 669 168 669 c 1,61,62
 179 600 179 600 251 600 c 128,-1,63
 323 600 323 600 334 669 c 1,64,65
 367 669 367 669 393 659 c 1,66,67
 388 597 388 597 349.5 559.5 c 128,-1,56
 311 522 311 522 251 522 c 128,-1,57
EndSplineSet
EndChar

StartChar: Gdotaccent
Encoding: 288 288 226
Width: 646
GlyphClass: 2
Flags: W
LayerCount: 2
Fore
SplineSet
584 66 m 1,0,1
 478 -10 478 -10 338.5 -10 c 128,-1,2
 199 -10 199 -10 126 75.5 c 128,-1,3
 53 161 53 161 53 329 c 128,-1,4
 53 497 53 497 129.5 585.5 c 128,-1,5
 206 674 206 674 355 674 c 0,6,7
 452 674 452 674 513.5 637.5 c 128,-1,8
 575 601 575 601 575 542 c 0,9,10
 575 506 575 506 552 481 c 128,-1,11
 529 456 529 456 500 456 c 128,-1,12
 471 456 471 456 449.5 469 c 128,-1,13
 428 482 428 482 418 502 c 1,14,15
 435 530 435 530 435 553 c 0,16,17
 435 621 435 621 351 621 c 0,18,19
 208 621 208 621 208 342 c 0,20,21
 208 197 208 197 248.5 127.5 c 128,-1,22
 289 58 289 58 374 58 c 0,23,24
 406 58 406 58 437 72 c 1,25,-1
 437 253 l 1,26,27
 418 285 418 285 359 292 c 1,28,-1
 364 332 l 1,29,-1
 584 340 l 1,30,-1
 584 66 l 1,0,1
425 784 m 128,-1,32
 425 714 425 714 345.5 714 c 128,-1,33
 266 714 266 714 266 784 c 128,-1,34
 266 854 266 854 345.5 854 c 128,-1,31
 425 854 425 854 425 784 c 128,-1,32
EndSplineSet
EndChar

StartChar: gdotaccent
Encoding: 289 289 227
Width: 520
GlyphClass: 2
Flags: W
LayerCount: 2
Fore
SplineSet
98.5 445.5 m 128,-1,1
 153 492 153 492 242.5 492 c 128,-1,2
 332 492 332 492 385 459 c 1,3,4
 399 471 399 471 399 493 c 128,-1,5
 399 515 399 515 371 529 c 1,6,7
 371 545 371 545 387.5 556 c 128,-1,8
 404 567 404 567 428 567 c 128,-1,9
 452 567 452 567 467.5 552.5 c 128,-1,10
 483 538 483 538 483 514 c 128,-1,11
 483 490 483 490 465.5 465.5 c 128,-1,12
 448 441 448 441 422 428 c 1,13,14
 459 383 459 383 459 310.5 c 128,-1,15
 459 238 459 238 403 192.5 c 128,-1,16
 347 147 347 147 252 147 c 2,17,-1
 236 147 l 1,18,-1
 202 104 l 1,19,20
 205 84 205 84 260 84 c 2,21,-1
 302 84 l 2,22,23
 401 84 401 84 453 45.5 c 128,-1,24
 505 7 505 7 505 -66.5 c 128,-1,25
 505 -140 505 -140 444 -179.5 c 128,-1,26
 383 -219 383 -219 267 -219 c 128,-1,27
 151 -219 151 -219 87 -186.5 c 128,-1,28
 23 -154 23 -154 23 -93 c 0,29,30
 23 -17 23 -17 101 35 c 1,31,32
 86 59 86 59 86 95 c 1,33,-1
 173 156 l 1,34,35
 112 173 112 173 78 214.5 c 128,-1,36
 44 256 44 256 44 315 c 0,37,0
 44 399 44 399 98.5 445.5 c 128,-1,1
278 0 m 2,38,-1
 187 0 l 1,39,-1
 181 -6 l 2,40,41
 153 -34 153 -34 153 -78 c 128,-1,42
 153 -122 153 -122 181 -142.5 c 128,-1,43
 209 -163 209 -163 269 -163 c 0,44,45
 389 -163 389 -163 389 -78 c 0,46,47
 389 0 389 0 278 0 c 2,38,-1
198.5 220 m 128,-1,49
 212 196 212 196 253 196 c 128,-1,50
 294 196 294 196 310 221.5 c 128,-1,51
 326 247 326 247 326 314.5 c 128,-1,52
 326 382 326 382 308.5 412 c 128,-1,53
 291 442 291 442 254 442 c 128,-1,54
 217 442 217 442 201 412 c 128,-1,55
 185 382 185 382 185 313 c 128,-1,48
 185 244 185 244 198.5 220 c 128,-1,49
335 620 m 128,-1,57
 335 550 335 550 255.5 550 c 128,-1,58
 176 550 176 550 176 620 c 128,-1,59
 176 690 176 690 255.5 690 c 128,-1,56
 335 690 335 690 335 620 c 128,-1,57
EndSplineSet
EndChar

StartChar: uni0122
Encoding: 290 290 228
Width: 646
GlyphClass: 2
Flags: W
LayerCount: 2
Fore
SplineSet
584 66 m 1,0,1
 478 -10 478 -10 338.5 -10 c 128,-1,2
 199 -10 199 -10 126 75.5 c 128,-1,3
 53 161 53 161 53 329 c 128,-1,4
 53 497 53 497 129.5 585.5 c 128,-1,5
 206 674 206 674 355 674 c 0,6,7
 452 674 452 674 513.5 637.5 c 128,-1,8
 575 601 575 601 575 542 c 0,9,10
 575 506 575 506 552 481 c 128,-1,11
 529 456 529 456 500 456 c 128,-1,12
 471 456 471 456 449.5 469 c 128,-1,13
 428 482 428 482 418 502 c 1,14,15
 435 530 435 530 435 553 c 0,16,17
 435 621 435 621 351 621 c 0,18,19
 208 621 208 621 208 342 c 0,20,21
 208 197 208 197 248.5 127.5 c 128,-1,22
 289 58 289 58 374 58 c 0,23,24
 406 58 406 58 437 72 c 1,25,-1
 437 253 l 1,26,27
 418 285 418 285 359 292 c 1,28,-1
 364 332 l 1,29,-1
 584 340 l 1,30,-1
 584 66 l 1,0,1
295 -199 m 1,31,32
 314 -147 314 -147 314 -111.5 c 128,-1,33
 314 -76 314 -76 290 -56 c 1,34,35
 307 -30 307 -30 339 -30 c 128,-1,36
 371 -30 371 -30 387.5 -44.5 c 128,-1,37
 404 -59 404 -59 404 -81 c 0,38,39
 404 -138 404 -138 343 -219 c 1,40,-1
 295 -199 l 1,31,32
EndSplineSet
EndChar

StartChar: uni0123
Encoding: 291 291 229
Width: 520
GlyphClass: 2
Flags: W
LayerCount: 2
Fore
SplineSet
313 700 m 1,0,1
 296 649 296 649 296 612.5 c 128,-1,2
 296 576 296 576 318 557 c 1,3,4
 301 531 301 531 270.5 531 c 128,-1,5
 240 531 240 531 224 545.5 c 128,-1,6
 208 560 208 560 208 582 c 0,7,8
 208 640 208 640 268 719 c 1,9,-1
 313 700 l 1,0,1
98.5 445.5 m 128,-1,11
 153 492 153 492 242.5 492 c 128,-1,12
 332 492 332 492 385 459 c 1,13,14
 399 471 399 471 399 493 c 128,-1,15
 399 515 399 515 371 529 c 1,16,17
 371 545 371 545 387.5 556 c 128,-1,18
 404 567 404 567 428 567 c 128,-1,19
 452 567 452 567 467.5 552.5 c 128,-1,20
 483 538 483 538 483 514 c 128,-1,21
 483 490 483 490 465.5 465.5 c 128,-1,22
 448 441 448 441 422 428 c 1,23,24
 459 383 459 383 459 310.5 c 128,-1,25
 459 238 459 238 403 192.5 c 128,-1,26
 347 147 347 147 252 147 c 2,27,-1
 236 147 l 1,28,-1
 202 104 l 1,29,30
 205 84 205 84 260 84 c 2,31,-1
 302 84 l 2,32,33
 401 84 401 84 453 45.5 c 128,-1,34
 505 7 505 7 505 -66.5 c 128,-1,35
 505 -140 505 -140 444 -179.5 c 128,-1,36
 383 -219 383 -219 267 -219 c 128,-1,37
 151 -219 151 -219 87 -186.5 c 128,-1,38
 23 -154 23 -154 23 -93 c 0,39,40
 23 -17 23 -17 101 35 c 1,41,42
 86 59 86 59 86 95 c 1,43,-1
 173 156 l 1,44,45
 112 173 112 173 78 214.5 c 128,-1,46
 44 256 44 256 44 315 c 0,47,10
 44 399 44 399 98.5 445.5 c 128,-1,11
278 0 m 2,48,-1
 187 0 l 1,49,-1
 181 -6 l 2,50,51
 153 -34 153 -34 153 -78 c 128,-1,52
 153 -122 153 -122 181 -142.5 c 128,-1,53
 209 -163 209 -163 269 -163 c 0,54,55
 389 -163 389 -163 389 -78 c 0,56,57
 389 0 389 0 278 0 c 2,48,-1
198.5 220 m 128,-1,59
 212 196 212 196 253 196 c 128,-1,60
 294 196 294 196 310 221.5 c 128,-1,61
 326 247 326 247 326 314.5 c 128,-1,62
 326 382 326 382 308.5 412 c 128,-1,63
 291 442 291 442 254 442 c 128,-1,64
 217 442 217 442 201 412 c 128,-1,65
 185 382 185 382 185 313 c 128,-1,58
 185 244 185 244 198.5 220 c 128,-1,59
EndSplineSet
EndChar

StartChar: Hcircumflex
Encoding: 292 292 230
Width: 722
GlyphClass: 2
Flags: W
LayerCount: 2
Fore
SplineSet
239 373 m 1,0,-1
 468 373 l 1,1,-1
 468 596 l 1,2,3
 442 618 442 618 399 626 c 1,4,-1
 404 667 l 1,5,-1
 682 667 l 1,6,-1
 676 628 l 1,7,8
 637 616 637 616 615 596 c 1,9,-1
 615 71 l 1,10,11
 638 50 638 50 690 39 c 1,12,-1
 683 0 l 1,13,-1
 407 0 l 1,14,-1
 411 41 l 1,15,16
 444 47 444 47 468 71 c 1,17,-1
 468 310 l 1,18,-1
 239 310 l 1,19,-1
 239 71 l 1,20,21
 262 50 262 50 314 39 c 1,22,-1
 307 0 l 1,23,-1
 31 0 l 1,24,-1
 35 41 l 1,25,26
 68 47 68 47 92 71 c 1,27,-1
 92 596 l 1,28,29
 71 614 71 614 31 628 c 1,30,-1
 35 667 l 1,31,-1
 314 667 l 1,32,-1
 308 626 l 1,33,34
 265 618 265 618 239 596 c 1,35,-1
 239 373 l 1,0,-1
303 849 m 2,36,37
 327 876 327 876 357 876 c 128,-1,38
 387 876 387 876 411 849 c 2,39,-1
 506 742 l 1,40,-1
 477 705 l 1,41,-1
 357 788 l 1,42,-1
 237 705 l 1,43,-1
 208 742 l 1,44,-1
 303 849 l 2,36,37
EndSplineSet
EndChar

